/* XPM */
static const char * flow_xpm[] = {
"22 22 3 1",
" 	c None",
".	c white",
"X	c black",
"                      ",
"                      ",
"                      ",
" XXXX X    XX  X   X  ",
" X    X   X  X X   X  ",
" XXX  X   X  X X   X  ",
" X    X   X  X X X X  ",
" X    XXX  XX   X X   ",
"                      ",
"                 X    ",
"                 XX   ",
" XXXXXXXXXXXXXXXXXXX  ",
" XXXXXXXXXXXXXXXXXXX  ",
"                 XX   ",
"                 X    ",
"                      ",
"                      ",
"                      ",
"                      ",
"                      ",
"                      ",
"                      "};
