/* XPM */
static const char * function_xpm[] = {
"22 22 2 1",
" 	c None",
".	c black",
"                      ",
"                      ",
"                      ",
"                      ",
" .................... ",
" .                  . ",
" .                  . ",
" .                  . ",
" .  .... .  . .  .  . ",
" .  .    .  . .. .  . ",
" .  ...  .  . .. .  . ",
" .  .    .  . . ..  . ",
" .  .    .... . ..  . ",
" .                  . ",
" .                  . ",
" .                  . ",
" .                  . ",
" .                  . ",
" .................... ",
"                      ",
"                      ",
"                      "};
