/* XPM */
static const char * orthflow_xpm[] = {
"22 22 3 1",
" 	c None",
".	c white",
"X	c black",
"                      ",
"                      ",
"                      ",
" XXXX X    XX  X   X  ",
" X    X   X  X X   X  ",
" XXX  X   X  X X   X  ",
" X    X   X  X X X X  ",
" X    XXX  XX   X X   ",
"                      ",
"                      ",
"                      ",
" XXXXXXXXX            ",
" XXXXXXXXX            ",
"        XX            ",
"        XX       X    ",
"        XX       XX   ",
"        XXXXXXXXXXXX  ",
"        XXXXXXXXXXXX  ",
"                 XX   ",
"                 X    ",
"                      ",
"                      "};
