/* XPM */
static const char * sozi_media_xpm[] = {
"22 22 189 2",
"  	c None",
". 	c #000000",
"+ 	c #030303",
"@ 	c #060606",
"# 	c #050505",
"$ 	c #040404",
"% 	c #EBEBEB",
"& 	c #5D5D5D",
"* 	c #6C6C6C",
"= 	c #ECECEC",
"- 	c #E3E3E3",
"; 	c #1C1C1C",
"> 	c #989898",
", 	c #888888",
"' 	c #6E6E6E",
") 	c #0A0A0A",
"! 	c #DDDDDD",
"~ 	c #A6A6A6",
"{ 	c #212121",
"] 	c #EAEAEA",
"^ 	c #595959",
"/ 	c #6A6A6A",
"( 	c #E7E1DF",
"_ 	c #DED6D1",
": 	c #1B1A1A",
"< 	c #A5A5A5",
"[ 	c #CCCCCC",
"} 	c #070707",
"| 	c #D3D3D3",
"1 	c #151315",
"2 	c #D6D3D6",
"3 	c #FFFFFF",
"4 	c #FBFCFC",
"5 	c #E8BC9E",
"6 	c #F55A00",
"7 	c #F05F00",
"8 	c #E4BCA1",
"9 	c #F3F8FC",
"0 	c #FCFCFC",
"a 	c #FEFEFE",
"b 	c #F6F6F6",
"c 	c #DCDCDC",
"d 	c #CACACA",
"e 	c #CDCDCD",
"f 	c #FBFBFB",
"g 	c #CBCBC9",
"h 	c #D8D8D7",
"i 	c #FEFEFF",
"j 	c #F7F7F7",
"k 	c #FDFDFD",
"l 	c #FBFBFC",
"m 	c #E7B99A",
"n 	c #F25600",
"o 	c #DD7A39",
"p 	c #E7DDD6",
"q 	c #D0D0D0",
"r 	c #C8C8C8",
"s 	c #CACBCC",
"t 	c #A3A298",
"u 	c #BFB483",
"v 	c #EEE8D1",
"w 	c #FBFBFA",
"x 	c #FAFBFC",
"y 	c #E6BA9E",
"z 	c #EB5400",
"A 	c #ECA372",
"B 	c #F8FBFD",
"C 	c #FBFCFE",
"D 	c #D3D1C7",
"E 	c #DDB617",
"F 	c #C4A423",
"G 	c #EFECE1",
"H 	c #FBFDFF",
"I 	c #E5C3AD",
"J 	c #DD5A03",
"K 	c #E8AD85",
"L 	c #F9FFFF",
"M 	c #E6E6E6",
"N 	c #E9E9EA",
"O 	c #CFCECD",
"P 	c #DEBF2D",
"Q 	c #C99E00",
"R 	c #EDE9D1",
"S 	c #E4D5CC",
"T 	c #AE6636",
"U 	c #E2BCA3",
"V 	c #FFFFFE",
"W 	c #E5E5E5",
"X 	c #C8C8C9",
"Y 	c #D9DBE5",
"Z 	c #DBBD39",
"` 	c #B79A21",
" .	c #EDEADF",
"..	c #ECEAE9",
"+.	c #A98C7A",
"@.	c #D3B8A6",
"#.	c #C7C7C7",
"$.	c #F1F3FC",
"%.	c #A5965C",
"&.	c #BDB496",
"*.	c #F8F8F9",
"=.	c #BEBBB8",
"-.	c #B3ACA7",
";.	c #E9E7E7",
">.	c #B6B4B4",
",.	c #92939A",
"'.	c #DFDFE3",
").	c #ADAEAF",
"!.	c #CCCDCE",
"~.	c #7D898D",
"{.	c #DCDBDA",
"].	c #EDEDED",
"^.	c #DADADA",
"/.	c #9B9B9B",
"(.	c #DEDEDE",
"_.	c #FFFEFE",
":.	c #B4CBD2",
"<.	c #389CB5",
"[.	c #6E9CA8",
"}.	c #D2D2D2",
"|.	c #CECECE",
"1.	c #B6B6B6",
"2.	c #E7E7E7",
"3.	c #B2D0D8",
"4.	c #1BB6DE",
"5.	c #00A7D3",
"6.	c #82AFBB",
"7.	c #EEEEEE",
"8.	c #999999",
"9.	c #F2F2F2",
"0.	c #F0F0F0",
"a.	c #E0E0E0",
"b.	c #F9FCFC",
"c.	c #1194B5",
"d.	c #00CEFF",
"e.	c #23BAE1",
"f.	c #C3D0D4",
"g.	c #D4D4D4",
"h.	c #F3F3F3",
"i.	c #FAFCFC",
"j.	c #2E8FA8",
"k.	c #00BDEF",
"l.	c #3AB4D3",
"m.	c #F8F2F1",
"n.	c #C6C6C6",
"o.	c #A8A8A8",
"p.	c #F4F4F4",
"q.	c #DBE7EB",
"r.	c #6894A0",
"s.	c #6C8288",
"t.	c #A3A1A0",
"u.	c #939393",
"v.	c #949494",
"w.	c #8F8F8F",
"x.	c #E2E2E2",
"y.	c #BEBEBE",
"z.	c #BABABA",
"A.	c #F1F1F1",
"B.	c #CBCACA",
"C.	c #9A9898",
"D.	c #F3F2F1",
"E.	c #E9E9E9",
"F.	c #E8E8E8",
"G.	c #F9F9F9",
"H.	c #181818",
"I.	c #2D2D2D",
"J.	c #2C2C2C",
"K.	c #ACACAC",
"L.	c #1F1F1F",
"M.	c #AAAAAA",
"N.	c #ADADAD",
"O.	c #242424",
"P.	c #3C3C3C",
"Q.	c #9D9D9D",
"R.	c #8B8B8B",
"S.	c #AFAFAF",
"T.	c #AEAEAE",
"U.	c #5A5A5A",
"V.	c #474747",
"W.	c #909090",
"X.	c #7D7D7D",
"Y.	c #3A3A3A",
"Z.	c #B4B4B4",
"`.	c #101010",
" +	c #F8F8F8",
".+	c #0C0C0C",
"++	c #080808",
"@+	c #0D0D0D",
"#+	c #010101",
". + @ + . . @ # . . . # $ . . . # $ . . $ @ ",
"% & . * = - ; . > , ' . ) ! % ~ . { - ] ^ . ",
"% & . / ( _ : . < = [ . } | % ~ . 1 2 ] ^ . ",
". . . . . . . . . . . . . . . . . . . . . . ",
"3 3 4 5 6 7 8 9 0 a 3 b c d e f g h 3 i j k ",
"3 3 l m n o p 3 3 3 a b q r > s t u v w a a ",
"3 3 x y z A B 3 3 3 a 3 3 3 = C D E F G i a ",
"3 3 H I J K L 3 3 a 3 a 3 0 M N O P Q R 3 3 ",
"3 3 3 S T U 3 V 3 3 3 3 a 3 W X Y Z `  .3 i ",
"3 a 3 ..+.@.3 i a 3 3 3 a 3 - #.$.%.&.*.3 3 ",
"3 3 V 3 =.-.3 a 3 a 3 a a 3 ;.>.e ,.'.3 3 3 ",
"3 3 a 3 s ).0 3 a 3 a 3 3 3 !.~.{.c ].3 a a ",
"3 a 3 3 ^./.(.3 a 3 3 a _.:.<.[.3 a }.! 3 3 ",
"3 3 a 3 ] |.1.2.3 a 3 k 3.4.5.6.3 3 7.#.8.0 ",
"3 3 3 3 9.0.e a.k 3 3 b.c.d.e.f.3 a 3 0.|.k ",
"3 3 3 3 a g.a.}.h.a a i.j.k.l.m.3 3 3 3 3 3 ",
"3 3 a 3 3 % n.o.p.3 3 i q.r.s.t.u.v.w.x.a 3 ",
"3 a 3 3 a 3 M y.z.b f A.B.C.D.].E.E.F.G.p.f ",
". . . . . . . . . . . . . . . H.I.I.I.I.J.J.",
"K.L.. { M.N.O.. P.M.Q.. . R.S., . # < T.U.. ",
"a S.. V.W.X.Y.. Z.a 3 `.@ a 3  +. .+3 3 | . ",
".+. # . ++++. # . @++ @ @ . @+. @ # #+.+. @ "};
