/* XPM */
static const char * activity_xpm[] = {
/* width height num_colors chars_per_pixel */
"22 22 3 1",
/* colors */
" 	c none",
".	c black",
"X	c white",
/* pixels */
"                      ",
"                      ",
"                      ",
"                      ",
"                      ",
"     ............     ",
"   ..XXXXXXXXXXXX..   ",
"   .XXXXXXXXXXXXXX.   ",
"  .XXXXXXXXXXXXXXXX.  ",
"  .XXXXXXXXXXXXXXXX.  ",
"  .XXXXXXXXXXXXXXXX.  ",
"  .XXXXXXXXXXXXXXXX.  ",
"  .XXXXXXXXXXXXXXXX.  ",
"   .XXXXXXXXXXXXXX.   ",
"   ..XXXXXXXXXXXX..   ",
"     ............     ",
"                      ",
"                      ",
"                      ",
"                      ",
"                      ",
"                      "};
