/* XPM */
static const char * actor_xpm[] = {
"22 22 2 1",
" 	c none",
".	c black",
"                      ",
"         ...          ",
"        .   .         ",
"       .     .        ",
"       .     .        ",
"       .     .        ",
"        .   .         ",
"         ...          ",
"          .           ",
"     ...........      ",
"     ...........      ",
"         ...          ",
"         ...          ",
"         ...          ",
"         ...          ",
"        .....         ",
"       ..   ..        ",
"      ..     ..       ",
"     ..       ..      ",
"    ..         ..     ",
"   ..           ..    ",
"                      "};
