/* XPM */
static const char * branch_xpm[] = {
"22 22 4 1",
" 	c None",
".	c #000000",
"+	c #FEFEFE",
"@	c #FFFFFF",
"                      ",
"                      ",
"                      ",
"          ..          ",
"         .++.         ",
"        .@@@@.        ",
"       .@@@@@@.       ",
"      .@@@@@@@@.      ",
"     .@@@@@@@@@@.     ",
"    .@@@@@@@@@@@@.    ",
"   .@@@@@@@@@@@@@@.   ",
"   .@@@@@@@@@@@@@+.   ",
"    .@@@@@@@@@@@@.    ",
"     .@@@@@@@@@@.     ",
"      .@@@@@@@@.      ",
"       .@@@@@@.       ",
"        .@@@@.        ",
"         .@@.         ",
"          ..          ",
"                      ",
"                      ",
"                      "};
