/* XPM */
static const char * case_xpm[] = {
"22 22 2 1",
" 	c none",
".	c black",
"                      ",
"                      ",
"                      ",
"                      ",
"                      ",
"        .......       ",
"       .       .      ",
"     ..         ..    ",
"     .  .  .  .  .    ",
"    .  .. .  ..   .   ",
"    .  . .. .. .  .   ",
"    .  .. . . .   .   ",
"     .           .    ",
"     ..         ..    ",
"       .       .      ",
"        .......       ",
"                      ",
"                      ",
"                      ",
"                      ",
"                      ",
"                      "};
