/* XPM */
static const char * classicon_xpm[] = {
"22 22 3 1",
" 	c none",
".	c black",
"X	c white",
"                      ",
"                      ",
"                      ",
"                      ",
"           .....      ",
"   .      .XXXXX.     ",
"   .     .XXXXXXX.    ",
"   .    .XXXXXXXXX.   ",
"   .   .XXXXXXXXXXX.  ",
"   .   .XXXXXXXXXXX.  ",
"   .....XXXXXXXXXXX.  ",
"   .   .XXXXXXXXXXX.  ",
"   .   .XXXXXXXXXXX.  ",
"   .    .XXXXXXXXX.   ",
"   .     .XXXXXXX.    ",
"   .      .XXXXX.     ",
"           .....      ",
"                      ",
"                      ",
"                      ",
"                      ",
"                      "};
