/* XPM */
static const char * component_xpm[] = {
"22 22 3 1",
" 	c None",
".	c black",
"X	c white",
"                      ",
"                      ",
"      .............   ",
"      .XXXXXXXXXXX.   ",
"      .XXXXXXXXXXX.   ",
"      .XXXXXXXXXXX.   ",
"  .........XXXXXXX.   ",
"  .XXXXXXX.XXXXXXX.   ",
"  .XXXXXXX.XXXXXXX.   ",
"  .........XXXXXXX.   ",
"      .XXXXXXXXXXX.   ",
"      .XXXXXXXXXXX.   ",
"  .........XXXXXXX.   ",
"  .XXXXXXX.XXXXXXX.   ",
"  .XXXXXXX.XXXXXXX.   ",
"  .........XXXXXXX.   ",
"      .XXXXXXXXXXX.   ",
"      .XXXXXXXXXXX.   ",
"      .............   ",
"                      ",
"                      ",
"                      "};
