/* XPM */
static const char * fork_xpm[] = {
"22 22 2 1",
" 	c None",
".	c black",
"                      ",
"                      ",
"                      ",
"                      ",
"                      ",
"                      ",
"                      ",
"                      ",
"                      ",
"   ................   ",
"   ................   ",
"   ................   ",
"   ................   ",
"                      ",
"                      ",
"                      ",
"                      ",
"                      ",
"                      ",
"                      ",
"                      ",
"                      "};
