/* XPM */
static const char * message_xpm[] = {
"22 22 3 1",
" 	c None",
".	c white",
"X	c black",
"                      ",
"                      ",
"                      ",
"                      ",
"                      ",
"   X X X X X X        ",
"    X   X   X         ",
"   X X X X X X        ",
"                 X    ",
"                 XX   ",
" XXXXXXXXXXXXXXXXXXX  ",
" XXXXXXXXXXXXXXXXXXX  ",
"                 XX   ",
"                 X    ",
"                      ",
"                      ",
"                      ",
"                      ",
"                      ",
"                      ",
"                      ",
"                      "};
