/* XPM */
static const char * object_xpm[] = {
"22 22 2 1",
" 	c None",
".	c black",
"                      ",
"                      ",
"                      ",
"                      ",
" .................... ",
" .                  . ",
" .                  . ",
" .                  . ",
" .  .... ...     .  . ",
" .  .  . . .     .  . ",
" .  .  . .... .  .  . ",
" .  .  . .  . .  .  . ",
" .  .... .... ....  . ",
" .                  . ",
" .  ..............  . ",
" .                  . ",
" .                  . ",
" .                  . ",
" .................... ",
"                      ",
"                      ",
"                      "};
