/* XPM */
static const char * state_xpm[] = {
/* width height num_colors chars_per_pixel */
"22 22 3 1",
/* colors */
" 	c none",
".	c black",
"X	c white",
/* pixels */
"                      ",
"                      ",
"                      ",
"                      ",
"                      ",
"     ............     ",
"    .XXXXXXXXXXXX.    ",
"   .XXXXXXXXXXXXXX.   ",
"   .XXXXXXXXXXXXXX.   ",
"   .XXXXXXXXXXXXXX.   ",
"   .XXXXXXXXXXXXXX.   ",
"   .XXXXXXXXXXXXXX.   ",
"   .XXXXXXXXXXXXXX.   ",
"   .XXXXXXXXXXXXXX.   ",
"    .XXXXXXXXXXXX.    ",
"     ............     ",
"                      ",
"                      ",
"                      ",
"                      ",
"                      ",
"                      "};
