/* XPM */
static const char * state_term_xpm[] = {
"22 22 3 1",
" 	c none",
".	c black",
"X	c white",
"                      ",
"                      ",
"                      ",
"        .......       ",
"       .XXXXXXX.      ",
"      .XXXXXXXXX.     ",
"     .XXXX...XXXX.    ",
"    .XXXX.....XXXX.   ",
"    .XXX.......XXX.   ",
"    .XX.........XX.   ",
"    .XX.........XX.   ",
"    .XX.........XX.   ",
"    .XXX.......XXX.   ",
"    .XXXX.....XXXX.   ",
"     .XXXX...XXXX.    ",
"      .XXXXXXXXX.     ",
"       .XXXXXXX.      ",
"        .......       ",
"                      ",
"                      ",
"                      ",
"                      "};
