/* XPM */
static const char * chronoline_xpm[] = {
"22 22 4 1",
" 	c None",
".	c #FF0000",
"+	c #FF8080",
"@	c #000000",
"                      ",
"                      ",
"                      ",
"                      ",
"                      ",
"                      ",
"                      ",
"                      ",
" ....    ....   ....  ",
" .++.    .++.   .++.  ",
" .++.    .++.   .++.  ",
" .++.    .++.   .++.  ",
" .++.    .++.   .++.  ",
" @@@@@@@@@@@@@@@@@@@@ ",
"                      ",
"                      ",
"                      ",
"                      ",
"                      ",
"                      ",
"                      ",
"                      "};
