/* XPM */
static char * rsm_xpm[] = {
"22 22 4 1",
" 	c None",
".	c #000000",
"+	c #4D4D4D",
"@	c #FFFFFF",
"  ................... ",
"  .+++++++++++++++++. ",
"  .+@@@@@@@@@@@@@@@+. ",
"  .+@@@@@@...@@@@@@+. ",
"  .+@@@@.@@.@@.@@@@+. ",
"  .+@@.@@@@.@@@@.@@+. ",
"  .+@.@@@+@.@@@@@.@+. ",
"  .+@.............@+. ",
"  .+@.@@@+@.@@@@@.@+. ",
"  .+@@.@@@@.@@@@.@@+. ",
"  .+@@@@.@@.@@.@@@@+. ",
"  .+@@@@@@...@@@@@@+. ",
"  .+@@@@@@@@@@@@@@@+. ",
"  .+++++++++++++++++. ",
"  ................... ",
"   .++++++++.@@+++.   ",
"    .+++++++.@@++.    ",
"    ..............    ",
"        .++++.        ",
"      ...++++...      ",
"      .++++++++.      ",
"      ..........      "};
