/* XPM */
static char * ltm_xpm[] = {
"22 22 5 1",
" 	c None",
".	c #000000",
"+	c #FFFFFF",
"-	c #8D8D8D",
"@	c #4D4D4D",
"                      ",
"                      ",
"        ......        ",
"      ..++++++..      ",
"     .++++++++++.     ",
"    .++++++++++++.    ",
"   .+++-++++++++++.   ",
"   .++---+++++++++.   ",
"  .++-----+++++++++.  ",
"  .+@------++++++++.  ",
"  .++----++++++++++.  ",
"  .+++---+++@@@@+++.  ",
"  .+++---+++@@@@+++.  ",
"  .++++---++@@@++++.  ",
"   .++++--+@@@++++.   ",
"   .+++++--@++++++.   ",
"    .++++++++++++.    ",
"     .++++++++++.     ",
"      ..++++++..      ",
"        ......        ",
"                      ",
"                      "};
