/* XPM */
static char *iconforge_xpm[] = {
/* width height ncolors chars_per_pixel */
"22 22 2 1",
/* colors */
"` c black",
"a c none",
/* pixels */
"aaaaaaaaaaaaaaaaaaaaaa",
"aaaaaaaaaaaaaaaaaaaaaa",
"aaa``aaaaaaaaaaaaaaaaa",
"aa````aaaaaaaaaaaaaaaa",
"a``````aaaaaaaaaaaaaaa",
"aaa``aaaaaaaaaaaaaaaaa",
"aaa``aaaaaaaaaaaaaaaaa",
"aaa``aaaaaaaaaaaaaaaaa",
"aaa``aaaaaaaaaaaaaaaaa",
"aaa``aaaaaaaaaaaaaaaaa",
"aaa``aa`a`aaaaaaaaaaaa",
"aaa``a`````aaaaaaaaaaa",
"aaa``a`a`a`aaaaaaaaaaa",
"aaa``a`a`a`aa``aa```aa",
"aaa``a`a`a`a`aa`a`aa`a",
"aaa``a`a`a`a`aa`a`aa`a",
"aaa``a`aaa`a`aa`a`aa`a",
"aaa``a`aaa`aa``aa`aa`a",
"aaaaaaaaaaaaaaaaaaaaaa",
"aaaaaaaaaaaaaaaaaaaaaa",
"aaaaaaaaaaaaaaaaaaaaaa",
"aaaaaaaaaaaaaaaaaaaaaa"
};

