/* XPM */
static char *iconforge_xpm[] = {
/* width height ncolors chars_per_pixel */
"22 22 3 1",
/* colors */
"` c black",
"a c none",
"b c white",
/* pixels */
"aaaaaaaaaaaaaaaaaaaaaa",
"aaaaaaaaaaaaaaaaaaaaaa",
"aaaaaaaaaaaaaaaaaaaaaa",
"aaaaaaaaaaaaaaaaaaaaaa",
"aa```````````````aaaaa",
"aa`bbbbbbbbbbbbb`aaaaa",
"aa`bbbbbbbbbbbbb`aaaaa",
"aaa`bbbbbbbbbbbbb`aaaa",
"aaa`bbbbbbbbbbbbb`aaaa",
"aaa`bbbbbbbbbbbbb`aaaa",
"aaa`bbbbbbbbbbbbb`aaaa",
"aaaa`bbbbbbbbbbbbb`aaa",
"aaaa`bbbbbbbbbbbbb`aaa",
"aaaa`bbbbbbbbbbbbb`aaa",
"aaaa`bbbbbbbbbbbbb`aaa",
"aaaaa`bbbbbbbbbbbbb`aa",
"aaaaa`bbbbbbbbbbbbb`aa",
"aaaaa```````````````aa",
"aaaaaaaaaaaaaaaaaaaaaa",
"aaaaaaaaaaaaaaaaaaaaaa",
"aaaaaaaaaaaaaaaaaaaaaa",
"aaaaaaaaaaaaaaaaaaaaaa"
};

