/* XPM */
static char *iconforge_xpm[] = {
/* width height ncolors chars_per_pixel */
"22 22 3 1",
/* colors */
"` c black",
"a c none",
"b c white",
/* pixels */
"aaaaaaaaaaaaaaaaaaaaaa",
"aaaaaaaaaaaaaaaaaaaaaa",
"aaaaaaaaaaa`aaaaaaaaaa",
"aaaaaaaaaaa`aaaaaaaaaa",
"aaaaaaaaa`````aaaaaaaa",
"aaaaaaa``bbbbb``aaaaaa",
"aaaaaa`bbbbbbbbb`aaaaa",
"aaaaa`bbbbbbbbbbb`aaaa",
"aaaaa`bbbbbbbbbbb`aaaa",
"aaaa`bbbbbbbbbbbbb`aaa",
"aaaa`bbbbbbbbbbbbb`aaa",
"aaaa`bbbbbbbbbbbbb`aaa",
"aaaa`bbbbbbbbbbbbb`aaa",
"aaaa`bbbb`````bbbb`aaa",
"aaaa`bb``aa`aa``bb`aaa",
"aaaa`b``aaa`aaa``b`aaa",
"aaaa``a`aaa`aaa`a``aaa",
"aaaa`aa`aaa`aaa`aa`aaa",
"aaaaaaa`aaa`aaa`aaaaaa",
"aaaaaaa`aaa`aaa`aaaaaa",
"aaaaaaaaaaaaaaaaaaaaaa",
"aaaaaaaaaaaaaaaaaaaaaa"
};

