/* XPM */
static char *iconforge_xpm[] = {
/* width height ncolors chars_per_pixel */
"22 22 2 1",
/* colors */
"` c black",
"a c none",
/* pixels */
"aaaaaaaaaaaaaaaaaaaaaa",
"aaaaaaaaaaaaaaaaaaaaaa",
"aaa``aaaaaaaaaaaaaaaaa",
"aa````aaaaaaaaaaaaaaaa",
"a``````aaaaaaaaaaaaaaa",
"aaa``aaaaaaaaaaaaaaaaa",
"aaa``aaaaaaaaaaaaaaaaa",
"aaa``aaaaaaaaaaaaaaaaa",
"aaa``aaaaaaaaaaaaaaaaa",
"aaa``aaaaaaaaaaaaaaaaa",
"aaa``aaa```aaaaaaaaaaa",
"aaa``aa`aaa`aaaaaa`aaa",
"aaa``aa`aaa`aaaaaa``aa",
"aaa``aa`aaa`a`aa`a`aaa",
"aaa``aa`aaa`a`aa`a`aaa",
"aaa``aa`aaa`a`aa`a`aaa",
"aaa``aa`aaa`a`aa`a`aaa",
"aaa``aaa```aa````a``aa",
"aaaaaaaaaaaaaaaaaaaaaa",
"aaaaaaaaaaaaaaaaaaaaaa",
"aaaaaaaaaaaaaaaaaaaaaa",
"aaaaaaaaaaaaaaaaaaaaaa"
};

