/* XPM */
static char *iconforge_xpm[] = {
/* width height ncolors chars_per_pixel */
"22 22 3 1",
/* colors */
"` c black",
"a c none",
"b c white",
/* pixels */
"aaaaaaaaaaaaaaaaaaaaaa",
"aaaaaaaaaaaaaaaaaaaaaa",
"aaaaaaaaaaaaaaaaaaaaaa",
"aaaaaaaaaaaaaaaaaaaaaa",
"aaaaa```````````````aa",
"aaaaa```````````````aa",
"aaaaa``bbbbbbbbbbb``aa",
"aaaa``bbbbbbbbbbbb`aaa",
"aaaa``bbbbbbbbbbb``aaa",
"aaaa``bbbbbbbbbbb``aaa",
"aaaa`bbbbbbbbbbbb``aaa",
"aaa``bbbbbbbbbbb``aaaa",
"aaa``bbbbbbbbbbb``aaaa",
"aaa``bbbbbbbbbbb``aaaa",
"aaa`bbbbbbbbbbbb``aaaa",
"aa``bbbbbbbbbbb``aaaaa",
"aa```````````````aaaaa",
"aa```````````````aaaaa",
"aaaaaaaaaaaaaaaaaaaaaa",
"aaaaaaaaaaaaaaaaaaaaaa",
"aaaaaaaaaaaaaaaaaaaaaa",
"aaaaaaaaaaaaaaaaaaaaaa"
};

