/* XPM */
static char *iconforge_xpm[] = {
/* width height ncolors chars_per_pixel */
"22 22 2 1",
/* colors */
"` c black",
"a c none",
/* pixels */
"aaaaaaaaaaaaaaaaaaaaaa",
"aaaaaaaaaaaaaaaaaaaaaa",
"aaa``aaaaaaaaaaaaaaaaa",
"aa````aaaaaaaaaaaaaaaa",
"a``````aaaaaaaaaaaaaaa",
"aaa``aaaaaaaaaaaaaaaaa",
"aaa``aaaaaaaaaaaaaaaaa",
"aaa``aaaaaaaaaaaaaaaaa",
"aaa``aaaaaaaaaaaaaaaaa",
"aaa``aaaaaaaaaaaaaaaaa",
"aaa``a````aaaaaaaaaaaa",
"aaa``a`aa`aaaaaaaaaaaa",
"aaa``a`aa`aaaaaaaaaaaa",
"aaa``a````a```a```a```",
"aaa``a`a`aa`a`a`aaa`a`",
"aaa``a`aa`a```a```a`a`",
"aaa``a`aa`a`aaaaa`a`a`",
"aaa``a`aa`a```a```a```",
"aaaaaaaaaaaaaaaaaaa`aa",
"aaaaaaaaaaaaaaaaaaa`aa",
"aaaaaaaaaaaaaaaaaaaaaa",
"aaaaaaaaaaaaaaaaaaaaaa"
};

