/* XPM */
static char *iconforge_xpm[] = {
/* width height ncolors chars_per_pixel */
"22 22 3 1",
/* colors */
"` c black",
"a c none",
"b c white",
/* pixels */
"aaaaaaaaaaaaaaaaaaaaaa",
"aaaaaaaaaaaaaaaaaaaaaa",
"aaaaaa`````aaaaaaaaaaa",
"aaaaa``bbbb``a````aaaa",
"aaaa``bbbbbb```bb``aaa",
"aaaa`bbbbbbbb`bbbbb`aa",
"aaaa``bbbbbbb`bbbbb`aa",
"aaa``bbbbbbbbbbbbbb`aa",
"aa`bbbbbbbbbbbbbbbb`aa",
"a``bbbbbbbbbbbbbbbb``a",
"a`bbbbbbbbbbbbbbbbbb`a",
"a`bbbbbbbbbbbbbbbbbb`a",
"a``bbbbbbbbbbbbbbbbb`a",
"aa``bbbbbbbbbbbbbbb``a",
"aaa`bbbbbbbbbb``````aa",
"aaa`bbb`bbbbbb`aaaaaaa",
"aaa``b```bbbb``aaaaaaa",
"aaaa```a``````aaaaaaaa",
"aaaaaaaaaaaaaaaaaaaaaa",
"aaaaaaaaaaaaaaaaaaaaaa",
"aaaaaaaaaaaaaaaaaaaaaa",
"aaaaaaaaaaaaaaaaaaaaaa"
};

