/* XPM */
static char * sissi_object_xpm[] = {
"43 30 3 1",
" 	c None",
".	c #000000",
"+	c #FFFFFF",
"                                       .   ",
"             .+++++++.................     ",
"........++.+..+++....................+.    ",
".+++++++++.+.++++++++++++++++++++++++..    ",
"++++++++++.+.+......................+..    ",
".+++++++++.+.+.++++++++++++++++++++.+..    ",
"++++++++++.+.+.+..................+.+..    ",
"........++.+.+.+..................+.+..    ",
"........++.+.+.+..................+.+..    ",
"........++.+.+.+..................+.+..    ",
"........++.+.+.+..................+.+..    ",
"........++.+.+.+..................+.+..    ",
"........++.+.+.+..................+.+..    ",
"........++.+.+.+..................+.+..    ",
"........++.+.+.+..................+.+..    ",
"........++.+.+.+..................+.+..    ",
"........++.+.+.+..................+.+.     ",
"........++.+.+.+..................+.+.     ",
"........++.+.+.++++++++++++++++++++.       ",
"........++.+.+......................       ",
"........++.+.                              ",
"........++.+..++++................         ",
"........++++..++++++++++++++++++++......   ",
"........++.+.++++++..............+++++++...",
"........++++++++++++++++++++++++++++++.+++.",
"........+++++........................+++.. ",
"           .........................+.+.   ",
"                                    .++.   ",
"         ..........................        ",
"         ..........................++...   "};
