/* XPM */
static char * dia3_xpm[] = {
"64 64 202 2",
"  	c None",
". 	c #FFFFFF",
"+ 	c #A5A5A5",
"@ 	c #D8D8D8",
"# 	c #D9D9D9",
"$ 	c #DADADA",
"% 	c #DBDBDB",
"& 	c #DCDCDC",
"* 	c #DDDDDD",
"= 	c #DEDEDE",
"- 	c #DFDFDF",
"; 	c #E0E0E0",
"> 	c #E1E1E1",
", 	c #E2E2E2",
"' 	c #E3E3E3",
") 	c #E5E5E5",
"! 	c #E6E6E6",
"~ 	c #E7E7E7",
"{ 	c #E8E8E8",
"] 	c #E9E9E9",
"^ 	c #EAEAEA",
"/ 	c #EBEBEB",
"( 	c #ECECEC",
"_ 	c #EDEDED",
": 	c #EEEEEE",
"< 	c #EFEFEF",
"[ 	c #F0F0F0",
"} 	c #F1F1F1",
"| 	c #F2F2F2",
"1 	c #F3F3F3",
"2 	c #F4F4F4",
"3 	c #F5F5F5",
"4 	c #F6F6F6",
"5 	c #F7F7F7",
"6 	c #F8F8F8",
"7 	c #F9F9F9",
"8 	c #FAFAFA",
"9 	c #FBFBFB",
"0 	c #FCFCFC",
"a 	c #FDFDFD",
"b 	c #FEFEFE",
"c 	c #000000",
"d 	c #D7D7D7",
"e 	c #E4E4E4",
"f 	c #D6D6D6",
"g 	c #D1D1D1",
"h 	c #D5D5D5",
"i 	c #00FF00",
"j 	c #BFBFBF",
"k 	c #C9C9C9",
"l 	c #D2D2D2",
"m 	c #D4D4D4",
"n 	c #D3D3D3",
"o 	c #ABABAB",
"p 	c #B9B9B9",
"q 	c #C8C8C8",
"r 	c #9A9A9A",
"s 	c #CACACA",
"t 	c #CFCFCF",
"u 	c #909090",
"v 	c #9D9D9D",
"w 	c #B3B3B3",
"x 	c #8A8A8A",
"y 	c #B1B1B1",
"z 	c #B6B6B6",
"A 	c #CBCBCB",
"B 	c #CECECE",
"C 	c #7E7E7E",
"D 	c #8E8E8E",
"E 	c #CDCDCD",
"F 	c #7F7F7F",
"G 	c #939393",
"H 	c #A3A3A3",
"I 	c #BCBCBC",
"J 	c #D0D0D0",
"K 	c #CCCCCC",
"L 	c #7A7A7A",
"M 	c #8C8C8C",
"N 	c #999999",
"O 	c #C4C4C4",
"P 	c #B5B5B5",
"Q 	c #A2A2A2",
"R 	c #929292",
"S 	c #878787",
"T 	c #838383",
"U 	c #858585",
"V 	c #8B8B8B",
"W 	c #9C9C9C",
"X 	c #B0B0B0",
"Y 	c #C5C5C5",
"Z 	c #C7C7C7",
"` 	c #BBBBBB",
" .	c #ACACAC",
"..	c #919191",
"+.	c #8F8F8F",
"@.	c #A0A0A0",
"#.	c #AFAFAF",
"$.	c #C2C2C2",
"%.	c #C1C1C1",
"&.	c #989898",
"*.	c #A8A8A8",
"=.	c #B8B8B8",
"-.	c #C3C3C3",
";.	c #C6C6C6",
">.	c #9E9E9E",
",.	c #BDBDBD",
"'.	c #C0C0C0",
").	c #373737",
"!.	c #434343",
"~.	c #585858",
"{.	c #060606",
"].	c #0E0E0E",
"^.	c #1D1D1D",
"/.	c #383838",
"(.	c #5C5C5C",
"_.	c #B4B4B4",
":.	c #9B9B9B",
"<.	c #A1A1A1",
"[.	c #A6A6A6",
"}.	c #A7A7A7",
"|.	c #B2B2B2",
"1.	c #565656",
"2.	c #010101",
"3.	c #020202",
"4.	c #262626",
"5.	c #666666",
"6.	c #A4A4A4",
"7.	c #AEAEAE",
"8.	c #FF6600",
"9.	c #535353",
"0.	c #1C1C1C",
"a.	c #040404",
"b.	c #0C0C0C",
"c.	c #3D3D3D",
"d.	c #848484",
"e.	c #AAAAAA",
"f.	c #949494",
"g.	c #B7B7B7",
"h.	c #BABABA",
"i.	c #BEBEBE",
"j.	c #676767",
"k.	c #2E2E2E",
"l.	c #080808",
"m.	c #050505",
"n.	c #202020",
"o.	c #525252",
"p.	c #898989",
"q.	c #323232",
"r.	c #131313",
"s.	c #505050",
"t.	c #6A6A6A",
"u.	c #282828",
"v.	c #141414",
"w.	c #ADADAD",
"x.	c #4F4F4F",
"y.	c #606060",
"z.	c #363636",
"A.	c #9F9F9F",
"B.	c #222222",
"C.	c #A9A9A9",
"D.	c #313131",
"E.	c #5A5A5A",
"F.	c #404040",
"G.	c #090909",
"H.	c #4A4A4A",
"I.	c #414141",
"J.	c #3E3E3E",
"K.	c #8D8D8D",
"L.	c #0A0A0A",
"M.	c #4B4B4B",
"N.	c #969696",
"O.	c #888888",
"P.	c #979797",
"Q.	c #242424",
"R.	c #636363",
"S.	c #212121",
"T.	c #7B7B7B",
"U.	c #191919",
"V.	c #3C3C3C",
"W.	c #7D7D7D",
"X.	c #959595",
"Y.	c #616161",
"Z.	c #393939",
"`.	c #181818",
" +	c #595959",
".+	c #161616",
"++	c #151515",
"@+	c #808080",
"#+	c #1B1B1B",
"$+	c #545454",
"%+	c #818181",
"&+	c #444444",
"*+	c #101010",
"=+	c #2C2C2C",
"-+	c #828282",
";+	c #252525",
">+	c #121212",
",+	c #868686",
"'+	c #424242",
")+	c #5B5B5B",
"!+	c #7C7C7C",
"~+	c #787878",
"                                                                                                                                ",
"                                                                                                                                ",
"      . . . . . . . . . . . . . . . . . . . . . . . . . . . . . . . . . . . . . . . . . . . . . . . . . . . . . . . + +         ",
"      . . . . . . . . . . . . . . . . . . . . . . . . . . . . . . . . . . . . . . . . . . . . . . . . . . . . . . . + +         ",
"      . . @ @ # $ % % & * = * * = - - ; > , ' ) ! ~ ~ { ] ^ ^ / ( _ _ : < [ [ } | 1 1 2 3 4 4 5 6 7 7 8 9 0 0 a b b c c         ",
"      . . d d @ # $ $ % % $ @ d @ @ @ # $ & = > e ! ! ~ { ] ] ^ / ( ( _ : < < [ } | | 1 2 3 3 4 5 6 6 7 8 9 9 0 a b c c         ",
"      . . f d d @ # $ # c c c c c c c c c g f $ ; e ! ! ~ { ] ] ^ / ( ( _ : < < [ } | | 1 2 3 3 4 5 6 6 7 8 9 9 0 a c c         ",
"      . . h f d d @ @ d c i i i i i i i c j k l $ > e ! ! ~ { ] ] ^ / ( ( _ : < < [ } | | 1 2 3 3 4 5 6 6 7 8 9 9 0 c c         ",
"      . . m h f d d d n c i i i i i i i c o p q f * ' ) ! ! ~ { ] ] ^ / ( ( _ : < < [ } | | 1 2 3 3 4 5 6 6 7 8 9 9 c c         ",
"      . . m m h f d h l c i i i i i i i c r o j s m # e ) ! ! ~ { ] ] ^ / ( ( _ : < < [ } | | 1 2 3 3 4 5 6 6 7 8 9 c c         ",
"      . . n m m h f h t c i i i i i i i c u v w j n # ' e ) ! ! ~ { ] ] ^ / ( ( _ : < < [ } | | 1 2 3 3 4 5 6 6 7 8 c c         ",
"      . . l n m m h m t c i i i i i i i c x r y z A g ' ' e ) ! ! ~ { ] ] ^ / ( ( _ : < < [ } | | 1 2 3 3 4 5 6 6 7 c c         ",
"      . . g l n m m n B c i i i i i i i c C D v z s @ , ' ' e ) ! ! ~ { ] ] ^ / ( ( _ : < < [ } | | 1 2 3 3 4 5 6 6 c c         ",
"      . . g g l n m l E c i i i i i i i c F G H I s d > , ' ' e ) ! ! ~ { ] ] ^ / ( ( _ : < < [ } | | 1 2 3 3 4 5 6 c c         ",
"      . . J g g l n l K c c c c c c c c c L M N I k d ; > , ' ' e ) ! ! ~ { ] ] ^ / ( ( _ : < < [ } | | 1 2 3 3 4 5 c c         ",
"      . . t J g g l g B O P Q R S T T U V M W X Y J f ; ; > , ' ' e ) ! ! ~ { ] ] ^ / ( ( _ : < < [ } | | 1 2 3 3 4 c c         ",
"      . . B t J g g J B Z `  .c c ..V U V +.@.#.$.J h @ @ @ l n m % & * d d @ @ > l $ % ( ( _ : < < [ } | | 1 2 3 3 c c         ",
"      . . B B t J J B E k %.z c c v &.R r *.=.%.-.k K Z t J J g g l l n m h h f d g g l % e e _ : < < [ } | | 1 2 3 c c         ",
"      . . E B E K A A q ;.-.I c c H >.N Q X ,.-.'.O Z '.q k s s A K K K E B t J g A E B @ # % & _ : < < [ } | | 1 2 c c         ",
"      . . K K c c c c c c c c c c c c c c c c c c c c c c c c c c c c c c c ).!.~.E s B g m d # ' _ : < < [ } | | 1 c c         ",
"      . . A k c c c c c c c c c c c c c c c c c c c c c c c c c c c c c c c c {.].^./.(.s k t n = > e ! : < [ } } | c c         ",
"      . . k Z O ,._. .H :.r v c c u ..G :.<.+ [.<.}.*.#.X X #.#.X X |._._._._.1.^.2.2.3.4.5.;.B J n @ ' _ : < [ } } c c         ",
"      . . k ;.-.I _. .Q r r v c c V V D r <.6.[.@.}.}.7.#.#.8. . .7.#.|._._.w |.#.9.0.a.c b.c.d.'.k g * ^ _ : < [ } c c         ",
"      . . k Z O j p _.e.6.Q [.c c u ..f.<.e.7.X e.y |.=.g.z 8.X #.|.z h.I i.i.` g.y j.k.l.c m.n.o.j O h % ] _ : < [ c c         ",
"      . . q q ;.-.'.i.,.I ` =.c c &.f.:. .I %.-.O Y ;.;.O 8.8.8.|.z ,.Y s A K s Y i._.p.q.m.c c r.s.p q n ' ] _ : < c c         ",
"      . . Z q q Z ;.Y Y Y O '.c c H v }.P O s E B B t t E 8.8.8.X P j s l h d f n K $.g.t.u.c c c v.o.g.;.$ ' ^ _ : c c         ",
"      . . Z Z q k k q k s q O c c + r 6.w k B g n m n g 8.8.8.8.8.w.p q n # % & $ d J ;.p x.].c c 2.n.y.z Z m e ^ : c c         ",
"      . . ;.Z Z q k s s s k Y c c + @.o =.s J l m h m J 8.8.#.8.8.6.y $.J @ * = = * # l Z =.z.3.c c c z.6.=.s = ~ ( c c         ",
"      . . Y ;.Z Z q k s s k O c c 6.A.o =.k J n n m l 8.8.8.}.8.8.8.e.h.k m % = - - * $ l Z y.b.c c c r.o.H g.t > ] c c         ",
"      . . O Y ;.Z Z q k s q -.c c >.>.e.i.q t l n l t 8.8.#.Q :.8.8.6.|.$.t d & = = = & @ t y B.c c c c z.:.y Y * ) c c         ",
"      . . O O Y ;.Z Z q k q $.c c >.>.C.,.q E J g J 8.8.8.*.@.v 8.8.8.o h.k n # & * & & $ h j D.c c c c 0.E.+ ` h > c c         ",
"      . . -.O O Y ;.Z Z q Z $.c c v v [.` ;.A E E A 8.8.w.H <.H [.8.8.[.|.%.B m c d d d @ h K F.c c c c G.H.<.g.E * c c         ",
"      . . $.-.O O Y ;.Z Z ;.%.c c <.@.e.z '.;.Z Z 8.8.8.6.>.<.}. .8.8.8.C.z -.K c c c t J g K I.c c c c c J.G C.;.@ c c         ",
"      . . %.$.-.O O Y ;.Z Y '.c c c c c c c c c c c c c c c c c c c c c c c c c c j j c c q q I.c c c c c J.K.Q %.m c c         ",
"      . . %.%.$.-.O O Y ;.Y j c c c c c c c c c c c c c c c c c c c c c c c c c c X X c c j %.I.c c c c c J.p.A.i.n c c         ",
"      . . '.%.%.$.-.O O Y O j c c &.R G N A.Q @.8.8.G K.K.u N >.Q @.:.8.8.G N >.c c c o |.=.I I.c c c c L.M.K.Q ` g c c         ",
"      . . j '.'.%.$.-.-.O -.j c c G M K.&.>.@.8.8.8.K.M u N.>.H + 6.@.8.8.8.R N.c @.+ e.y g.h.I.c c c c v.9.O.<.h.J c c         ",
"      . . i.j '.'.%.$.-.-.$.i.c c f.+.G @.+ }.8.8.R D ..&.Q C.w.#.7. .[.8.8.G P.>.+ e.X g.Z y 2.c c c c Q.R.O.H ` J c c         ",
"      . . ,.i.j '.'.%.$.-.%.,.c c N.G r e.#.8.8.8.f...P.<.o |.z =.g.P #.8.8.8.r Q o w ` %.Y f.S.c c c a.c.T.x + i.g c c         ",
"      . . ,.,.i.j '.'.%.$.%.I c c &.P.A.X g.8.8.8.8.8.8.8.8.8.8.8.8.8.8.8.8.8.r 6.y I O k K y.b.c c c U.E.d.f.o $.n c c         ",
"      . . I ,.,.i.j '.'.%.'.I c c &.&.@.|.8.8.8.8.8.8.8.8.8.8.8.8.8.8.8.8.8.8.8.H |.%.s B B /.c c c m.V.W.p.W |.Z f c c         ",
"      . . ` I ,.,.i.j '.'.j ` c c P.&.<.|.=.P e.v f...X.:.@.H + + [.+ 6.A.r &.:.+ _.$.K J Y.S.c c c 4.R.W.M + ` K # c c         ",
"      . . h.` I ,.,.i.j '.i.h.c c W W [.w =.z 7.H W r W @.<.6.6.+ + [.+ 6.<.<.6.w.p Y K B Z.c c 2.`. +T.d.X.#.-.n % c c         ",
"      . . h.h.` I ,.,.i.j i.p c c P.P.@.|.h.p P 7.o *.C.o  .w.7.#.X X X X X X |.p %.q K o..+c 3.++s.F @++.<.h.A d = c c         ",
"      . . p h.h.` I ,.,.i.,.p c c N.P.A.|.h.i.` p =.g.g.=.h.` ` I ,.,.,.i.i.j '.O q s s.`.c a.#+$+%+U u <._.Y g $ - c c         ",
"      . . =.p h.h.` I ,.I ` =.c c X.N.A.|.` '.%.'.j '.%.%.$.-.O O Y ;.Z Z q q k k k &+*+c m.=+y.%+-+V >.X '.B d % - c c         ",
"      . . g.=.p h.p p h.` p P c c G f.v X p j %.$.$.-.O Y Y ;.Z q q q k s s s k  +;+l.c >+!.p.V ,+K.r 7.i.s m # * = c c         ",
"      . . g.g.g.z z _.P P _.X c c ....r  .z h.I i.j j j '.%.%.$.-.O O O Y h.x.c c 3.*+!.v ..M M R W C.,.k l d % * = c c         ",
"      . . z z c c c c c c c c c c c c c c c c c c c c c c c c c c c c c c c c c I.5.H W N R X.r *.w j q g f $ % & * c c         ",
"      . . P w c c c c c c c c c c c c c c c c c c c c c c c c c c c c '+x.)+N.H >.<.v P.&.P.Q o p $.A g m @ $ % % & c c         ",
"      . . w |.7.C.r X.R u +.M c c T.!+L ,+V N :.P.P.P.&.N f.r r r r :.W v v &.&.P.<.Q A.+ o p '.Z A J m d @ # $ % % c c         ",
"      . . w y w.*.r f...+.D M c c T.T.~+U ,+G X.N.N.P.P.&.G N r r r r :.v v >.@.H o 7.w._.=.Y s t g n f d d @ # $ $ c c         ",
"      . . w X #.o A.r &.P.N.R c c C L ~+,+K.r W >.A.A.A.@.:.<.Q H 6.6.+ + }.*.o #.=.I '.O k K t g n m h f d d @ # $ c c         ",
"      . . |.|.X 7.o C.}.}.c c c c c c V X.>.6.}.#.y |.|.|.w _._.P z g.g.=.h.` ,.'.-.;.q s E J g l n m m h f d d @ # c c         ",
"      . . y |.|.X X X #.7.c 6.N.M -+c x N *.y z =.p h.` ` I ,.i.i.j j %.%.$.O ;.Z q s K E t J g g l n m m h f d d @ c c         ",
"      . . X y |.w |.|.|.y  .c &.+.c V ..@.e.w p I ,.i.j '.'.%.$.-.-.O Y ;.;.Z k s A K E B B t J g g l n m m h f d d c c         ",
"      . . X X y |.w w w |.7.c >.P.c D f.Q o w h.,.j j '.%.$.$.-.O Y Y ;.Z q q k s A A K E B B t J g g l n m m h f d c c         ",
"      . . #.X X y |.w |.y 7.C.c c ..P.:.6.w.P p I i.j j '.%.$.$.-.O Y Y ;.Z q q k s A A K E B B t J g g l n m m h f c c         ",
"      . . 7.#.X X y |.w y #.o c c +.X.r [.#.P h.I ,.i.j j '.%.$.$.-.O Y Y ;.Z q q k s A A K E B B t J g g l n m m h c c         ",
"      . . w.7.#.X X y |.|.X  .<.:.R &.v o y g.h.I I ,.i.j j '.%.$.$.-.O Y Y ;.Z q q k s A A K E B B t J g g l n m m c c         ",
"      . . w.w.7.#.X X y |.y 7.e.+ W W <.w.w g.h.` I I ,.i.j j '.%.$.$.-.O Y Y ;.Z q q k s A A K E B B t J g g l n m c c         ",
"      . .  .w.w.7.#.X X y y X w.e.*.C. .y P =.p h.` I I ,.i.j j '.%.$.$.-.O Y Y ;.Z q q k s A A K E B B t J g g l n c c         ",
"      + + c c c c c c c c c c c c c c c c c c c c c c c c c c c c c c c c c c c c c c c c c c c c c c c c c c c c c c c         ",
"      + + c c c c c c c c c c c c c c c c c c c c c c c c c c c c c c c c c c c c c c c c c c c c c c c c c c c c c c c         "};

