/* XPM */
static char * analyse_xpm[] = {
"45 45 135 2",
"  	c None",
". 	c #111111",
"+ 	c #131313",
"@ 	c #141414",
"# 	c #121212",
"$ 	c #1A1A1A",
"% 	c #000000",
"& 	c #404040",
"* 	c #565656",
"= 	c #636363",
"- 	c #6B6B6B",
"; 	c #6D6D6D",
"> 	c #686868",
", 	c #616161",
"' 	c #4D4D4D",
") 	c #242424",
"! 	c #2E2E2E",
"~ 	c #707070",
"{ 	c #0E0E0E",
"] 	c #101010",
"^ 	c #656565",
"/ 	c #AEAEAE",
"( 	c #CDCDCD",
"_ 	c #DBDBDB",
": 	c #DEDEDE",
"< 	c #D7D7D7",
"[ 	c #CBCBCB",
"} 	c #939393",
"| 	c #373737",
"1 	c #363636",
"2 	c #6C6C6C",
"3 	c #878787",
"4 	c #4C4C4C",
"5 	c #696969",
"6 	c #A4A4A4",
"7 	c #D1D1D1",
"8 	c #D8D8D8",
"9 	c #CCCCCC",
"0 	c #C9C9C9",
"a 	c #D5D5D5",
"b 	c #E0E0E0",
"c 	c #C2C2C2",
"d 	c #838383",
"e 	c #505050",
"f 	c #CECECE",
"g 	c #EAEAEA",
"h 	c #EDEDED",
"i 	c #D2D2D2",
"j 	c #A5A5A5",
"k 	c #9A9A9A",
"l 	c #BDBDBD",
"m 	c #E5E5E5",
"n 	c #EFEFEF",
"o 	c #9E9E9E",
"p 	c #3D3D3D",
"q 	c #0D0D0D",
"r 	c #424242",
"s 	c #A6A6A6",
"t 	c #F8F8F8",
"u 	c #F5F5F5",
"v 	c #E3E3E3",
"w 	c #C7C7C7",
"x 	c #BFBFBF",
"y 	c #C3C3C3",
"z 	c #C8C8C8",
"A 	c #858585",
"B 	c #4E4E4E",
"C 	c #2F2F2F",
"D 	c #595959",
"E 	c #B4B4B4",
"F 	c #F2F2F2",
"G 	c #F7F7F7",
"H 	c #F3F3F3",
"I 	c #ECECEC",
"J 	c #B0B0B0",
"K 	c #BCBCBC",
"L 	c #E2E2E2",
"M 	c #848484",
"N 	c #2C2C2C",
"O 	c #030303",
"P 	c #D4D4D4",
"Q 	c #F6F6F6",
"R 	c #313131",
"S 	c #020202",
"T 	c #B2B2B2",
"U 	c #353535",
"V 	c #E4E4E4",
"W 	c #C5C5C5",
"X 	c #E9E9E9",
"Y 	c #A7A7A7",
"Z 	c #EBEBEB",
"` 	c #F4F4F4",
" .	c #F1F1F1",
"..	c #EEEEEE",
"+.	c #9F9F9F",
"@.	c #333333",
"#.	c #E7E7E7",
"$.	c #E1E1E1",
"%.	c #949494",
"&.	c #303030",
"*.	c #D9D9D9",
"=.	c #ABABAB",
"-.	c #6E6E6E",
";.	c #282828",
">.	c #535353",
",.	c #2D2D2D",
"'.	c #747474",
").	c #262626",
"!.	c #575757",
"~.	c #CACACA",
"{.	c #E8E8E8",
"].	c #868686",
"^.	c #5D5D5D",
"/.	c #5C5C5C",
"(.	c #767676",
"_.	c #727272",
":.	c #525252",
"<.	c #383838",
"[.	c #8E8E8E",
"}.	c #151515",
"|.	c #080808",
"1.	c #010101",
"2.	c #717171",
"3.	c #1E1E1E",
"4.	c #909090",
"5.	c #3B3B3B",
"6.	c #181818",
"7.	c #070707",
"8.	c #050505",
"9.	c #4B4B4B",
"0.	c #191919",
"a.	c #757575",
"b.	c #626262",
"c.	c #797979",
"d.	c #8A8A8A",
"                                                                                          ",
"                                                                                          ",
"                                                                                          ",
"                                                                                          ",
"                                                                                          ",
"                                                                                          ",
"                                                                                          ",
"                          . + @ @ @ @ # $                                                 ",
"                      % & * = - ; ; > , ' ) ! ~                                           ",
"                    { ] ^ / ( _ : : < [ } | 1 2 3                                         ",
"                  { 4 5 6 7 8 9 0 0 a b c d ^ * e                                         ",
"                % ] 5 f g h i j k k l m n : o p q                                         ",
"                r 5 s g t u v w x x y z < g 0 A B C                                       ",
"              # D E < F t G H I g g f J K v L 0 M N O                                     ",
"              + ^ P h Q t t t t t t : c x ( < b k R S                                     ",
"              @ - L Q t t t t t t t H I a T K L j U S                                     ",
"              @ ; m t t t t t t t t t G V W 9 X Y U S                                     ",
"              @ ; m t t t t t t t t t t H Z h ` Y U S                                     ",
"              @ > _  .G t t t t t t t t t t ` ..+.@.S                                     ",
"              # , 9 #.u t t t t t t t t t G ..$.%.&.S                                     ",
"              $ ' %.c n t t t t t t t t t u *.=.-.;.                                      ",
"                ) | d : H Q G t t t t G u g J >.)                                         ",
"                ,.1 ^ o 0 m F Q t t ` ..*.J '.).% %                                       ",
"                ~ 2 !.p A ~.{.u t t ..$.=.>.).q % % %                                     ",
"                  ].^.1 /.].k j Y Y +.%.-.) % % % % %                                     ",
"                    (._.:.<.R U 1 1 @.&.;.  % % % % % % %                                 ",
"                      [.B @ S S S S S S       % % % % % %                                 ",
"                                                  % % % % % %                             ",
"                                                  % % % % % % %                           ",
"                                                      % % % % % %                         ",
"                                                      % % % % % %                         ",
"                                                        % % % % % % %                     ",
"                                                          ;.}.|.1.% %                     ",
"                                                        d 2.' 3.O % % % %                 ",
"                                                      4.4.4._.5.6.7.8.. $ $               ",
"                                                        4.4.d - 9.0.. 5.^.^.              ",
"                                                          4.4.4.a.<.! b.4.                ",
"                                                            4.4.c.^ b.;                   ",
"                                                                  d.d.                    ",
"                                                                                          ",
"                                                                                          ",
"                                                                                          ",
"                                                                                          ",
"                                                                                          ",
"                                                                                          "};
