/* XPM */
static char * info_xpm[] = {
"30 40 16 1",
" 	c None",
".	c #000000",
"+	c #FFFFFF",
"@	c #AAAAAA",
"#	c #E3E3E3",
"$	c #8E8E8E",
"%	c #C7C7C7",
"&	c #555555",
"*	c #727272",
"=	c #393939",
"-	c #1D1D1D",
";	c #585858",
">	c #B1B1B1",
",	c #5E5E5E",
"'	c #323232",
")	c #0F0F0F",
"      ......................  ",
"     ..++++++++++++++++++++.  ",
"    ...++++++++++++++++++++...",
"   ....++++++++++++++++++++...",
"  .....++++++++++++++++++++...",
" ......++++++++++++++++++++...",
".......++++++++++++++++++++...",
".++++++++++++++++++++++++++...",
".++++++++++++++++++++++++++...",
".+++@++++++@+++#$++#%+##%+$...",
".+@+&@+*$+@&+@+=%%%@$%#%@+&...",
".#*@=*&@#*+&&*@&+&&$*=@@&+=...",
".**@&*%-@*$&*&#=#=-*@&@@&#=...",
".%@%+++++++++++#;.@$%%#+*++...",
".+++++++++++++++@.+++++++++...",
".+++++++++++++++@.+@%++++++...",
".++++++++++*=-%+@.$=.@+#&=&...",
".++++++++++#+-&+@.++=&#.#@$...",
".+++++++++#&*=$+@.++&*@.+&@...",
".+++++++++&&+=*+@.++&#>.,=*...",
".+++++++++*.&.=+@==*#+*'.)-...",
".+++++++++++++++++++++%@%@&...",
".++++++++++++++++++++#*&#@=...",
".++++++++++++++++++++#+=@@=...",
".++++++++++++++++++++@*=@@&...",
".++++++++++++++++++++&&=$@-...",
".++++++++++++++++++++#%++++...",
".++++++++++++++++++++++++++...",
".++++++++++++++++++++++++++...",
".++++++++++++++++++++++++++...",
".++++++++++++++++++++++++++...",
".++++++++++++++++++++++++++...",
".++++++++++++++++++++++++++...",
".++++++++++++++++++++++++++...",
".++++++++++++++++++++++++++...",
".++++++++++++++++++++++++++...",
".++++++++++++++++++++++++++...",
"..............................",
"  ............................",
"  ............................"};
