/* XPM */
static char * logiciel_xpm[] = {
"32 31 123 2",
"  	c None",
". 	c #626262",
"+ 	c #484848",
"@ 	c #333333",
"# 	c #252525",
"$ 	c #313131",
"% 	c #454545",
"& 	c #7C7C7C",
"* 	c #4E4E4E",
"= 	c #2D2D2D",
"- 	c #6C6C6C",
"; 	c #838383",
"> 	c #939393",
", 	c #9B9B9B",
"' 	c #848484",
") 	c #6D6D6D",
"! 	c #515151",
"~ 	c #4F4F4F",
"{ 	c #2F2F2F",
"] 	c #3D3D3D",
"^ 	c #6A6A6A",
"/ 	c #A3A3A3",
"( 	c #B6B6B6",
"_ 	c #BCBCBC",
": 	c #BEBEBE",
"< 	c #BFBFBF",
"[ 	c #A4A4A4",
"} 	c #676767",
"| 	c #363636",
"1 	c #2E2E2E",
"2 	c #2C2C2C",
"3 	c #5C5C5C",
"4 	c #9F9F9F",
"5 	c #BBBBBB",
"6 	c #A1A1A1",
"7 	c #777777",
"8 	c #373737",
"9 	c #717171",
"0 	c #B4B4B4",
"a 	c #727272",
"b 	c #282828",
"c 	c #393939",
"d 	c #909090",
"e 	c #8E8E8E",
"f 	c #383838",
"g 	c #2B2B2B",
"h 	c #646464",
"i 	c #B7B7B7",
"j 	c #B8B8B8",
"k 	c #656565",
"l 	c #494949",
"m 	c #595959",
"n 	c #3E3E3E",
"o 	c #A5A5A5",
"p 	c #5B5B5B",
"q 	c #434343",
"r 	c #757575",
"s 	c #BDBDBD",
"t 	c #424242",
"u 	c #A8A8A8",
"v 	c #575757",
"w 	c #ADADAD",
"x 	c #AFAFAF",
"y 	c #585858",
"z 	c #8A8A8A",
"A 	c #8B8B8B",
"B 	c #414141",
"C 	c #828282",
"D 	c #BABABA",
"E 	c #2A2A2A",
"F 	c #989898",
"G 	c #8C8C8C",
"H 	c #1D1D1D",
"I 	c #010101",
"J 	c #020202",
"K 	c #1C1C1C",
"L 	c #929292",
"M 	c #9C9C9C",
"N 	c #747474",
"O 	c #090909",
"P 	c #000000",
"Q 	c #080808",
"R 	c #242424",
"S 	c #ABABAB",
"T 	c #5D5D5D",
"U 	c #707070",
"V 	c #A7A7A7",
"W 	c #6B6B6B",
"X 	c #7D7D7D",
"Y 	c #9A9A9A",
"Z 	c #A2A2A2",
"` 	c #4B4B4B",
" .	c #686868",
"..	c #858585",
"+.	c #A0A0A0",
"@.	c #7B7B7B",
"#.	c #868686",
"$.	c #878787",
"%.	c #7A7A7A",
"&.	c #B2B2B2",
"*.	c #696969",
"=.	c #8F8F8F",
"-.	c #B1B1B1",
";.	c #B9B9B9",
">.	c #919191",
",.	c #818181",
"'.	c #9D9D9D",
").	c #616161",
"!.	c #898989",
"~.	c #9E9E9E",
"{.	c #525252",
"].	c #797979",
"^.	c #5A5A5A",
"/.	c #767676",
"(.	c #949494",
"_.	c #6E6E6E",
":.	c #888888",
"<.	c #8D8D8D",
"[.	c #959595",
"}.	c #6F6F6F",
"|.	c #A9A9A9",
"1.	c #B5B5B5",
"2.	c #969696",
"                        . + @ # # $ + %                         ",
"                & * = * - ; > , , > ' ) ! $ ~                   ",
"              { ] ^ / ( _ : : < < : : _ ( [ } | 1               ",
"            2 3 4 5 < < < < < < < < < < < < 5 6 3 {             ",
"        7 8 9 0 < < < < < < < < < < < < < < < < 0 a b 7         ",
"        c d _ < < < < < < < < < < < < < < < < < < _ e f         ",
"      g a : < < < < < < < < < < < < < < < < < < < < : 9 g       ",
"    + h i < < < < < < < < < < < < < < < < < < < < < < j k l     ",
"  m n o < < < < < < < < < < < < < < < < < < < < < < < < o n p   ",
"  q r s < < < < < < < < < < < < < < < < < < < < < < < < s r q   ",
"  t u < < < < < < < < < < < < < < < < < < < < < < < < < < u q   ",
"  v j < < < < < < < < < < < < < < < < < < < < < < < < < < j v   ",
"m 7 s < < < < < < < < < < < : w [ x s < < < < < < < < < < s 7 y ",
"n z : < < < < < < < < < < 5 A n = B C D < < < < < < < < < : z n ",
"E F < < < < < < < < < < < G H I I J K L < < < < < < < < < < F E ",
"# M < < < < < < < < < < < N O P P P Q 9 < < < < < < < < < < M R ",
"E F < < < < < < < < < < < G H I I J K L < < < < < < < < < < F E ",
"n z : < < < < < < < < < < 5 A n = B C D < < < < < < < < < : z n ",
"m 7 s < s < < < s 5 s < < s D S [ w s s 5 s s : 5 5 _ s : s 7 y ",
"  v j D T 5 < / ^ } U V 6 W } X Y - Z - } 9 U X `  ...a +.j v   ",
"  t u D p 5 : @.d 5 #.$.%.d &.o 4 *.& =._ &.U & - S -.a 4 u q   ",
"  q r ;.p 5 s a 4 : >.,.9 '.F ).!. .N ~.< s 9 & {.].>.9 '.r q   ",
"  m n +.^., +.$.].'./.(.A @.M _.:.^ <.%.~.[.}.& } 6 S - /.8 v   ",
"    + ).; X C |.d C (.i 1.e C d |.[.( >.C e 2.~.@.,.2...f c     ",
"      g a : < < < < < < < < < < < < < < < < < < < < : 9 g       ",
"        c d _ < < < < < < < < < < < < < < < < < < _ e f         ",
"        7 8 9 0 < < < < < < < < < < < < < < < < 0 a b 7         ",
"            2 3 4 5 < < < < < < < < < < < < 5 6 3 {             ",
"              { ] ^ / ( _ : : < < : : _ ( [ } | 1               ",
"                & * = * - ; > , , > ' ) ! $ ~                   ",
"                        . + @ # # $ + %                         "};
