/* XPM */
static char * menace_xpm[] = {
"64 55 256 2",
"  	c None",
". 	c #FFFFFF",
"+ 	c #E8E8E8",
"@ 	c #7C7C7C",
"# 	c #5D5D5D",
"$ 	c #020000",
"% 	c #CECECE",
"& 	c #C1C1C1",
"* 	c #010000",
"= 	c #000000",
"- 	c #363636",
"; 	c #FDFDFD",
"> 	c #FAFAFA",
", 	c #292929",
"' 	c #030000",
") 	c #9B9B9B",
"! 	c #8C8C8C",
"~ 	c #210000",
"{ 	c #A00000",
"] 	c #110000",
"^ 	c #ECECEC",
"/ 	c #E4E4E4",
"( 	c #0B0000",
"_ 	c #B70000",
": 	c #FF0000",
"< 	c #430000",
"[ 	c #656565",
"} 	c #565656",
"| 	c #510000",
"1 	c #D70000",
"2 	c #040000",
"3 	c #C8C8C8",
"4 	c #BBBBBB",
"5 	c #090000",
"6 	c #E10000",
"7 	c #790000",
"8 	c #313131",
"9 	c #FCFCFC",
"0 	c #F9F9F9",
"a 	c #252525",
"b 	c #880000",
"c 	c #F50000",
"d 	c #1C0000",
"e 	c #959595",
"f 	c #868686",
"g 	c #260000",
"h 	c #F90000",
"i 	c #AF0000",
"j 	c #0E0000",
"k 	c #E9E9E9",
"l 	c #E0E0E0",
"m 	c #080000",
"n 	c #BD0000",
"o 	c #490000",
"p 	c #5F5F5F",
"q 	c #4F4F4F",
"r 	c #590000",
"s 	c #DC0000",
"t 	c #060000",
"u 	c #C3C3C3",
"v 	c #B5B5B5",
"w 	c #E50000",
"x 	c #800000",
"y 	c #2A2A2A",
"z 	c #FBFBFB",
"A 	c #F7F7F7",
"B 	c #202020",
"C 	c #8E0000",
"D 	c #F70000",
"E 	c #200000",
"F 	c #8E8E8E",
"G 	c #7F7F7F",
"H 	c #2B0000",
"I 	c #FB0000",
"J 	c #B50000",
"K 	c #E5E5E5",
"L 	c #DCDCDC",
"M 	c #C30000",
"N 	c #4F0000",
"O 	c #585858",
"P 	c #494949",
"Q 	c #5F0000",
"R 	c #E00000",
"S 	c #BDBDBD",
"T 	c #AFAFAF",
"U 	c #E90000",
"V 	c #860000",
"W 	c #262626",
"X 	c #F4F4F4",
"Y 	c #950000",
"Z 	c #250000",
"` 	c #878787",
" .	c #797979",
"..	c #310000",
"+.	c #FC0000",
"@.	c #BB0000",
"#.	c #E1E1E1",
"$.	c #D7D7D7",
"%.	c #C80000",
"&.	c #560000",
"*.	c #515151",
"=.	c #424242",
"-.	c #660000",
";.	c #E40000",
">.	c #B6B6B6",
",.	c #A8A8A8",
"'.	c #EC0000",
").	c #8D0000",
"!.	c #212121",
"~.	c #F2F2F2",
"{.	c #180000",
"].	c #9B0000",
"^.	c #290000",
"/.	c #818181",
"(.	c #727272",
"_.	c #360000",
":.	c #FD0000",
"<.	c #C10000",
"[.	c #070000",
"}.	c #DDDDDD",
"|.	c #D3D3D3",
"1.	c #CE0000",
"2.	c #5E0000",
"3.	c #4A4A4A",
"4.	c #FEFEFE",
"5.	c #3C3C3C",
"6.	c #6C0000",
"7.	c #E80000",
"8.	c #0D0000",
"9.	c #B0B0B0",
"0.	c #A1A1A1",
"a.	c #140000",
"b.	c #EF0000",
"c.	c #930000",
"d.	c #1D1D1D",
"e.	c #F5F5F5",
"f.	c #EFEFEF",
"g.	c #A20000",
"h.	c #2F0000",
"i.	c #7A7A7A",
"j.	c #6C6C6C",
"k.	c #3C0000",
"l.	c #FE0000",
"m.	c #C70000",
"n.	c #050000",
"o.	c #D8D8D8",
"p.	c #CDCDCD",
"q.	c #D30000",
"r.	c #640000",
"s.	c #444444",
"t.	c #730000",
"u.	c #EB0000",
"v.	c #100000",
"w.	c #AAAAAA",
"x.	c #F20000",
"y.	c #9A0000",
"z.	c #190000",
"A.	c #F3F3F3",
"B.	c #A80000",
"C.	c #350000",
"D.	c #747474",
"E.	c #CC0000",
"F.	c #D4D4D4",
"G.	c #D80000",
"H.	c #6B0000",
"I.	c #3D3D3D",
"J.	c #130000",
"K.	c #A3A3A3",
"L.	c #949494",
"M.	c #150000",
"N.	c #F0F0F0",
"O.	c #320000",
"P.	c #0F0000",
"Q.	c #650000",
"R.	c #3F0000",
"S.	c #F80000",
"T.	c #440000",
"U.	c #A50000",
"V.	c #050505",
"W.	c #0B0B0B",
"X.	c #3E0000",
"Y.	c #270000",
"Z.	c #CF0000",
"`.	c #2C0000",
" +	c #160000",
".+	c #DF0000",
"++	c #AA0000",
"@+	c #120000",
"#+	c #A70000",
"$+	c #600000",
"%+	c #D20000",
"&+	c #CFCFCF",
"*+	c #C2C2C2",
"=+	c #B90000",
"-+	c #8A0000",
";+	c #6A0000",
">+	c #8F0000",
",+	c #740000",
"'+	c #810000",
")+	c #4C0000",
"!+	c #830000",
"~+	c #4B0000",
"{+	c #990000",
"]+	c #710000",
"^+	c #373737",
"/+	c #F60000",
"(+	c #1E0000",
"_+	c #D50000",
":+	c #F30000",
"<+	c #230000",
"[+	c #D90000",
"}+	c #F10000",
"|+	c #170000",
"1+	c #9C9C9C",
"2+	c #7E0000",
"3+	c #B10000",
"4+	c #F00000",
"5+	c #2E0000",
"6+	c #0A0000",
"7+	c #0C0000",
"8+	c #EDEDED",
"9+	c #3A0000",
"0+	c #4D0000",
"a+	c #840000",
"b+	c #EE0000",
"c+	c #400000",
"d+	c #676767",
"e+	c #500000",
"f+	c #460000",
"g+	c #D00000",
"h+	c #C9C9C9",
"i+	c #C20000",
"j+	c #A60000",
"k+	c #E70000",
"l+	c #3D0000",
"m+	c #720000",
"n+	c #A90000",
"o+	c #C50000",
"p+	c #780000",
"q+	c #323232",
"r+	c #380000",
"s+	c #470000",
"t+	c #1B0000",
"u+	c #969696",
"v+	c #AD0000",
"w+	c #BC0000",
"x+	c #480000",
"y+	c #606060",
"z+	c #570000",
"A+	c #DB0000",
"B+	c #C4C4C4",
"C+	c #2C2C2C",
"D+	c #550000",
"E+	c #8F8F8F",
"F+	c #0E0E0E",
"G+	c #ADADAD",
". . . . . . . . . . . . . . . . . . . . . . . . . . . . . . . + @ . . . . . . . . . . . . . . . . . . . . . . . . . . . . . . . ",
". . . . . . . . . . . . . . . . . . . . . . . . . . . . . . . # $ % . . . . . . . . . . . . . . . . . . . . . . . . . . . . . . ",
". . . . . . . . . . . . . . . . . . . . . . . . . . . . . . & * = - ; . . . . . . . . . . . . . . . . . . . . . . . . . . . . . ",
". . . . . . . . . . . . . . . . . . . . . . . . . . . . . > , = ' = ) . . . . . . . . . . . . . . . . . . . . . . . . . . . . . ",
". . . . . . . . . . . . . . . . . . . . . . . . . . . . . ! = ~ { = ] ^ . . . . . . . . . . . . . . . . . . . . . . . . . . . . ",
". . . . . . . . . . . . . . . . . . . . . . . . . . . . / ( = _ : < = [ . . . . . . . . . . . . . . . . . . . . . . . . . . . . ",
". . . . . . . . . . . . . . . . . . . . . . . . . . . . } = | : : 1 2 * 3 . . . . . . . . . . . . . . . . . . . . . . . . . . . ",
". . . . . . . . . . . . . . . . . . . . . . . . . . . 4 = 5 6 : : : 7 = 8 9 . . . . . . . . . . . . . . . . . . . . . . . . . . ",
". . . . . . . . . . . . . . . . . . . . . . . . . . 0 a = b : : : : c d = e . . . . . . . . . . . . . . . . . . . . . . . . . . ",
". . . . . . . . . . . . . . . . . . . . . . . . . . f = g h : : : : : i = j k . . . . . . . . . . . . . . . . . . . . . . . . . ",
". . . . . . . . . . . . . . . . . . . . . . . . . l m = n : : : : : : : o = p . . . . . . . . . . . . . . . . . . . . . . . . . ",
". . . . . . . . . . . . . . . . . . . . . . . . . q = r : : : : : : : : s t * u . . . . . . . . . . . . . . . . . . . . . . . . ",
". . . . . . . . . . . . . . . . . . . . . . . . v = ( w : : : : : : : : : x = y z . . . . . . . . . . . . . . . . . . . . . . . ",
". . . . . . . . . . . . . . . . . . . . . . . A B = C : : : : : : : : : : D E = F . . . . . . . . . . . . . . . . . . . . . . . ",
". . . . . . . . . . . . . . . . . . . . . . . G = H I : : : : : : : : : : : J = ( K . . . . . . . . . . . . . . . . . . . . . . ",
". . . . . . . . . . . . . . . . . . . . . . L t * M : : : : : : : : : : : : : N = O . . . . . . . . . . . . . . . . . . . . . . ",
". . . . . . . . . . . . . . . . . . . . . . P = Q : : : : : : : : : : : : : : R 5 = S . . . . . . . . . . . . . . . . . . . . . ",
". . . . . . . . . . . . . . . . . . . . . T = j U : : : : : : : : : : : : : : : V = W 0 . . . . . . . . . . . . . . . . . . . . ",
". . . . . . . . . . . . . . . . . . . . X d = Y : : : : : : : : : : : : : : : : h Z = ` . . . . . . . . . . . . . . . . . . . . ",
". . . . . . . . . . . . . . . . . . . .  .= ..+.: : : : : : : : : : : : : : : : : @.= 5 #.. . . . . . . . . . . . . . . . . . . ",
". . . . . . . . . . . . . . . . . . . $.2 * %.: : : : : : : : : : : : : : : : : : : &.= *.. . . . . . . . . . . . . . . . . . . ",
". . . . . . . . . . . . . . . . . . . =.= -.: : : : : : : : : : : : : : : : : : : : ;.( = >.. . . . . . . . . . . . . . . . . . ",
". . . . . . . . . . . . . . . . . . ,.= ] '.: : : : : : : : : : : : : : : : : : : : : ).= !.A . . . . . . . . . . . . . . . . . ",
". . . . . . . . . . . . . . . . . ~.{.= ].: : : : : : : : : : : : : : : : : : : : : : I ^.= /.. . . . . . . . . . . . . . . . . ",
". . . . . . . . . . . . . . . . . (.= _.:.: : : : : : : : : : : : : : : : : : : : : : : <.* [.}.. . . . . . . . . . . . . . . . ",
". . . . . . . . . . . . . . . . |.' $ 1.: : : : : : : : : : : : : : : : : : : : : : : : : 2.= 3.. . . . . . . . . . . . . . . . ",
". . . . . . . . . . . . . . . 4.5.= 6.: : : : : : : : : : : : : : : : : : : : : : : : : : 7.8.= 9.. . . . . . . . . . . . . . . ",
". . . . . . . . . . . . . . . 0.= a.b.: : : : : : : : : : : : : : : : : : : : : : : : : : : c.= d.e.. . . . . . . . . . . . . . ",
". . . . . . . . . . . . . . f.a.= g.: : : : : : : : : : : : : : : : : : : : : : : : : : : : +.h.= i.. . . . . . . . . . . . . . ",
". . . . . . . . . . . . . . j.= k.l.: : : : : : : : : : : : : : : : : : : : : : : : : : : : : m.* n.o.. . . . . . . . . . . . . ",
". . . . . . . . . . . . . p.$ 2 q.: : : : : : : : : : : : : : : : : : : : : : : : : : : : : : : r.= s.. . . . . . . . . . . . . ",
". . . . . . . . . . . . ; - = t.: : : : : : : : : : : : : : : : : : : : : : : : : : : : : : : : u.v.= w.. . . . . . . . . . . . ",
". . . . . . . . . . . . ) = {.x.: : : : : : : : : : : : : : : : : : : : : : : : : : : : : : : : : y.= z.A.. . . . . . . . . . . ",
". . . . . . . . . . . ^ ] = B.: : : : : : : : : : : : : : : : : : : : : : : : : : : : : : : : : : :.C.= D.. . . . . . . . . . . ",
". . . . . . . . . . . [ = < : : : : : : : : : : : : : : : : : : : : : : : : : : : : : : : : : : : : E.$ 2 F.. . . . . . . . . . ",
". . . . . . . . . . 3 * 2 G.: : : : : : : : : : : : : : : : : : : : : : : : : : : : : : : : : : : : : H.= I.4.. . . . . . . . . ",
". . . . . . . . . 9 8 = 7 : : : : : : : : : : : : : : : : : : : : : : : : : : : : : : : : : : : : : : b.J.= K.. . . . . . . . . ",
". . . . . . . . . L.= d c : : : : : : : : : : : : : : : : : : : : : : : : : : : : : : : : : : : : : : : { = M.N.. . . . . . . . ",
". . . . . . . . k 8.= = O.: : : c P.[.: 1 = ( ( ( ( i 1 = Q.: : 1 [.: : : : R.v.S.: : : : M T.P.( C.U.1 = ' = V.W.T . . . . . . ",
". . . . . . . . p = X.' Y.Z.: : { `.[.: 1 ' : : : : : 1 $  +7.: 1 [.: : : .+m Z ++: : : n @+#+h :.<.$+1 ' %+' $ &+. . . . . . . ",
". . . . . . . *+* t =+' -+;+: : k.>+[.: 1 ' : : : : : 1 ' ,+7 : 1 [.: : : '+)+!+~+: : : O.{+: : : : : 1 ' : ]+= ^+4.. . . . . . ",
". . . . . . z y = x 1 ' U M./+1 (+_+[.: 1 ' : : : : : 1 ' ;. +:+1 [.: : : <+g.[+2 7.: b.= u.: : : : : 1 ' : }+|+= 1+. . . . . . ",
". . . . . . F = E D 1 ' : | g.t.2+1 [.: 1 = P.P.P.P.3+1 ' : $+).1 [.: : M [.4+: 5+C : s * : : : : : : 1 = P.P.6+= 7+8+. . . . . ",
". . . . . K ( = J : 1 ' : J 9+|+R 1 [.: 1 ' : : : : : 1 ' : _+(+%+[.: : r.0+: : a+h.: b+= '.: : : : : 1 ' : : : c+= d+. . . . . ",
". . . . . O = e+: : 1 ' : :.d f+: 1 [.: 1 ' : : : : : 1 ' : : )+7 [.: /+j ( |+|+v.= g+: O.y.: : : : : 1 ' : : : 1 2 * h+. . . . ",
". . . . S = 5 R : : 1 ' : : : : : 1 [.: 1 ' : : : : : 1 ' : : i+v.[.: j+] 6 k+k+k+l+m+: n J.n+h :.o+$+1 ' : : : : p+= q+9 . . . ",
". . . 0 a = V : : : 1 ' : : : : : 1 [.: 1 = ( ( ( ( i 1 ' : : : r+[.: s+m+: : : : n+|+I : i+< j 7+_.#+1 = ( ( ( ( #+t+= u+. . . ",
". . . ` = Z h : : : : : : : : : : : : : : : : : : : : : : : : : : : : : : : : : : : : : : : : : : : : : : : : : : : v+= j k . . ",
". . #.5 = w+: : : : : : : : : : : : : : : : : : : : : : : : : : : : : : : : : : : : : : : : : : : : : : : : : : : : : x+= y+. . ",
". . *.= z+: : : : : : : : : : : : : : : : : : : : : : : : : : : : : : : : : : : : : : : : : : : : : : : : : : : : : : A+t * B+. ",
". >.= ( ;.: : : : : : : : : : : : : : : : : : : : : : : : : : : : : : : : : : : : : : : : : : : : : : : : : : : : : : : 2+= C+z ",
"A !.= (+D+D+D+D+D+D+D+D+D+D+D+D+D+D+D+D+D+D+D+D+D+D+D+D+D+D+D+D+D+D+D+D+D+D+D+D+D+D+D+D+D+D+D+D+D+D+D+D+D+D+D+D+D+D+D+D+0+= = E+",
"/.= = = = = = = = = = = = = = = = = = = = = = = = = = = = = = = = = = = = = = = = = = = = = = = = = = = = = = = = = = = = = = F+",
"G+w.w.w.w.w.w.w.w.w.w.w.w.w.w.w.w.w.w.w.w.w.w.w.w.w.w.w.w.w.w.w.w.w.w.w.w.w.w.w.w.w.w.w.w.w.w.w.w.w.w.w.w.w.w.w.w.w.w.w.w.w.w.w.",
". . . . . . . . . . . . . . . . . . . . . . . . . . . . . . . . . . . . . . . . . . . . . . . . . . . . . . . . . . . . . . . . "};
