/* XPM */
static char * personne_xpm[] = {
"17 55 188 2",
"  	c None",
". 	c #FFFFFF",
"+ 	c #EBEBEB",
"@ 	c #878787",
"# 	c #292929",
"$ 	c #171717",
"% 	c #1E1E1E",
"& 	c #323232",
"* 	c #CFCFCF",
"= 	c #FAFAFA",
"- 	c #EDEDED",
"; 	c #696969",
"> 	c #242424",
", 	c #4F4F4F",
"' 	c #8E8E8E",
") 	c #5D5D5D",
"! 	c #2B2B2B",
"~ 	c #2E2E2E",
"{ 	c #BEBEBE",
"] 	c #FDFDFD",
"^ 	c #FCFCFC",
"/ 	c #9E9E9E",
"( 	c #F3F3F3",
"_ 	c #F6F6F6",
": 	c #C6C6C6",
"< 	c #434343",
"[ 	c #575757",
"} 	c #E5E5E5",
"| 	c #E7E7E7",
"1 	c #545454",
"2 	c #717171",
"3 	c #F8F8F8",
"4 	c #B1B1B1",
"5 	c #252525",
"6 	c #313131",
"7 	c #B9B9B9",
"8 	c #E3E3E3",
"9 	c #4A4A4A",
"0 	c #9B9B9B",
"a 	c #3A3A3A",
"b 	c #D5D5D5",
"c 	c #F1F1F1",
"d 	c #646464",
"e 	c #777777",
"f 	c #FBFBFB",
"g 	c #CDCDCD",
"h 	c #373737",
"i 	c #C7C7C7",
"j 	c #EFEFEF",
"k 	c #636363",
"l 	c #979797",
"m 	c #4D4D4D",
"n 	c #A5A5A5",
"o 	c #D4D4D4",
"p 	c #3E3E3E",
"q 	c #C0C0C0",
"r 	c #A0A0A0",
"s 	c #4C4C4C",
"t 	c #D6D6D6",
"u 	c #FEFEFE",
"v 	c #F0F0F0",
"w 	c #808080",
"x 	c #4E4E4E",
"y 	c #E1E1E1",
"z 	c #6C6C6C",
"A 	c #606060",
"B 	c #AAAAAA",
"C 	c #D8D8D8",
"D 	c #838383",
"E 	c #B7B7B7",
"F 	c #DEDEDE",
"G 	c #7D7D7D",
"H 	c #ABABAB",
"I 	c #F9F9F9",
"J 	c #BCBCBC",
"K 	c #E9E9E9",
"L 	c #C3C3C3",
"M 	c #B6B6B6",
"N 	c #BABABA",
"O 	c #D1D1D1",
"P 	c #D0D0D0",
"Q 	c #858585",
"R 	c #282828",
"S 	c #C8C8C8",
"T 	c #E0E0E0",
"U 	c #515151",
"V 	c #DDDDDD",
"W 	c #CCCCCC",
"X 	c #151515",
"Y 	c #010101",
"Z 	c #909090",
"` 	c #050505",
" .	c #030303",
"..	c #505050",
"+.	c #E4E4E4",
"@.	c #585858",
"#.	c #000000",
"$.	c #343434",
"%.	c #F7F7F7",
"&.	c #080808",
"*.	c #141414",
"=.	c #F2F2F2",
"-.	c #202020",
";.	c #484848",
">.	c #0F0F0F",
",.	c #0E0E0E",
"'.	c #D2D2D2",
").	c #969696",
"!.	c #0C0C0C",
"~.	c #7C7C7C",
"{.	c #6A6A6A",
"].	c #181818",
"^.	c #060606",
"/.	c #565656",
"(.	c #DFDFDF",
"_.	c #0B0B0B",
":.	c #E6E6E6",
"<.	c #414141",
"[.	c #A6A6A6",
"}.	c #767676",
"|.	c #D3D3D3",
"1.	c #2A2A2A",
"2.	c #AFAFAF",
"3.	c #1D1D1D",
"4.	c #919191",
"5.	c #DADADA",
"6.	c #212121",
"7.	c #161616",
"8.	c #737373",
"9.	c #B2B2B2",
"0.	c #101010",
"a.	c #303030",
"b.	c #464646",
"c.	c #ACACAC",
"d.	c #0A0A0A",
"e.	c #939393",
"f.	c #020202",
"g.	c #444444",
"h.	c #383838",
"i.	c #262626",
"j.	c #040404",
"k.	c #5B5B5B",
"l.	c #474747",
"m.	c #707070",
"n.	c #676767",
"o.	c #E2E2E2",
"p.	c #A2A2A2",
"q.	c #ECECEC",
"r.	c #E8E8E8",
"s.	c #B5B5B5",
"t.	c #848484",
"u.	c #333333",
"v.	c #6D6D6D",
"w.	c #F4F4F4",
"x.	c #3D3D3D",
"y.	c #232323",
"z.	c #131313",
"A.	c #A8A8A8",
"B.	c #0D0D0D",
"C.	c #9A9A9A",
"D.	c #DBDBDB",
"E.	c #494949",
"F.	c #8C8C8C",
"G.	c #191919",
"H.	c #1C1C1C",
"I.	c #D9D9D9",
"J.	c #727272",
"K.	c #9F9F9F",
"L.	c #8F8F8F",
"M.	c #090909",
"N.	c #F5F5F5",
"O.	c #070707",
"P.	c #C5C5C5",
"Q.	c #272727",
"R.	c #404040",
"S.	c #C9C9C9",
"T.	c #363636",
"U.	c #626262",
"V.	c #686868",
"W.	c #B4B4B4",
"X.	c #5C5C5C",
"Y.	c #787878",
"Z.	c #828282",
"`.	c #797979",
" +	c #898989",
".+	c #A4A4A4",
"++	c #BDBDBD",
"@+	c #EEEEEE",
". . . . . + @ # $ % & * = . . . . ",
". . . . - ; > , ' ) ! ~ { ] . . . ",
". . . ^ / # / ( . _ : < [ } . . . ",
". . . | 1 2 3 . . . . 4 5 { . . . ",
". . . * 6 7 . . . . . 8 9 0 ] . . ",
". . . : a b . . . . . c d e f . . ",
". . . g h i . . . . . j k l ] . . ",
". . . } m n ] . . . . o p q . . . ",
". . . ] r s t f . u v w x y . . . ",
". . . . - z A B C { D p E u . . . ",
". . . . . F G m k x x H f . . . . ",
". . . I J + K L M N O c P | . . . ",
". . f Q R S ] u . . . T U 9 V . . ",
". . W X Y Z u . . . . S `  ...+.. ",
". I @.#.#.$.%.. . . ^ G #.#.&.Q = ",
". P R #.#.*.v . . . =.-.#.#.#.;.+.",
". B *.#.#.>.: u . ] { ,.#.#.#.R '.",
". ).!.#.#.` ~.f . I {. .#.#.#.].S ",
"I ~.^.#.#.#./.3 . (.p #.#.#.#._.H ",
":., Y #.#.#.<.8 u [.>.#.#.#.#.Y }.",
"|.1.#.#.#.#.].2.%.G #.#.#.#.#.#.9 ",
"W 3.#.#.#.#.#.4.5.6.#.#.#.#.#.#.$.",
"S 7.#.#.#.#.#.8.9.#.#.#.#.#.#.#.5 ",
"q 0.#.#.#.#.#.a.b.#.#.#.#.#.#.#.$ ",
"c.d.#.#.#.#.#.`  .#.#.#.#.#.#.#.!.",
"e. .#.#.#.#.#.#.#.#.#.#.#.#.#.#.f.",
"}.#.#.#.#.#.#.#.#.#.#.#.#.#.#.#.#.",
"@.#.#.#.#.#.#.#.#.#.#.#.#.#.#.#.#.",
"g.#.#.#.#.#.#.#.#.#.#.#.#.#.#.#.#.",
"h.#.#.#.#.#.#.#.#.#.#.#.#.#.#.#.#.",
"i.#.#.#.#.#.#.#.#.#.#.#.#.f.j.Y #.",
"{.k.k.l.d.#.#.#.#.#.#.#.#.>.2 m.n.",
"+.o.o.p.>.#.#.#.#.#.#.#.#.,.* q.r.",
". . ] 4.` #.#.#.#.#.#.#.#.f.s.. . ",
". . I /.#.#.#.#.#.#.#.#.#.#.t.. . ",
". . %.u.#.#.#.#.#.#.#.#.#.#.v.. . ",
". . w.-.#.#.#.#.#.#.#.#.#.#.) . . ",
". . F >.#.#.#.#.Y f.#.#.#.#.9 %.. ",
". . H f.#.#.#.#.,.d.#.#.#.#.& T . ",
". . ~.#.#.#.#.#.> 7.#.#.#.#.3.q . ",
". . d #.#.#.#.#.x.y.#.#.#.#.z.A.. ",
". I s #.#.#.#.Y v.6 #.#.#.#.B.C.. ",
". D.~ #.#.#.#._.9.E.#.#.#.#.&.F.u ",
". s.G.#.#.#.#.H.I.2 f.#.#.#.j.J._ ",
". K.>.#.#.#.#.a.} ).&.#.#.#.#.s } ",
"u L.M.#.#.#.#./.v H >.#.#.#.#.~ b ",
"N.2 j.#.#.#.O.F.= M ].#.#.#.#.% g ",
"o.b.#.#.#.#.0.c.. L y.#.#.#.#.z.P.",
"'.Q.#.#.#.#.3.J . T R.#.#.#.#.O./ ",
"S.G.#.#.#.#.T.b . _ U.f.#.#.#.#.V.",
"W.B.#.#.#.f.X.( . . Y.j.#.#.#.#.R.",
"Z. .#.#.#.j.`.u . .  +^.#.#.#.#.! ",
"x #.#.#.#.O.Z . . . .+d.#.#.#.#.G.",
"6 #.#.#.#.,.++. . . P *.#.#.#.#.&.",
"3.#.#.#.#.i.@+. . . w.# #.#.#.#.#."};
