/* XPM */
static char * si_xpm[] = {
"50 30 143 2",
"  	c None",
". 	c #FFFFFF",
"+ 	c #E9E9E9",
"@ 	c #F7F7F7",
"# 	c #292910",
"$ 	c #72712D",
"% 	c #525120",
"& 	c #A3A3A3",
"* 	c #5C5B24",
"= 	c #FFFE64",
"- 	c #B7B648",
"; 	c #FAF962",
"> 	c #F1F15F",
", 	c #EFEE5E",
"' 	c #F3F360",
") 	c #FBFA63",
"! 	c #F9F862",
"~ 	c #F3F25F",
"{ 	c #F4F35F",
"] 	c #FBFA62",
"^ 	c #E8E75A",
"/ 	c #6B6C2C",
"( 	c #383917",
"_ 	c #4F4F1E",
": 	c #5B5C26",
"< 	c #76762F",
"[ 	c #68682A",
"} 	c #AFAF45",
"| 	c #FDFC63",
"1 	c #CDCB4E",
"2 	c #888836",
"3 	c #1B1B0B",
"4 	c #000000",
"5 	c #2E2C10",
"6 	c #97973A",
"7 	c #DEDB54",
"8 	c #F5F560",
"9 	c #676929",
"0 	c #323112",
"a 	c #C5C44D",
"b 	c #EEEC5C",
"c 	c #E0DF57",
"d 	c #8A8936",
"e 	c #0F0F06",
"f 	c #9D9B3B",
"g 	c #F3F35F",
"h 	c #585822",
"i 	c #FEFD64",
"j 	c #CECF52",
"k 	c #22230E",
"l 	c #636225",
"m 	c #FCFB62",
"n 	c #75742B",
"o 	c #818132",
"p 	c #F7F660",
"q 	c #626224",
"r 	c #96963B",
"s 	c #C8C74D",
"t 	c #1C1B0A",
"u 	c #393916",
"v 	c #DCDC56",
"w 	c #D2D152",
"x 	c #939338",
"y 	c #E2E259",
"z 	c #343415",
"A 	c #010200",
"B 	c #52551F",
"C 	c #E3E159",
"D 	c #F8F761",
"E 	c #E3E157",
"F 	c #B8B84A",
"G 	c #18190A",
"H 	c #010100",
"I 	c #1D1D0C",
"J 	c #909038",
"K 	c #E9E75B",
"L 	c #B5B547",
"M 	c #393816",
"N 	c #040402",
"O 	c #070703",
"P 	c #45451A",
"Q 	c #D1D051",
"R 	c #FEFD63",
"S 	c #F7F761",
"T 	c #98993D",
"U 	c #262610",
"V 	c #1D1D0B",
"W 	c #BABA47",
"X 	c #F9F861",
"Y 	c #C8C74F",
"Z 	c #3A3A18",
"` 	c #383916",
" .	c #A9A942",
"..	c #E8E65A",
"+.	c #CDCC4F",
"@.	c #0D0D05",
"#.	c #EBEB5B",
"$.	c #7D7D2F",
"%.	c #8F8F36",
"&.	c #F6F660",
"*.	c #121207",
"=.	c #090904",
"-.	c #98983A",
";.	c #1A1A0B",
">.	c #C7C74E",
",.	c #BABA48",
"'.	c #0A0A04",
").	c #5B5E26",
"!.	c #F6F560",
"~.	c #5F5F24",
"{.	c #939138",
"].	c #B6B547",
"^.	c #373815",
"/.	c #555420",
"(.	c #838435",
"_.	c #9A9C3C",
":.	c #7B792D",
"<.	c #373615",
"[.	c #696926",
"}.	c #E6E559",
"|.	c #E5E359",
"1.	c #B8B749",
"2.	c #2D2D13",
"3.	c #4A491C",
"4.	c #C6C54D",
"5.	c #E9E85C",
"6.	c #E1E058",
"7.	c #F0EF5D",
"8.	c #C8C84F",
"9.	c #ADAD44",
"0.	c #ABAB43",
"a.	c #C7C54D",
"b.	c #F6F561",
"c.	c #E1E057",
"d.	c #BDBC4A",
"e.	c #A8A842",
"f.	c #C1C04C",
"g.	c #EBE95B",
"h.	c #4A4A1D",
"i.	c #CECD51",
"j.	c #94933A",
"k.	c #8D8D8D",
"l.	c #D6D6D6",
". . . . . . . . . . . . . . . . . . . . . . . . . . . . . . . . . . . . . . . . . . . . . . . . . . ",
"+ + + + + + + + + + + + + + + + + + + + + + + + + + + + + + + + + + + + + + + + + + + + + + + + + @ ",
"# $ $ $ $ $ $ $ $ $ $ $ $ $ $ $ $ $ $ $ $ $ $ $ $ $ $ $ $ $ $ $ $ $ $ $ $ $ $ $ $ $ $ $ $ $ $ $ % & ",
"* = = = = = = = = = = = = = = = = = = = = = = = = = = = = = = = = = = = = = = = = = = = = = = = - & ",
"* = = = = = = = = = = = = = = = = = = = = = = = = = = = = = = = = = = = = = = = = = = = = = = = - & ",
"* = = = = = = = = = = = = = = = = = = = = = = = = = = = = = = = = = = = = = = = = = = = = = = = - & ",
"* = = = = = = = = = = = = = = = = = = = = = = = = = = = = = = = = = = = = = = = = = = = = = = = - & ",
"* = = = = = = = = = = = = = = = = = = = = = = = = = = = = = = = = = = = = = = = = = = = = = = = - & ",
"* = = = = = = = = = = = = = = = = = ; > , ' ) ; ; = = ! ~ , , , { ] = = = = = = = = = = = = = = - & ",
"* = = = = = = = = = = = = = = = = ^ / ( _ : < [ } = | 1 2 3 4 5 6 7 = = = = = = = = = = = = = = - & ",
"* = = = = = = = = = = = = = = = 8 9 0 a b c d e f = = = g h 4 d i = = = = = = = = = = = = = = = - & ",
"* = = = = = = = = = = = = = = = j k l m = = = n o = = = p q 4 r = = = = = = = = = = = = = = = = - & ",
"* = = = = = = = = = = = = = = = s t u v = = = w x = = = p q 4 r = = = = = = = = = = = = = = = = - & ",
"* = = = = = = = = = = = = = = = y z A B C = = D E = = = p q 4 r = = = = = = = = = = = = = = = = - & ",
"* = = = = = = = = = = = = = = = i F G H I J K = = = = = p q 4 r = = = = = = = = = = = = = = = = - & ",
"* = = = = = = = = = = = = = = = = | L M N O P Q R = = = p q 4 r = = = = = = = = = = = = = = = = - & ",
"* = = = = = = = = = = = = = = = = = = S T U 4 V W = = = p q 4 r = = = = = = = = = = = = = = = = - & ",
"* = = = = = = = = = = = = = = = X i = = | Y Z H ` R = = p q 4 r = = = = = = = = = = = = = = = = - & ",
"* = = = = = = = = = = = = = = =  ...= = = = +.@.4 #.= = p q 4 r = = = = = = = = = = = = = = = = - & ",
"* = = = = = = = = = = = = = = = $.%.= = = = &.*.=.g = = p q 4 r = = = = = = = = = = = = = = = = - & ",
"* = = = = = = = = = = = = = = = -.;.>.= = = ,.'.).= = = !.~.4 {.= = = = = = = = = = = = = = = = - & ",
"* = = = = = = = = = = = = = = = ].^./.(._.:.<.[.}.= i |.1.2.4 3.4.b = = = = = = = = = = = = = = - & ",
"* = = = = = = = = = = = = = = = 5.6.7.8.9.0.a.b.= = i c.d.e.e.e.f.g.= = = = = = = = = = = = = = - & ",
"* = = = = = = = = = = = = = = = = = = = = = = = = = = = = = = = = = = = = = = = = = = = = = = = - & ",
"* = = = = = = = = = = = = = = = = = = = = = = = = = = = = = = = = = = = = = = = = = = = = = = = - & ",
"* = = = = = = = = = = = = = = = = = = = = = = = = = = = = = = = = = = = = = = = = = = = = = = = - & ",
"h.i.i.i.i.i.i.i.i.i.i.i.i.i.i.i.i.i.i.i.i.i.i.i.i.i.i.i.i.i.i.i.i.i.i.i.i.i.i.i.i.i.i.i.i.i.i.i.j.& ",
"k.k.k.k.k.k.k.k.k.k.k.k.k.k.k.k.k.k.k.k.k.k.k.k.k.k.k.k.k.k.k.k.k.k.k.k.k.k.k.k.k.k.k.k.k.k.k.k.k.l.",
". . . . . . . . . . . . . . . . . . . . . . . . . . . . . . . . . . . . . . . . . . . . . . . . . . ",
". . . . . . . . . . . . . . . . . . . . . . . . . . . . . . . . . . . . . . . . . . . . . . . . . . "};
