/* XPM */
static char * support_xpm[] = {
"76 45 434 2",
"  	c None",
". 	c #FFFFFF",
"+ 	c #FEFEFE",
"@ 	c #F9F9F9",
"# 	c #F4F4F4",
"$ 	c #F2F2F2",
"% 	c #F3F3F3",
"& 	c #F6F6F6",
"* 	c #FAFAFA",
"= 	c #F5F5F5",
"- 	c #FCFCFC",
"; 	c #F8F8F8",
"> 	c #EFEFEF",
", 	c #E5E5E5",
"' 	c #DDDDDD",
") 	c #D6D6D6",
"! 	c #D2D2D2",
"~ 	c #D3D3D3",
"{ 	c #D9D9D9",
"] 	c #E1E1E1",
"^ 	c #E9E9E9",
"/ 	c #FDFDFD",
"( 	c #C8C8C8",
"_ 	c #AFAFAF",
": 	c #9D9D9D",
"< 	c #939393",
"[ 	c #898989",
"} 	c #7E7E7E",
"| 	c #737373",
"1 	c #686868",
"2 	c #5F5F5F",
"3 	c #616161",
"4 	c #6D6D6D",
"5 	c #777777",
"6 	c #838383",
"7 	c #8D8D8D",
"8 	c #989898",
"9 	c #A4A4A4",
"0 	c #BABABA",
"a 	c #D7D7D7",
"b 	c #B9B9B9",
"c 	c #999999",
"d 	c #4D4D4D",
"e 	c #272727",
"f 	c #0B0B0B",
"g 	c #010101",
"h 	c #000000",
"i 	c #030303",
"j 	c #151515",
"k 	c #373737",
"l 	c #5E5E5E",
"m 	c #848484",
"n 	c #A1A1A1",
"o 	c #BFBFBF",
"p 	c #DCDCDC",
"q 	c #ACACAC",
"r 	c #646464",
"s 	c #2D2D2D",
"t 	c #040404",
"u 	c #363636",
"v 	c #8C8C8C",
"w 	c #C4C4C4",
"x 	c #E8E8E8",
"y 	c #C1C1C1",
"z 	c #6E6E6E",
"A 	c #1C1C1C",
"B 	c #3C3C3C",
"C 	c #C5C5C5",
"D 	c #424242",
"E 	c #0A0A0A",
"F 	c #E4E4E4",
"G 	c #A0A0A0",
"H 	c #444444",
"I 	c #C3C3C3",
"J 	c #F7F7F7",
"K 	c #B4B4B4",
"L 	c #1F1F1F",
"M 	c #656565",
"N 	c #ECECEC",
"O 	c #1E1E1E",
"P 	c #050505",
"Q 	c #101010",
"R 	c #5A5A5A",
"S 	c #CECECE",
"T 	c #FBFBFB",
"U 	c #191919",
"V 	c #080808",
"W 	c #020202",
"X 	c #060606",
"Y 	c #090909",
"Z 	c #393939",
"` 	c #A9A9A9",
" .	c #EDEDED",
"..	c #E3E3E3",
"+.	c #A7A7A7",
"@.	c #868686",
"#.	c #919191",
"$.	c #0F0F0F",
"%.	c #2C2C2C",
"&.	c #676767",
"*.	c #A3A3A3",
"=.	c #797979",
"-.	c #BCBCBC",
";.	c #878787",
">.	c #262626",
",.	c #9A9A9A",
"'.	c #EEEEEE",
").	c #CBCBCB",
"!.	c #6A6A6A",
"~.	c #515151",
"{.	c #3E3E3E",
"].	c #111111",
"^.	c #222222",
"/.	c #343434",
"(.	c #454545",
"_.	c #585858",
":.	c #717171",
"<.	c #AAAAAA",
"[.	c #EBEBEB",
"}.	c #595959",
"|.	c #121212",
"1.	c #0C0C0C",
"2.	c #181818",
"3.	c #464646",
"4.	c #9B9B9B",
"5.	c #F0F0F0",
"6.	c #F1F1F1",
"7.	c #C0C0C0",
"8.	c #7A7A7A",
"9.	c #2A2A2A",
"0.	c #141414",
"a.	c #2B2B2B",
"b.	c #070707",
"c.	c #1A1A1A",
"d.	c #1D1D1D",
"e.	c #6F6F6F",
"f.	c #8B8B8B",
"g.	c #C6C6C6",
"h.	c #D4D4D4",
"i.	c #DBDBDB",
"j.	c #BEBEBE",
"k.	c #ADADAD",
"l.	c #818181",
"m.	c #202020",
"n.	c #171717",
"o.	c #0E0E0E",
"p.	c #242424",
"q.	c #232323",
"r.	c #212121",
"s.	c #1B1B1B",
"t.	c #131313",
"u.	c #888888",
"v.	c #B5B5B5",
"w.	c #9E9E9E",
"x.	c #565656",
"y.	c #959595",
"z.	c #707070",
"A.	c #3B3B3B",
"B.	c #535353",
"C.	c #B6B6B6",
"D.	c #292929",
"E.	c #333333",
"F.	c #4E4E4E",
"G.	c #8A8A8A",
"H.	c #C7C7C7",
"I.	c #9C9C9C",
"J.	c #747474",
"K.	c #575757",
"L.	c #2F2F2F",
"M.	c #0D0D0D",
"N.	c #161616",
"O.	c #323232",
"P.	c #474747",
"Q.	c #858585",
"R.	c #D8D8D8",
"S.	c #5D5D5D",
"T.	c #606060",
"U.	c #B2B2B2",
"V.	c #FDFBFF",
"W.	c #F7EDFE",
"X.	c #F4E6FD",
"Y.	c #F4E5FD",
"Z.	c #F6E9FE",
"`.	c #FCF7FE",
" +	c #F8EEFE",
".+	c #F7ECFE",
"++	c #FDF9FF",
"@+	c #F8EFFE",
"#+	c #F6E9FD",
"$+	c #FDFAFF",
"%+	c #FFFEFF",
"&+	c #FBF5FE",
"*+	c #F3E4FD",
"=+	c #F4E4FD",
"-+	c #F6EAFE",
";+	c #F5E7FD",
">+	c #FAF2FE",
",+	c #FEFEFF",
"'+	c #FEFCFF",
")+	c #FAF3FE",
"!+	c #F5E8FD",
"~+	c #F5E9FE",
"{+	c #FAF4FE",
"]+	c #FBF7FE",
"^+	c #EDD4FC",
"/+	c #C06BF5",
"(+	c #AB3BF2",
"_+	c #A936F2",
":+	c #B755F4",
"<+	c #E5C2FB",
"[+	c #F0DCFD",
"}+	c #C26FF5",
"|+	c #BC63F5",
"1+	c #ECD2FC",
"2+	c #F0DDFD",
"3+	c #C577F6",
"4+	c #B249F3",
"5+	c #EED7FC",
"6+	c #FBF6FE",
"7+	c #DCAEFA",
"8+	c #A020F0",
"9+	c #A52CF1",
"0+	c #A62EF1",
"a+	c #B24BF3",
"b+	c #E8C9FC",
"c+	c #FCF9FF",
"d+	c #EACEFC",
"e+	c #B655F4",
"f+	c #A328F1",
"g+	c #A62DF1",
"h+	c #AD3FF2",
"i+	c #D192F8",
"j+	c #F2E1FD",
"k+	c #D194F7",
"l+	c #B149F3",
"m+	c #A936F1",
"n+	c #AF43F2",
"o+	c #D091F8",
"p+	c #A731F1",
"q+	c #AD3EF2",
"r+	c #D9A6F9",
"s+	c #DEB2FA",
"t+	c #BA5DF4",
"u+	c #A52BF1",
"v+	c #A224F0",
"w+	c #A326F0",
"x+	c #B654F4",
"y+	c #DBA9F9",
"z+	c #DEB1FA",
"A+	c #B44EF3",
"B+	c #A834F1",
"C+	c #BF69F5",
"D+	c #BA5DF5",
"E+	c #E0B7FB",
"F+	c #EDD5FC",
"G+	c #E2BCFA",
"H+	c #F2E0FD",
"I+	c #E7C6FB",
"J+	c #BA5CF4",
"K+	c #C474F6",
"L+	c #EBCFFC",
"M+	c #B95CF4",
"N+	c #B654F3",
"O+	c #F9F1FE",
"P+	c #CE8BF7",
"Q+	c #E5C1FB",
"R+	c #E3BDFA",
"S+	c #A935F1",
"T+	c #C578F6",
"U+	c #DFB3FA",
"V+	c #B148F3",
"W+	c #CB84F7",
"X+	c #E5C0FB",
"Y+	c #C16EF5",
"Z+	c #B450F3",
"`+	c #D7A1F8",
" @	c #CE8CF7",
".@	c #AB39F2",
"+@	c #CA82F6",
"@@	c #DEB4FA",
"#@	c #E9CBFC",
"$@	c #CC87F7",
"%@	c #E6C4FB",
"&@	c #BD64F4",
"*@	c #E9CBFB",
"=@	c #F7ECFD",
"-@	c #DDAEF9",
";@	c #C16DF5",
">@	c #F7EDFD",
",@	c #E5C3FB",
"'@	c #B046F3",
")@	c #BD65F5",
"!@	c #EED8FD",
"~@	c #EBD0FC",
"{@	c #DEB2F9",
"]@	c #FEFDFF",
"^@	c #AF45F3",
"/@	c #AA38F2",
"(@	c #CF8FF7",
"_@	c #EFDAFD",
":@	c #FCF8FF",
"<@	c #B34DF3",
"[@	c #CC86F7",
"}@	c #BF67F5",
"|@	c #A225F0",
"1@	c #F6EBFE",
"2@	c #FBF7FF",
"3@	c #AC3CF2",
"4@	c #D398F8",
"5@	c #AB3AF2",
"6@	c #D69EF8",
"7@	c #FAF4FF",
"8@	c #B24AF3",
"9@	c #C373F5",
"0@	c #B552F3",
"a@	c #C16CF5",
"b@	c #EFD8FC",
"c@	c #A327F0",
"d@	c #C87FF6",
"e@	c #D9A4F9",
"f@	c #EACCFC",
"g@	c #C77BF6",
"h@	c #F1DFFD",
"i@	c #DBABF9",
"j@	c #B147F3",
"k@	c #E4C1FB",
"l@	c #A52DF1",
"m@	c #B550F3",
"n@	c #DEB3FA",
"o@	c #D69EF9",
"p@	c #AB3AF1",
"q@	c #A730F1",
"r@	c #D399F8",
"s@	c #D59DF8",
"t@	c #B34CF3",
"u@	c #D49AF8",
"v@	c #DFB4FA",
"w@	c #CC88F7",
"x@	c #A832F1",
"y@	c #E3BDFB",
"z@	c #A934F1",
"A@	c #D296F8",
"B@	c #C87DF7",
"C@	c #AA36F2",
"D@	c #DCABF9",
"E@	c #C06CF5",
"F@	c #BC61F4",
"G@	c #C87EF6",
"H@	c #D193F8",
"I@	c #EDD7FC",
"J@	c #A428F1",
"K@	c #CD88F7",
"L@	c #C980F6",
"M@	c #A328F0",
"N@	c #A62FF1",
"O@	c #EBD1FC",
"P@	c #D397F8",
"Q@	c #B046F2",
"R@	c #C576F6",
"S@	c #A429F1",
"T@	c #AE40F2",
"U@	c #EACEFB",
"V@	c #DAA8F9",
"W@	c #BD63F4",
"X@	c #DCADF9",
"Y@	c #D49BF8",
"Z@	c #AE41F2",
"`@	c #DAA9F9",
" #	c #A227F0",
".#	c #A123F0",
"+#	c #A124F0",
"@#	c #A833F1",
"##	c #D8A4F9",
"$#	c #DAA7F9",
"%#	c #E1BAFA",
"&#	c #B859F3",
"*#	c #E8CAFB",
"=#	c #B249F2",
"-#	c #CD89F7",
";#	c #E2BBFA",
">#	c #E1B9FB",
",#	c #F0DBFD",
"'#	c #C475F6",
")#	c #EFDAFC",
"!#	c #AD3DF2",
"~#	c #CB85F7",
"{#	c #B757F3",
"]#	c #B857F4",
"^#	c #C26EF5",
"/#	c #E6C3FB",
"(#	c #F3E3FD",
"_#	c #B756F4",
":#	c #D8A2F9",
"<#	c #EACDFC",
"[#	c #E1B8FA",
"}#	c #BB5FF4",
"|#	c #F9F0FE",
"1#	c #B859F4",
"2#	c #D59CF9",
"3#	c #DDAEFA",
"4#	c #C373F6",
"5#	c #E0B7FA",
"6#	c #EFD8FD",
"7#	c #D49AF9",
"8#	c #A42AF1",
"9#	c #D8A5F9",
"0#	c #B959F4",
"a#	c #BF6AF5",
"b#	c #E6C5FB",
"c#	c #BF68F5",
"d#	c #AC3DF2",
"e#	c #B045F2",
"f#	c #BE67F4",
"g#	c #E1B9FA",
"h#	c #D7A2F9",
"i#	c #E7C7FB",
"j#	c #C77CF6",
"k#	c #B147F2",
"l#	c #B756F3",
"m#	c #C97FF6",
"n#	c #EFD9FC",
"o#	c #C679F6",
"p#	c #BC62F4",
"q#	c #F1DDFD",
"r#	c #E9CDFC",
"s#	c #EACFFC",
"t#	c #F1DEFD",
"u#	c #FDFCFF",
"v#	c #F5E8FE",
"w#	c #F3E2FD",
"x#	c #ECD3FC",
"y#	c #FCF8FE",
"z#	c #E9CCFC",
"A#	c #F2E2FD",
". . . . . . . . . . . . . . . . . . . . . . . . . . . . . . . . + @ # $ % & * @ # % % = * . . . . . . . . . . . . . . . . . . . . . . . . . . . . . . . ",
". . . . . . . . . . . . . . . . . . . . . . . . . . . . * - . . . ; > , ' ) ! ~ { ] ^ % - . . + * / . . . . . . . . . . . . . . . . . . . . . . . . . . ",
". . . . . . . . . . . . . . . . . . . . . . . . . / . + # ' ( _ : < [ } | 1 2 3 4 5 6 7 8 9 0 ! , * . - + . . . . . . . . . . . . . . . . . . . . . . . ",
". . . . . . . . . . . . . . . . . . . . . . + + / = a b c | d e f g h h h h h h h h h h i j k l m n o ^ - / + . . . . . . . . . . . . . . . . . . . . . ",
". . . . . . . . . . . . . . . . . . . . . + / & p q r s g h h h h h h h h h h h h h h h h h h h h t u v w x * . . . . . . . . . . . . . . . . . . . . . ",
". . . . . . . . . . . . . . . . . . . . . / > y z A h h h h h h h h h h h h h h h h h h h h h h h h h i B < ' * + . . . . . . . . . . . . . . . . . . . ",
". . . . . . . . . . . . . . . . . . . . + - C D h h h h h h h h h h h h h h h h h h h h h h h h h h h h h E m F / . . . . . . . . . . . . . . . . . . . ",
". . . . . . . . . . . . . . . . . . . . @ $ G i h h h h h h h h h h h h h h h h h h h h h h h h h h h h h h H I . . . . . . . . . . . . . . . . . . . . ",
". . . . . . . . . . . . . . . . . . . . * J K L g h h h h h h h h h h h h h h h h h h h h h h h h h h h h f M ~ + . . . . . . . . . . . . . . . . . . . ",
". . . . . . . . . . . . . . . . . . . . * ; N c O f g h h h h h h h h h h h h h h h h h h h h h h h h P Q R S @ T . . . . . . . . . . . . . . . . . . . ",
". . . . . . . . . . . . . . . . . . . . @ # & & p 5 U V t g h h h h h h h h h h h h h h h h h h W X Y Z `  .% ; . . . . . . . . . . . . . . . . . . . . ",
". . . . . . . . . . . . . . . . . . . . @ ..+.@.N / N #.d $.i W g g g g h h h h h h g g g g W P %.&.*.> @ S =.-.. . . . . . . . . . . . . . . . . . . . ",
". . . . . . . . . . . . . . . . . . . . @ ..;.P >.,.'.T @ = ).#.!.~.{.s A E h t ].^./.(._.:.<.[.; * T F }.|.s K . . . . . . . . . . . . . . . . . . . . ",
". . . . . . . . . . . . . . . . . . . . @ ..@.h W 1.2.3.4.) N = # $ 5.>  .N x x  .'.> 6.$ # % , 7.8.9.0.X g a.K . . . . . . . . . . . . . . . . . . . . ",
". . . . . . . . . . . . . . . . . . . . @ ..@.h h h g b.|.c.d.D e.f.G K g.h.i.{ S j.k.8 l.2 m.A n.o.i h h h a.K . . . . . . . . . . . . . . . . . . . . ",
". . . . . . . . . . . . . . . . . . . . @ ..@.h h h h h h h h b.$.0.2.A m.^.p.q.r.O s.n.t.1.h h h h h h h h a.K . . . . . . . . . . . . . . . . . . . . ",
". . . . . . . . . . . . . . . . . . . . @ ..@.h h h h h h h h h h h h h h h h h h h h h h h h h h h h h h h a.K . . . . . . . . . . . . . . . . . . . . ",
". . . . . . . . . . . . . . . . . . . . @ ..@.h h h h h h h h h h h h h h h h h h h h h h h h h h h h h h h a.K . . . . . . . . . . . . . . . . . . . . ",
". . . . . . . . . . . . . . . . . . . . @ ..@.h h h h h h h h h h h h h h h h h h h h h h h h h h h h h h h a.K . . . . . . . . . . . . . . . . . . . . ",
". . . . . . . . . . . . . . . . . . . . @ ..@.h h h h h h h h h h h h h h h h h h h h h h h h h h h h h h h a.K . . . . . . . . . . . . . . . . . . . . ",
". . . . . . . . . . . . . . . . . . . . @ ..@.h h h h h h h h h h h h h h h h h h h h h h h h h h h h h h h a.K . . . . . . . . . . . . . . . . . . . . ",
". . . . . . . . . . . . . . . . . . . . @ F u.h h h h h h h h h h h h h h h h h h h h h h h h h h h h h h h s v.. . . . . . . . . . . . . . . . . . . . ",
". . . . . . . . . . . . . . . . . . . . T 5.w.f h h h h h h h h h h h h h h h h h h h h h h h h h h h h h h 3.C . . . . . . . . . . . . . . . . . . . . ",
". . . . . . . . . . . . . . . . . . . . + - S x.E h h h h h h h h h h h h h h h h h h h h h h h h h h h g %.y., / . . . . . . . . . . . . . . . . . . . ",
". . . . . . . . . . . . . . . . . . . . . . & ( z.A.f h h h h h h h h h h h h h h h h h h h h h h h h O B.w...* / . . . . . . . . . . . . . . . . . . . ",
". . . . . . . . . . . . . . . . . . . . . . . / '.C.z D D.].W h h h h h h h h h h h h h h h h t s.E.F.G.h.; T / . . . . . . . . . . . . . . . . . . . . ",
". . . . . . . . . . . . . . . . . . . . . . . + T + # H.I.J.K.{.L.>.m.c.t.M.V Y Q N.A q.D.O.P.l Q.k.R.@ * / . . . . . . . . . . . . . . . . . . . . . . ",
". . . . . . . . . . . . . . . . . . . . . . . . . + @ + . . & ( q 4.7 l.J.&.S.T.4 8.@.< G U.{ / . . ; + . . . . . . . . . . . . . . . . . . . . . . . . ",
". . . . . . . . . . . . . . . . . . . . . . . . . . . . . . J * + . . . . . . . . . . . . + ; / . . . . . . . . . . . . . . . . . . . . . . . . . . . . ",
". . . . . . . . . . . . . . . . . . . . . . . . . . . . . . . . . . . . . . . . . . . . . . . . . . . . . . . . . . . . . . . . . . . . . . . . . . . . ",
". . . . . . . . . . . . . . . . . . . . . . . . . . . . . . . . . . . . . . . . . . . . . . . . . . . . . . . . . . . . . . . . . . . . . . . . . . . . ",
". . . . . . . . . . . . V.W.X.Y.Z.`.V. +.+++V.@+#+$+%+&+*+*+=+Z.++%+++-+*+*+;+>+,+'+)+!+Y.;+)+. %+X.*+*+;+&+&+-+*+*+*+*+~+{+]+Z.=+Y..+%+. . . . . . . . ",
". . . . . . . . . . . . ^+/+(+_+:+<+[+}+|+1+2+3+4+5+6+7+8+9+0+a+b+c+d+e+f+g+h+i+W.j+k+l+m+n+o+c+>+p+f+0+q+r+s+t+u+v+w+0+x+y+z+A+B+(+C+V.. . . . . . . . ",
". . . . . . . . . . . . D+l+E+F+G+H+I+J+K+Z.L+M+N+6+O+P+v+Q+R+S+T+*+U+V+W+X+Y+Z+`+ @.@P+L++@9+@@#@0+$@%@4+&@*@=@-@Z+;@5+>@,@'@)@!@~@{@]@. . . . . . . . ",
". . . . . . . . . . . . ^@/@(@_@:@. s+<@[@]@<+l+/+. .+}@|@1@2@3@;@H+4@5@6@7@ @8@9@0@a@:@]@b@c@d@e@u+z+f@4+g@h@. i@j@[@]@. k@l@m@n@@+%+. . . . . . . . . ",
". . . . . . . . . . . . o@p@c@q@r@1@s@t@u@%+v@5@w@. ;+'@x@c+y@z@A@W.B@C@D@5+E@F@G@n+H@. ]@I@J@K@L@M@N@u+F@O@'+. P@Q@u@. . h@R@w+S@T@U@,+. . . . . . . . ",
". . . . . . . . . . . . 6+H+V@n+W@L+P+t@X@O+Y@Z@`@%+h@ #.#q+p+|+[+++)@+#@#_+<@`@##q+P@. )+$#9+%#J+5@v@&#Q@*#. V.W+=#-@. . '+@+L+K@S@-#'+. . . . . . . . ",
". . . . . . . . . . . ;#>#,#>#l+'#)# @!#~#$#{#]#h@:@<+w+^#/#1+!+V.(#_#0@:#<#h@{+;#8@&@1+[#<@}#|#.@1#Y.2#3@3#]+!+4#1#,@. X.5#,@6#7#8###]@. . . . . . . . ",
". . . . . . . . . . . 9#0#V+l+a#b#:@I+c#d#e#f#g#V.O+h#u+X@`.'+. . i#a+j#)#V.,+. 1@h#A+k#l#m#n#Y.f+o# +<#'@K@Y.1+p#/+5+. q#[@<@j@Z+L@W.. . . . . . . . . ",
". . . . . . . . . . . #+^+r#s#t#&+. &+t#d+s#q#{+. u#v#d+@+. . . . O+F+w#:@. . . ]@ +F+<#x#Y.'+y#z#j+V.&+F+A#:@)+)#q#]+. `.j+~@z#1+X.. . . . . . . . . . ",
". . . . . . . . . . . . . . . . . . . . . . . . . . . . . . . . . . . . . . . . . . . . . . . . . . . . . . . . . . . . . . . . . . . . . . . . . . . . ",
". . . . . . . . . . . . . . . . . . . . . . . . . . . . . . . . . . . . . . . . . . . . . . . . . . . . . . . . . . . . . . . . . . . . . . . . . . . . ",
". . . . . . . . . . . . . . . . . . . . . . . . . . . . . . . . . . . . . . . . . . . . . . . . . . . . . . . . . . . . . . . . . . . . . . . . . . . . ",
". . . . . . . . . . . . . . . . . . . . . . . . . . . . . . . . . . . . . . . . . . . . . . . . . . . . . . . . . . . . . . . . . . . . . . . . . . . . ",
". . . . . . . . . . . . . . . . . . . . . . . . . . . . . . . . . . . . . . . . . . . . . . . . . . . . . . . . . . . . . . . . . . . . . . . . . . . . "};
