/* XPM */
static char * jackson_machine_domain_xpm[] = {
"22 22 3 1",
" 	c None",
".	c #000000",
"+	c #FFFFFF",
"                      ",
"                      ",
"                      ",
"                      ",
"                      ",
"   ................   ",
"   .+.+.++++++++++.   ",
"   .+.+.++++++++++.   ",
"   .+.+.++++++++++.   ",
"   .+.+.++++++++++.   ",
"   .+.+.++++++++++.   ",
"   .+.+.++++++++++.   ",
"   .+.+.++++++++++.   ",
"   .+.+.++++++++++.   ",
"   .+.+.++++++++++.   ",
"   .+.+.++++++++++.   ",
"   ................   ",
"                      ",
"                      ",
"                      ",
"                      ",
"                      "};
