/* XPM */
static char * jackson_req_phen_xpm[] = {
"22 22 3 1",
" 	c None",
".	c white",
"X	c black",
"                      ",
"                      ",
"                      ",
"                      ",
"                      ",
"                      ",
"                      ",
"                      ",
"                 X    ",
"                 XX   ",
" XX XX XX XX XX XXXX  ",
" XX XX XX XX XX XXXX  ",
"                 XX   ",
"                 X    ",
"                      ",
"                      ",
"                      ",
"                      ",
"                      ",
"                      ",
"                      ",
"                      "};
