/* XPM */
static char * dat_external_xpm[] = {
"22 22 6 1",
" 	c None",
".	c #000000",
"+	c #E7E7DF",
"@	c #A7A7A7",
"#	c #6B6B6B",
"$	c #878787",
"                      ",
"  ..................  ",
" .++++++++++++++++++. ",
" .+@@@@@@@@@@@@@@@@+. ",
" .+@##############@+. ",
" .+@##############@+. ",
" .+@##############@+. ",
" .+@@@@@@@@@@@@@@@@+. ",
" .+@$$@@@@@@@@@$$$@+. ",
" .+@@@@@@@@@@@@@@@@+. ",
" .++++++++++++++++++. ",
" .@@@@@@@@@@@@@@@@@@. ",
" .++++++++++++++++++. ",
" .++++++++++++++++++. ",
" .++++++++++++++++++. ",
" .++++++++++++++@@@+. ",
" .++++++++++++++@#@+. ",
" .++++++++++++++@@@+. ",
" .++++++++++++++++++. ",
" .++++++++++++++++++. ",
"  ..................  ",
"                      "};
