/* XPM */
static char * diskette_xpm[] = {
"22 22 5 1",
" 	c None",
".	c #000000",
"+	c #353535",
"@	c #FFFFFF",
"#	c #A7A7A7",
"                      ",
"  ..................  ",
" .++@@@@@@@@@@@@@@++. ",
" .@+@@@@@@@@@@@@@@+@. ",
" .++@@@@@@@@@@@@@@++. ",
" .++@++++++++++++@++. ",
" .++@@@@@@@@@@@@@@++. ",
" .++@@@@@@@@@@@@@@++. ",
" .++@++++++++++++@++. ",
" .++@@@@@@@@@@@@@@++. ",
" .++@@@@@@@@@@@@@@++. ",
" .++@++++++++++++@++. ",
" .++@@@@@@@@@@@@@@++. ",
" .++@@@@@@@@@@@@@@++. ",
" .++++++++++++++++++. ",
" .+++########+++++++. ",
" .+++#++#####+++++++. ",
" .+++#++#####+++++++. ",
" .+++#++#####+++++++. ",
"  .++########+++++++. ",
"   .................  ",
"                      "};
