/* XPM */
static char * mobile_phone_xpm[] = {
"22 22 4 1",
" 	c None",
".	c #000000",
"+	c #444484",
"@	c #B7C691",
"             ..       ",
"      ..........      ",
"     ..++++++++..     ",
"     .++++++++++.     ",
"     .++++++++++.     ",
"     .++@@@@@@++.     ",
"     .++@@@@@@++.     ",
"     .++@@@@@@++.     ",
"     .++@@@@@@++.     ",
"     .++++++++++.     ",
"     .++++++++++.     ",
"     .+..+..+..+.     ",
"     .+..+..+..+.     ",
"     .++++++++++.     ",
"     .+..+..+..+.     ",
"     .+..+..+..+.     ",
"     .++++++++++.     ",
"     .+..+..+..+.     ",
"     .+..+..+..+.     ",
"     .++++++++++.     ",
"     ..++++++++..     ",
"      ..........      "};
