/* XPM */
static char * mobile_phone_xpm[] = {
"22 22 5 1",
" 	c None",
".	c #000000",
"+	c #000077",
"@	c #90EE90",
"#	c #BFBFBF",
"      ..........      ",
"     ..++++++++..     ",
"     .++++++++++.     ",
"     .++++++++++.     ",
"     .++@@@@@@++.     ",
"     .++@@@@@@++.     ",
"     .++@@@@@@++.     ",
"     .++@@@@@@++.     ",
"     .++++++++++.     ",
"     .+###++###+.     ",
"     .++++++++++.     ",
"     .+##+##+##+.     ",
"     .++++++++++.     ",
"     .+##+##+##+.     ",
"     .++++++++++.     ",
"     .+##+##+##+.     ",
"     .++++++++++.     ",
"     .+##+##+##+.     ",
"     .++++++++++.     ",
"     .++++++++++.     ",
"     ..++++++++..     ",
"      ..........      "};
