/* XPM */
static char * nwc_outline_xpm[] = {
"22 22 3 1",
" 	c None",
".	c black",
"X	c white",
"                      ",
"                      ",
"     ...              ",
"   ..XXX..    ...     ",
"   ..XXX..  .......   ",
"  ..XXXXX....XXXX..   ",
"  ..XXXXX...XXXX..    ",
"   ...XXX.XXXX.....   ",
"    ..XXXXXXXXXX....  ",
"  ...XXXXXXXXXXXXXX.  ",
" .XXXXXXXXXXXXXX....  ",
" .XXXXXXXXXXXXXXX..   ",
" .XXXXXXXXX..XXXXX..  ",
" .XX.XXXXXX..XXXXX..  ",
"  ...XXXXX....XXX..   ",
"   ..XXXXX.. .....    ",
"  ..XXXXXX..  ...     ",
"   ..XXX...           ",
"    ......            ",
"     ...              ",
"                      ",
"                      "};
