/* XPM */
static char *patch[]={
"22 22 3 1",
". c None",
"# c #000000",
"a c #ffffff",
"......................",
"......................",
"......................",
"......................",
"......................",
"......................",
"......................",
".####################.",
".#aaaaaaaaaaaaaaaaaa#.",
".#a##aa##aa##aa##aa##.",
".#a##aa##aa##aa##aa##.",
".#aaaaaaaaaaaaaaaaaa#.",
".####################.",
"......................",
"......................",
"......................",
"......................",
"......................",
"......................",
"......................",
"......................",
"......................"};
