/* XPM */
static char * pc_bigtower_xpm[] = {
"22 22 5 1",
" 	c None",
".	c #000000",
"+	c #E7E7DF",
"@	c #7F7F7F",
"#	c #A7A7A7",
"                      ",
"        .......       ",
"       .+++++++.      ",
"       .+@@@@@+.      ",
"       .+@###@+.      ",
"       .+@@@@@+.      ",
"       .+@###@+.      ",
"       .+@@@@@+.      ",
"       .+@###@+.      ",
"       .+@@@@@+.      ",
"       .+@@@@@+.      ",
"       .+++++++.      ",
"       .+@@@@++.      ",
"       .+@@@@++.      ",
"       .+++++++.      ",
"       .+@+@+@+.      ",
"       .+++++++.      ",
"       .+++++++.      ",
"       .+++++++.      ",
"       .+++++++.      ",
"        .......       ",
"                      "};
