/* XPM */
static char * pc_desktop_xpm[] = {
"22 22 4 1",
" 	c None",
".	c #000000",
"+	c #E7E7DF",
"@	c #6B6B6B",
"                      ",
"                      ",
"                      ",
"                      ",
"                      ",
"                      ",
"                      ",
"                      ",
"                      ",
"                      ",
"                      ",
"  ..................  ",
" .++++++++++++++++++. ",
" .+@+@+@++@@++++++++. ",
" .++++++++@@+@@@@@@+. ",
" .++++++++@@+@@@@@@+. ",
" .++++++++@@+@@@@@@+. ",
" .++++++++@@+@@@@@@+. ",
" .++++++++@@+@@@@@@+. ",
" .++++++++++++++++++. ",
"  ..................  ",
"                      "};
