/* XPM */
static char * speaker_amp_xpm[] = {
"22 22 4 1",
" 	c None",
".	c #000000",
"+	c #E7E7DF",
"@	c #A7A7A7",
"                      ",
"      ..........      ",
"     .++++++++++.     ",
"     .++@@@@@@++.     ",
"     .+@@@@@@@@+.     ",
"     .+@@@@@@@@+.     ",
"     .+@@@@@@@@+.     ",
"     .+@@@@@@@@+.     ",
"     .+@@@@@@@@+.     ",
"     .+@@@@@@@@+.     ",
"     .+@@@@@@@@+.     ",
"     .+@@@@@@@@+.     ",
"     .+@@@@@@@@+.     ",
"     .+@@@@@@@@+.     ",
"     .++@@@@@@++.     ",
"     .++++++++++.     ",
"     .+++++++@++.     ",
"     .++++++@@@+.     ",
"     .++@+@++@++.     ",
"     .++++++++++.     ",
"      ..........      ",
"                      "};
