/* XPM */
static char * switch_atm_symbol_xpm[] = {
"22 22 2 1",	   
" 	c None",   
".	c #000000",
"                      ",
"                      ",
"                      ",
"                      ",
" ....   .....   ....  ",
" .....    .    .....  ",
"     ..   .   ..      ",
"      ..  .  ..       ",
"   ..  .. . .. .. ..  ",
"  .  .  .. ..  . . .  ",
"  ....   ...   . . .  ",
"  .  .   ...   .   .  ",
"  .  .  .. ..  .   .  ",
"       ..   ..        ",
"      ..     ..       ",
"     ..       ..      ",
" .....         .....  ",
" ....           ....  ",
"                      ",
"                      ",
"                      ",
"                      "};
	    
	    