/* XPM */
static char * zip_disk_xpm[] = {
"22 22 7 1",
" 	c None",
".	c #000000",
"+	c #6B6B6B",
"@	c #CCCCCC",
"#	c #FFFFFF",
"$	c #FF0000",
"%	c #0B36B7",
"                      ",
"   ................   ",
"  ..+.+++@@@@@@@.+..  ",
" .+++.+++@@@@@@@.+++. ",
" .+++............+++. ",
" .+++.++++++++++.+++. ",
" .+++.++++++++++.+++. ",
" .+++.++++++++++.+++. ",
" .+++.++++++++++.+++. ",
" .+++.++++++++++.+++. ",
" .+++............+++. ",
" .+++.##.$.%%%%%.+++. ",
" .+++.##.$.%%%%%.+++. ",
" .+++............+++. ",
" .+++.##########.+++. ",
" .+++.##########.+++. ",
" .+++.##########.+++. ",
" .+++.##########.+++. ",
" .+++............+++. ",
"  ....++++++++++....  ",
"     ............     ",
"                      "};
