/* XPM */
static const char * jackson_shared_phen_xpm[] = {
"22 22 3 1",
" 	c None",
".	c white",
"X	c black",
"                      ",
"                      ",
"                      ",
"                      ",
"                      ",
"                      ",
"                      ",
"                      ",
"                      ",
"                      ",
" XXXXXXXXXXXXXXXXXXX  ",
" XXXXXXXXXXXXXXXXXXX  ",
"                      ",
"                      ",
"                      ",
"                      ",
"                      ",
"                      ",
"                      ",
"                      ",
"                      ",
"                      "};
