/* XPM */
static const char * custom_xpm[] = {
"22 22 3 1",
" 	c None",
".	c #7F0000",
"+	c #0000FF",
"                      ",
"  .                   ",
"  ..                  ",
"  ...   ++++++++      ",
"  .... ++++++++++     ",
"  ....++++++++++++    ",
"  ...++++      +++    ",
"  ...+++.       ++    ",
"  ...+++..            ",
"  ...+++...           ",
"  ...+++....          ",
"  ...+++.....         ",
"  ...+++......  ++    ",
"  ...++++......+++    ",
"  ....++++++++++++    ",
"  .....++++++++++     ",
"  ......++++++++..    ",
"  .................   ",
"  ..................  ",
"                      ",
"                      ",
"                      "};
