/* XPM */
static char * part_oooo_xpm[] = {
"22 22 3 1",
" 	c None",
".	c #000000",
"+	c #FFFFFF",
"         ....         ",
"        ..++..        ",
"        .++++.        ",
"        .++++.        ",
"    ......++......    ",
"    .++++++++++++.    ",
"    .++++++++++++.    ",
"    .++++++++++++.    ",
" ....++++++++++++.... ",
"..++.++++++++++++.++..",
".++++++++++++++++++++.",
".++++++++++++++++++++.",
"..++.++++++++++++.++..",
" ....++++++++++++.... ",
"    .++++++++++++.    ",
"    .++++++++++++.    ",
"    .++++++++++++.    ",
"    ......++......    ",
"        .++++.        ",
"        .++++.        ",
"        ..++..        ",
"         ....         "};
