/* XPM */
static char * beziergon_xpm[] = {
"22 22 6 1",
" 	c None",
".	c #F88010",
"+	c #000000",
"@	c #00007C",
"#	c #FFFFFF",
"$	c #00FC00",
"                      ",
"                      ",
"                      ",
"    ..       ..       ",
"    .. +++++ ..       ",
"     @+++++++@        ",
"     +++###+++ ..     ",
"     ++#####$$ ..     ",
"     $$#####$$+ @     ",
"     $$#####+++++     ",
"     ++#####@+++++    ",
"     ++####..###+$$   ",
"     ++####..####$$   ",
"     ++.##########++  ",
"     ++.##########++  ",
"     +++##########++  ",
"      +++########+++  ",
"   ..@@++++$$++++++.. ",
"   ..   +++$$+++++ .. ",
"                      ",
"                      ",
"                      "};
