/* XPM */
static char * bezier_xpm[] = {
"22 22 4 1",
" 	c None",
".	c #F88010",
"+	c #00FC00",
"@	c #000000",
"                      ",
"                      ",
"                      ",
"                      ",
"              ..      ",
"   ++         ..      ",
"   ++                 ",
"   @@                 ",
"   @@                 ",
"   @@       @@@@      ",
"    @@    @@@@@@@     ",
"    @@@@@@@@    @@    ",
"     @@@@@      @@    ",
"                 @@   ",
"                 @@   ",
"     ..          @@   ",
"     ..          ++   ",
"                 ++   ",
"                      ",
"                      ",
"                      ",
"                      "};
