/* XPM */
static char * box_xpm[] = {
"22 22 3 1",
" 	c None",
".	c #00FC00",
"+	c #000000",
"                      ",
" ...+++++...+++++...  ",
" ...+++++...+++++...  ",
" ...+++++...+++++...  ",
" +++             +++  ",
" +++             +++  ",
" +++             +++  ",
" +++             +++  ",
" +++             +++  ",
" ...             ...  ",
" ...             ...  ",
" ...             ...  ",
" +++             +++  ",
" +++             +++  ",
" +++             +++  ",
" +++             +++  ",
" +++             +++  ",
" ...+++++...+++++...  ",
" ...+++++...+++++...  ",
" ...+++++...+++++...  ",
"                      ",
"                      "};
