/* XPM */
static char * image_xpm[] = {
"22 22 6 1",
" 	c None",
".	c #000000",
"+	c #00FC00",
"@	c #2C5493",
"#	c #E22424",
"$	c #20A320",
"..................... ",
".+++.....+++.....+++. ",
".+++.....+++.....+++. ",
".+++@@@@@+++@@@@@+++. ",
"...@@@@@@@@@@@@@@@... ",
"...@@@@@@@@@@@@@@@... ",
"...@@@@@@@@@@@@@@@... ",
"...@@@@@@@@##@@@@@... ",
"...@@@@@@@####@@@@... ",
".+++@@@@@@+###@@@+++. ",
".+++ $$$$$+#$$$$$+++. ",
".+++$++$$++$$$$$$+++. ",
"...$$+++$++$$$$$$$... ",
"...$$$++++++++$$$$... ",
"...$$$$$++$+++$$$$... ",
"...$$$$$+$$$$$$$$$... ",
"...$$$$++$$$$$$$$$... ",
".+++$$$$$+++$$$$$+++. ",
".+++.....+++.....+++. ",
".+++.....+++.....+++. ",
"..................... ",
"                      "};
