/* XPM */
static char * zigzag_xpm[] = {
"22 22 4 1",
" 	c None",
".	c #00FC00",
"+	c #000000",
"@	c #F88010",
"                      ",
"                      ",
"   ..                 ",
"   ..                 ",
"   ++                 ",
"   ++                 ",
"   ++                 ",
"   ++                 ",
"   ++                 ",
"   ++                 ",
"   ++++++@@++++++     ",
"   ++++++@@++++++     ",
"               ++     ",
"               ++     ",
"               ++     ",
"               ++     ",
"               ..     ",
"               ..     ",
"                      ",
"                      ",
"                      ",
"                      "};
