/* XPM */
static char *linked_xpm[] = {
/* width height ncolors chars_per_pixel */
"9 24 10 1",
/* colors */
"  c #000000",
". c #B5B5B6",
"X c #5A5A5C",
"o c #6E6E6E",
"O c #020204",
"+ c #E8E8E9",
"@ c #D0D0D1",
"# c #8F8F91",
"$ c #9A9A98",
"% c None",
/* pixels */
"         ",
"         ",
"  OOOOO  ",
" Oo@@.XO ",
" O$OOO+O ",
" O@O O@O ",
" O@O O@O ",
" O.O O@O ",
" O$OOO@O ",
" O#OoO#O ",
"  OO.OO  ",
"   O@O   ",
"   O@O   ",
"  OO@OO  ",
" OoO.O#O ",
" O.OOO.O ",
" O.O O+O ",
" O.O O+O ",
" O.O O+O ",
" O@OOO+O ",
" Oo+@+.O ",
"  OOOOO  ",
"         ",
"         "
};
