/* XPM */
static char *dia_menu2[] = {
/* columns rows colors chars-per-pixel */
"32 32 108 2",
"   c #000A000A000A",
".  c #098909890989",
"X  c #00001E1E0000",
"o  c #131313131313",
"O  c #1B9C1B9C1B9C",
"+  c #228922892289",
"@  c #2BEC2BEC2BEC",
"#  c #383828283838",
"$  c #343434343434",
"%  c #3BBC3BBC3BBC",
"&  c #3C3C3F3F4040",
"*  c #00006BEC0000",
"=  c #000072720000",
"-  c #393943434949",
";  c #5B5B35351C1C",
":  c #5D5D38382020",
">  c #7D7D26260000",
",  c #7E7E28280000",
"<  c #64643D3D2424",
"1  c #43C42BAC43C4",
"2  c #404030304040",
"3  c #4E4E3A3A4E4E",
"4  c #50503C3C5050",
"5  c #6A6A43432A2A",
"6  c #44BD44CC44DB",
"7  c #444446464848",
"8  c #44C44ACB4ECF",
"9  c #4BE24BE24BE2",
"0  c #43EE4C4C5151",
"q  c #4D4D4F4F5151",
"w  c #4CA250FB5353",
"e  c #57574B4B5757",
"r  c #59594D4D5959",
"t  c gray33",
"y  c #5AEB5B185B2E",
"u  c #606058586060",
"i  c #626262A262E2",
"p  c gray42",
"a  c #747474747474",
"s  c #757578787979",
"d  c #7AAD7AAD7AAD",
"f  c green",
"g  c #FFFF5C5C0000",
"h  c #E9E96F6F1C1C",
"j  c #FFFF64640000",
"k  c #F2F273731E9E",
"l  c #EDED75752727",
"z  c #FAFA77772020",
"x  c #CDCD7BAE44AB",
"c  c #CFCF7F7F4848",
"v  c #D1D17E7E4646",
"b  c #D608831C4BB2",
"n  c #DD3289DF52A8",
"m  c #D8D88E8E5B5B",
"M  c #E1E18D375454",
"N  c #E7E796966161",
"B  c #EAEA98986262",
"V  c #85C585C585C5",
"C  c #8B8B8B8B8B8B",
"Z  c #925292529252",
"A  c #9B1A9B1A9B1A",
"S  c #89899797A1A1",
"D  c #9E9E9F9FA0A0",
"F  c #9393A0A0A9A9",
"G  c #9A9AA221A6A6",
"H  c #9D9DADADB7B7",
"J  c #B0B097978888",
"K  c #BFBFA0A08B8B",
"L  c #A443A454A466",
"P  c #A0A0A7A7ACAC",
"I  c #A471AAAAAEE1",
"U  c #ABF3ABF3ABF3",
"Y  c #A525ACACB130",
"T  c #A8A8ACACB0B0",
"R  c #A4A4B1B1BABA",
"E  c #AAAAB1B1B6B6",
"W  c #ADADB6B6BDBD",
"Q  c #ADADB8B8BFBF",
"!  c #B427B427B427",
"~  c #B1B1B7B7BBBB",
"^  c #B50AB9B9BC66",
"/  c #BCCABCDEBCE5",
"(  c #ACACB9B9C2C2",
")  c #B6B6BFBFC6C6",
"_  c #B9B9C0C0C5C5",
"`  c #C3C3A2A28B8B",
"'  c #CBCBA1A18787",
"]  c #C40FC40FC40F",
"[  c #C4C4C6C6C8C8",
"{  c #C4C4C8C8CCCC",
"}  c #CC2ECC2ECC2E",
"|  c #CCCCCECED0D0",
" . c #CACAD1D1D6D6",
".. c #D45CD45CD45C",
"X. c #D5D5D7D7D9D9",
"o. c #D4D4D958DBDB",
"O. c #D9D9D5D5D9D9",
"+. c #DC4ADC40DC4A",
"@. c #CFCFDCDCE5E5",
"#. c #D4D4DFDFE6E6",
"$. c #E439DB85E439",
"%. c #E8E8DEDEE8E8",
"&. c #E503E4CFE503",
"*. c #EBEBE1E1EBEB",
"=. c #EC76EC76EC76",
"-. c #F38DF38DF38D",
";. c #FF4CFF4CFF4C",
":. c None",
/* pixels */
":.:.:.:.:.:.:.:.:.:.:.:.:.:.:.:.:.:.:.:.:.:.:.:.:.:.:.:.:.:.:.:.",
":.;.;.;.;.;.;.;.;.;.;.;.;.;.;.;.;.;.;.;.;.;.;.;.;.;.;.;.;./ :.:.",
":.;.=...+.+.*.*.*.*.%.$.&.&.=.=.=.=.=.-.-.-.-.-.-.-.;.;.;.  :.:.",
":.;.=...+.$.X = * * r $.+.=.&.=.=.=.=.=.-.-.-.-.-.;.;.-.;.  :.:.",
":.;.=.....%.= f f f 4 _ ..&.&.&.=.=.=.=.=.-.-.-.;.-.;.-.;.  :.:.",
":.;.=.....$.* f f f 1 T ] &.&.&.&.=.=.=.=.=.-.-.-.-.-.;.;.  :.:.",
":.;.=.} ..$.= f f f # A ] +.&.&.&.&.=.=.=.=.-.-.-.-.-.-.;.  :.:.",
":.;.&.} ..O.r 4 & : u A } +.&.&.&.=.&.=.=.-.=.=.-.-.-.-.;.  :.:.",
":.;.=...+.+...y 9 A L / ..O.$.+.+.&.+.$.+...&.=.-.=.-.-.;.  :.:.",
":.;.=.C y y i + + 9 9 y y y y y i y y V ^ +.+.+.=.-.=.-.;.  :.:.",
":.;.&.C 9 9 9 O O 6 7 9 7 9 q 9 q q 9 $   o C +.+.+.-.-.;.  :.:.",
":.;.&.} ] U U 9 6 A U U U ^ ) M ^ / / ] L +   $ U +.=.-.;.  :.:.",
":.;.&.] ] ] } t 6 L ! } }  .N g Q [ ......^ @   . U +.=.;.  :.:.",
":.;.&.] } } ..y 6 U ] ....@.g l b _ +.+.+.+.U     + / +.;.  :.:.",
":.;.+.] } } ..y 6 U ] ..o.B l J g R } +.+.+.+.9     a ] ;.  :.:.",
":.;.&.] ] ] ..y 9 U } +.#.j ` H k n { &.L =.=.V     @ ! =.  :.:.",
":.;.+.] ] ] ..y O 9 y i 5 > 0 q 5 , w i O y D Z     o D &.  :.:.",
":.;.&./ ] ] } y O 7 7 - , - & 6 8 ; ; 0 O 9 C C     O A +.  :.:.",
":.;.&./ ] ] } y 7 A I n k S G E W K j F a ! [ p     % A +.  :.:.",
":.;.+./ / ] } t 7 A ( g h x b M n m g b I ] X.6     p A +.  :.:.",
":.;.+./ ] ] } t 6 G ' n x x v v b b b x U } ] .   $ V U =.  :.:.",
":.;.+.^ / / ] t 6 L ^ ! I G P I Y Y I U / X.y   O d C / -.  :.:.",
":.;.+./ / / ] t 6 D ^ ] / / / ] _ ] [ } X.y   + d C ! ..-.  :.:.",
":.;.+./ ] [ ..y 7 U ] } ....X.X.+.X.O.a .   i Z C U } +.-.  :.:.",
":.;.+.9                             o 6 d U A q / } X.+.-.  :.:.",
":.;.+.! U L L 9 6 C A L L L L L L U L L L L U ] ......+.=.  :.:.",
":.;.+.U L L a o o y Z L L U L U U U U ! / ] } ........+.=.  :.:.",
":.;.+.U ! ! V d p i U ! / / ] ] ] [ ] [ } } } ..........=.  :.:.",
":.;.+.U ! ! ^ 6 % A U ! / ] / ] [ ] [ } } } } ..........=.  :.:.",
":.;...U U ! ! d p A U / / / / ] ] ] ] ] } } } } } } ....=.  :.:.",
":.;.&.! / ] [ ] / ! [ } } } ......X.O.O.+.+.+.+.+.+.&.&.-.  :.:.",
":.L t                                                       :.:."
};
