/* XPM */
static char * C:\Program Files\dia\shapes\MSE\demultiplexer_xpm[] = {
"17 22 61 1",
" 	c None",
".	c #FBFBFB",
"+	c #A2A2A2",
"@	c #4A4A4A",
"#	c #DADADA",
"$	c #838383",
"%	c #D8D8D8",
"&	c #939393",
"*	c #9D9D9D",
"=	c #A1A1A1",
"-	c #FCFCFC",
";	c #FFFFFF",
">	c #D5D5D5",
",	c #DEDEDE",
"'	c #F9F9F9",
")	c #999999",
"!	c #A6A6A6",
"~	c #D0D0D0",
"{	c #848484",
"]	c #E2E2E2",
"^	c #F7F7F7",
"/	c #969696",
"(	c #ABABAB",
"_	c #FDFDFD",
":	c #CCCCCC",
"<	c #858585",
"[	c #E5E5E5",
"}	c #F5F5F5",
"|	c #929292",
"1	c #AFAFAF",
"2	c #FEFEFE",
"3	c #C6C6C6",
"4	c #868686",
"5	c #E9E9E9",
"6	c #949494",
"7	c #B5B5B5",
"8	c #E8E8E8",
"9	c #C8C8C8",
"0	c #B3B3B3",
"a	c #8F8F8F",
"b	c #F4F4F4",
"c	c #ECECEC",
"d	c #888888",
"e	c #C2C2C2",
"f	c #B9B9B9",
"g	c #8C8C8C",
"h	c #F1F1F1",
"i	c #EFEFEF",
"j	c #8B8B8B",
"k	c #BCBCBC",
"l	c #BFBFBF",
"m	c #8A8A8A",
"n	c #EDEDED",
"o	c #8E8E8E",
"p	c #B7B7B7",
"q	c #C4C4C4",
"r	c #878787",
"s	c #EBEBEB",
"t	c #909090",
"u	c #919191",
"v	c #5A5A5A",
"              .+@",
"             #$%&",
"           .*=-;&",
"          >$,;;;&",
"        ')!-;;;;&",
"       ~{];;;;;;&",
"     ^/(_;;;;;;;&",
"    :<[;;;;;;;;;&",
"  }|12;;;;;;;;;;&",
" 345;;;;;;;;;;;;&",
"672;;;;;;;;;;;;;&",
"1&};;;;;;;;;;;;;&",
" 849;;;;;;;;;;;;&",
"   0ab;;;;;;;;;;&",
"    cde;;;;;;;;;&",
"      fgh;;;;;;;&",
"       ijk;;;;;;&",
"         lmn;;;;&",
"          hop;;;&",
"            qrs;&",
"             bt0u",
"               9v"};
