/* XPM */
static char * large_extension_node_xpm[] = {
"32 22 13 1",
" 	c None",
".	c #4A4A4A",
"+	c #767676",
"@	c #797979",
"#	c #FFFFFF",
"$	c #FCFCFC",
"%	c #A1A1A1",
"&	c #939393",
"*	c #EEEEEE",
"=	c #7A7A7A",
"-	c #E2E2E2",
";	c #898989",
">	c #8A8A8A",
".++++++++++++++++++++++++++++++.",
"@##############################@",
"@##############################@",
"@##$%&&&&&&&&&&&&&&&&&&&&&&%$##@",
"@##*=----------------------=*##@",
"@##*;######################;*##@",
"@##*;######################;*##@",
"@##*;######################;*##@",
"@##*;######################;*##@",
"@##*;######################;*##@",
"@##*;######################>*##@",
"@##*;######################>*##@",
"@##*;######################>*##@",
"@##*;######################;*##@",
"@##*>######################;*##@",
"@##*>######################;*##@",
"@##*>######################;*##@",
"@##*=----------------------=*##@",
"@##$%&&&&&&&&&&&&&&&&&&&&&&%$##@",
"@##############################@",
"@##############################@",
".++++++++++++++++++++++++++++++."};
