/* XPM */
static char * C:\Program Files\dia\shapes\MSE\multiplexer_xpm[] = {
"17 22 61 1",
" 	c None",
".	c #5A5A5A",
"+	c #C8C8C8",
"@	c #919191",
"#	c #B3B3B3",
"$	c #909090",
"%	c #F4F4F4",
"&	c #939393",
"*	c #FFFFFF",
"=	c #EBEBEB",
"-	c #878787",
";	c #C4C4C4",
">	c #B7B7B7",
",	c #8E8E8E",
"'	c #F1F1F1",
")	c #EDEDED",
"!	c #8A8A8A",
"~	c #BFBFBF",
"{	c #BCBCBC",
"]	c #8B8B8B",
"^	c #EFEFEF",
"/	c #8C8C8C",
"(	c #B9B9B9",
"_	c #C2C2C2",
":	c #888888",
"<	c #ECECEC",
"[	c #8F8F8F",
"}	c #868686",
"|	c #E8E8E8",
"1	c #F5F5F5",
"2	c #AFAFAF",
"3	c #FEFEFE",
"4	c #B5B5B5",
"5	c #949494",
"6	c #E9E9E9",
"7	c #C6C6C6",
"8	c #929292",
"9	c #E5E5E5",
"0	c #858585",
"a	c #CCCCCC",
"b	c #FDFDFD",
"c	c #ABABAB",
"d	c #969696",
"e	c #F7F7F7",
"f	c #E2E2E2",
"g	c #848484",
"h	c #D0D0D0",
"i	c #FCFCFC",
"j	c #A6A6A6",
"k	c #999999",
"l	c #F9F9F9",
"m	c #DEDEDE",
"n	c #838383",
"o	c #D5D5D5",
"p	c #A1A1A1",
"q	c #9D9D9D",
"r	c #FBFBFB",
"s	c #D8D8D8",
"t	c #DADADA",
"u	c #4A4A4A",
"v	c #A2A2A2",
".+               ",
"@#$%             ",
"&*=-;            ",
"&***>,'          ",
"&****)!~         ",
"&******{]^       ",
"&*******'/(      ",
"&*********_:<    ",
"&**********%[#   ",
"&************+}| ",
"&*************1&2",
"&*************345",
"&************6}7 ",
"&**********3281  ",
"&*********90a    ",
"&*******bcde     ",
"&******fgh       ",
"&****ijkl        ",
"&***mno          ",
"&*ipqr           ",
"&snt             ",
"uvr              "};
