/* XPM */
static char * C:\Program Files\dia\shapes\MSE\node_center_xpm[] = {
"21 22 60 1",
" 	c None",
".	c #D1D1D1",
"+	c #A0A0A0",
"@	c #A1A1A1",
"#	c #A2A2A2",
"$	c #A3A3A3",
"%	c #D2D2D2",
"&	c #E2E2E2",
"*	c #959595",
"=	c #C9C9C9",
"-	c #FDFDFD",
";	c #FFFFFF",
">	c #C8C8C8",
",	c #989898",
"'	c #E4E4E4",
")	c #C4C4C4",
"!	c #AAAAAA",
"~	c #FEFEFE",
"{	c #A9A9A9",
"]	c #C6C6C6",
"^	c #BBBBBB",
"/	c #E6E6E6",
"(	c #A7A7A7",
"_	c #6D6D6D",
":	c #D9D9D9",
"<	c #949494",
"[	c #C5C5C5",
"}	c #FCFCFC",
"|	c #9A9A9A",
"1	c #E1E1E1",
"2	c #B6B6B6",
"3	c #A5A5A5",
"4	c #9F9F9F",
"5	c #F8F8F8",
"6	c #F7F7F7",
"7	c #B5B5B5",
"8	c #EDEDED",
"9	c #B7B7B7",
"0	c #A6A6A6",
"a	c #F0F0F0",
"b	c #B3B3B3",
"c	c #E3E3E3",
"d	c #CACACA",
"e	c #C2C2C2",
"f	c #D4D4D4",
"g	c #999999",
"h	c #D5D5D5",
"i	c #BABABA",
"j	c #D3D3D3",
"k	c #B1B1B1",
"l	c #ADADAD",
"m	c #ACACAC",
"n	c #C7C7C7",
"o	c #E9E9E9",
"p	c #E8E8E8",
"q	c #9D9D9D",
"r	c #F9F9F9",
"s	c #A4A4A4",
"t	c #B2B2B2",
"u	c #4C4C4C",
"      .+@#$$#+%      ",
"    &*=-;;;;;->,'    ",
"   )!~;;;;;;;;;~{)   ",
"  ]^;;;;;;;;;;;;;^]  ",
" /(;;;;;;;;;;;;;;;(/ ",
" _+$$$$$$$$$$$$$$$+_ ",
":<[;;;;;;;;;;;;;;;[<:",
"#}|-;;;;;;;;;;;;;-|}#",
"#;12;;;;;;;;;;;;;21;#",
"3;;45;;;;;;;;;;;64;;3",
"7;;8{;;;;;;;;;;;{8;;7",
"9;;;0a;;;;;;;;;a0;;;9",
"(;;;64;;;;;;;;;46;;;(",
"#;;;;bc;;;;;;;cb;;;;#",
"@~;;;}|;;;;;;;|};;;~+",
"d.;;;;ef;;;;;fe;;;;.d",
" ,;;;;~g;;;;;g~;;;;, ",
" hi;;;;j);;;)j;;;;ih ",
"  kj;;;;|};}|;;;;jk  ",
"   l[;;;17;71;;;[m   ",
"    n|o;;4a4;;pq>    ",
"     rk4stut34kr     "};
