/* XPM */
static char * small_extension_node_xpm[] = {
"32 22 7 1",
" 	c None",
".	c #484848",
"+	c #737373",
"@	c #757575",
"#	c #FFFFFF",
"$	c #555555",
"%	c #B9B9B9",
".++++++++++++++++++++++++++++++.",
"@##############################@",
"@##############################@",
"@##############################@",
"@##############################@",
"@##############################@",
"@##############################@",
"@##############################@",
"@##############################@",
"@##############################@",
"@##############################@",
"@##############################@",
"@##############################@",
"@##############################@",
"@##############################@",
"@##############################@",
"@##############################@",
"@##############################@",
"@##############################@",
"@##############################@",
"@##############################@",
"$%%%%%%%%%%%%%%%%%%%%%%%%%%%%%%$"};
