/* XPM */
static char * C:\Program Files\dia\shapes\MSE\tacsat_xpm[] = {
"21 22 88 1",
" 	c None",
".	c #D6D6D6",
"+	c #BDBDBD",
"@	c #4B4B4B",
"#	c #DFDFDF",
"$	c #7C7C7C",
"%	c #9D9D9D",
"&	c #F0F0F0",
"*	c #797979",
"=	c #979797",
"-	c #A2A2A2",
";	c #EDEDED",
">	c #BABABA",
",	c #B3B3B3",
"'	c #EAEAEA",
")	c #7F7F7F",
"!	c #F1F1F1",
"~	c #9C9C9C",
"{	c #F4F4F4",
"]	c #FFFFFF",
"^	c #A4A4A4",
"/	c #C9C9C9",
"(	c #E1E1E1",
"_	c #828282",
":	c #F8F8F8",
"<	c #A8A8A8",
"[	c #E7E7E7",
"}	c #FEFEFE",
"|	c #909090",
"1	c #DDDDDD",
"2	c #D8D8D8",
"3	c #898989",
"4	c #FAFAFA",
"5	c #DEDEDE",
"6	c #AEAEAE",
"7	c #FCFCFC",
"8	c #CDCDCD",
"9	c #919191",
"0	c #FDFDFD",
"a	c #8A8A8A",
"b	c #F5F5F5",
"c	c #F7F7F7",
"d	c #C1C1C1",
"e	c #9B9B9B",
"f	c #E8E8E8",
"g	c #878787",
"h	c #B5B5B5",
"i	c #A7A7A7",
"j	c #D7D7D7",
"k	c #696969",
"l	c #C8C8C8",
"m	c #C2C2C2",
"n	c #AAAAAA",
"o	c #868686",
"p	c #F3F3F3",
"q	c #ACACAC",
"r	c #C0C0C0",
"s	c #EBEBEB",
"t	c #888888",
"u	c #C6C6C6",
"v	c #969696",
"w	c #F9F9F9",
"x	c #818181",
"y	c #4F4F4F",
"z	c #A5A5A5",
"A	c #E3E3E3",
"B	c #414141",
"C	c #838383",
"D	c #FBFBFB",
"E	c #D2D2D2",
"F	c #525252",
"G	c #8D8D8D",
"H	c #8F8F8F",
"I	c #B1B1B1",
"J	c #BBBBBB",
"K	c #CECECE",
"L	c #CACACA",
"M	c #CBCBCB",
"N	c #C7C7C7",
"O	c #A6A6A6",
"P	c #B9B9B9",
"Q	c #9E9E9E",
"R	c #DCDCDC",
"S	c #A3A3A3",
"T	c #EEEEEE",
"U	c #636363",
"V	c #C5C5C5",
"W	c #5C5C5C",
"    .              +@",
"   #$%            &*=",
"   -;>,          ')! ",
"   ~{]^/        (_:  ",
"   <[]}|1      234   ",
"   56]]7_;    890    ",
"    a]]]b)c  de      ",
"    <1]]]fg0hi       ",
"    c3]]]]jk,        ",
"     hl]]]]mn        ",
"      op]]]]qr       ",
"      st}]]]]=.      ",
"       uv]]]]0of     ",
"      wxyz]]]]w)p    ",
"      aA!B-]]]];CD   ",
"     eE]](FGw]]]5H   ",
"    IJ]]]]KC_L]]]M<  ",
"   NO]]]]]]P,haQqGJ  ",
"  R9}]]]]]]]SL]T(:   ",
" sC0]]]]]]]]}|1      ",
"DUJVVVVVVVVVVdWb     ",
"]K/////////////7     "};
