/* XPM */
static char * bvrest_xpm[] = {
"22 22 75 1",
" 	c None",
".	c #9C9C9C",
"+	c #040404",
"@	c #9D9D9D",
"#	c #020202",
"$	c #000000",
"%	c #A2A2A2",
"&	c #D1D1D1",
"*	c #010101",
"=	c #4B4B4B",
"-	c #8F8F8F",
";	c #6D6D6D",
">	c #7C7C7C",
",	c #E2E2E2",
"'	c #0E0E0E",
")	c #E8E8E8",
"!	c #272727",
"~	c #171717",
"{	c #282828",
"]	c #2E2E2E",
"^	c #5C5C5C",
"/	c #FBFBFB",
"(	c #363636",
"_	c #525252",
":	c #FFFFFF",
"<	c #3E3E3E",
"[	c #494949",
"}	c #F9F9F9",
"|	c #464646",
"1	c #404040",
"2	c #F6F6F6",
"3	c #4F4F4F",
"4	c #383838",
"5	c #F3F3F3",
"6	c #595959",
"7	c #313131",
"8	c #EFEFEF",
"9	c #636363",
"0	c #2A2A2A",
"a	c #EAEAEA",
"b	c #777777",
"c	c #101010",
"d	c #666666",
"e	c #727272",
"f	c #C4C4C4",
"g	c #B8B8B8",
"h	c #616161",
"i	c #515151",
"j	c #747474",
"k	c #B7B7B7",
"l	c #1D1D1D",
"m	c #969696",
"n	c #AAAAAA",
"o	c #080808",
"p	c #0C0C0C",
"q	c #AEAEAE",
"r	c #161616",
"s	c #070707",
"t	c #E4E4E4",
"u	c #D9D9D9",
"v	c #030303",
"w	c #202020",
"x	c #ABABAB",
"y	c #4C4C4C",
"z	c #7B7B7B",
"A	c #E3E3E3",
"B	c #444444",
"C	c #CDCDCD",
"D	c #1F1F1F",
"E	c #959595",
"F	c #B4B4B4",
"G	c #131313",
"H	c #C5C5C5",
"I	c #979797",
"J	c #151515",
"                      ",
"                      ",
"         .+.          ",
"        @#$#%         ",
"       &*$=$-         ",
"        ;$$$>         ",
"        ,'$',         ",
"       )!$~${)        ",
"       ]$^/^$]        ",
"      ($_/:/_$(       ",
"     <$[}:::}[$<      ",
"    |$12:::::21$|     ",
"   3$45:::::::54$3    ",
"  6$78:::::::::87$6   ",
" 9$0a:::::::::::a0$9  ",
"b$cdeeeeeeeeeeeeedc$b ",
"f$$$$$$$$$$$$$$$$$$$f ",
" gh$igg<$jgkl*mgnopq  ",
"  rst uvw  x$y  z$z   ",
" ABd  CDE  FGH  IJa   ",
"                      ",
"                      "};
