/* XPM */
static char * bvrest1_xpm[] = {
"22 21 24 1",
" 	c None",
".	c #141414",
"+	c #525252",
"@	c #323232",
"#	c #6B6B6B",
"$	c #292929",
"%	c #404040",
"&	c #7E7E7E",
"*	c #626262",
"=	c #474747",
"-	c #373737",
";	c #717171",
">	c #2D2D2D",
",	c #444444",
"'	c #656565",
")	c #4A4A4A",
"!	c #3A3A3A",
"~	c #343434",
"{	c #424242",
"]	c #808080",
"^	c #151515",
"/	c #333333",
"(	c #727272",
"_	c #666666",
"                      ",
"                      ",
"                      ",
"          *#          ",
"         *{,*         ",
"         ^  .         ",
"         *,{*         ",
"          @>          ",
"         ,**,         ",
"        ,*  *,        ",
"       ,*    *,       ",
"      ,*      *,      ",
"     ,*        *,     ",
"    ,*          *,    ",
"   ,*            *,   ",
"  ,*              *,  ",
" ,*                *, ",
",*                  *,",
"/%%$%%%%~-%%%%$%%%%~-/",
"  _+    !    _+    !  ",
"  !    _+    !    _+  "};
