/* XPM */
static char * civil_container_xpm[] = {
"22 22 35 1",
" 	c None",
".	c #BDBDBD",
"+	c #AEAEAE",
"@	c #7A7A7A",
"#	c #272727",
"$	c #000000",
"%	c #050505",
"&	c #292929",
"*	c #898989",
"=	c #0F0F0F",
"-	c #151515",
";	c #9A9A9A",
">	c #D0D0D0",
",	c #FDFDFD",
"'	c #6E6E6E",
")	c #FCFCFC",
"!	c #FFFFFF",
"~	c #CBCBCB",
"{	c #CCCCCC",
"]	c #707070",
"^	c #717171",
"/	c #868686",
"(	c #0D0D0D",
"_	c #181818",
":	c #9E9E9E",
"<	c #D5D5D5",
"[	c #FEFEFE",
"}	c #D4D4D4",
"|	c #171717",
"1	c #757575",
"2	c #131313",
"3	c #070707",
"4	c #010101",
"5	c #141414",
"6	c #777777",
"          .+          ",
"       @#$$%$&@       ",
"     *=-;>,,>;-=*     ",
"     $')!!!!!!)'$     ",
"     $~!!!!!!!!~$     ",
"     $~!!!!!!!!~$     ",
"     $~!!!!!!!!~$     ",
"     $~!!!!!!!!~$     ",
"     $~!!!!!!!!~$     ",
"     $~!!!!!!!!~$     ",
"     $~!!!!!!!!~$     ",
"     $~!!!!!!!!~$     ",
"     $~!!!!!!!!~$     ",
"     $~!!!!!!!!~$     ",
"     $~!!!!!!!!~$     ",
"     $~!!!!!!!!~$     ",
"     $~!!!!!!!!{$     ",
"     $~!!!!!!!!{$     ",
"     $])!!!!!!)^$     ",
"     /(_:<[,}:|(/     ",
"       12$34$56       ",
"                      "};
