/* XPM */
static char * civil_frequency_converter_xpm[] = {
"22 22 60 1",
" 	c None",
".	c #000000",
"+	c #7F7F7F",
"@	c #AFAFAF",
"#	c #A1A1A1",
"$	c #343434",
"%	c #0A0A0A",
"&	c #BABABA",
"*	c #FFFFFF",
"=	c #C1C1C1",
"-	c #1C1C1C",
";	c #424242",
">	c #A8A8A8",
",	c #FDFDFD",
"'	c #838383",
")	c #070707",
"!	c #818181",
"~	c #FCFCFC",
"{	c #E6E6E6",
"]	c #434343",
"^	c #1B1B1B",
"/	c #B9B9B9",
"(	c #171717",
"_	c #4B4B4B",
":	c #EBEBEB",
"<	c #FBFBFB",
"[	c #787878",
"}	c #8C8C8C",
"|	c #FEFEFE",
"1	c #E1E1E1",
"2	c #3A3A3A",
"3	c #212121",
"4	c #C9C9C9",
"5	c #121212",
"6	c #545454",
"7	c #EFEFEF",
"8	c #F8F8F8",
"9	c #6E6E6E",
"0	c #090909",
"a	c #969696",
"b	c #DBDBDB",
"c	c #323232",
"d	c #272727",
"e	c #D0D0D0",
"f	c #A6A6A6",
"g	c #0E0E0E",
"h	c #5E5E5E",
"i	c #F3F3F3",
"j	c #F5F5F5",
"k	c #636363",
"l	c #0C0C0C",
"m	c #A0A0A0",
"n	c #9B9B9B",
"o	c #2B2B2B",
"p	c #2E2E2E",
"q	c #D7D7D7",
"r	c #030303",
"s	c #7C7C7C",
"t	c #808080",
"u	c #5D5D5D",
"                      ",
"                      ",
"                      ",
"..................... ",
".+@@@@@@@@@@@@@@@#$%. ",
".&**************=-;>. ",
".&************,')!~&. ",
".&***********{]^=**&. ",
".&****....**/(_:***&. ",
".&****.*..<[)}|****&. ",
".&*******1234******&. ",
".&******@567*******&. ",
".&****890a**....***&. ",
".&***bcde***.*..***&. ",
".&**fghi***********&. ",
".&jklm*************&. ",
".nopq**************&. ",
".r$stttttt!!!!!!!!tu. ",
"                      ",
"                      ",
"                      ",
"                      "};
