/* XPM */
static char * civil_arrow_up_xpm[] = {
"22 22 34 1",
" 	c None",
".	c #C9C9C9",
"+	c #1B1B1B",
"@	c #D0D0D0",
"#	c #282828",
"$	c #B6B6B6",
"%	c #D6D6D6",
"&	c #292929",
"*	c #D3D3D3",
"=	c #FFFFFF",
"-	c #D7D7D7",
";	c #DDDDDD",
">	c #2A2A2A",
",	c #CCCCCC",
"'	c #E2E2E2",
")	c #2C2C2C",
"!	c #C4C4C4",
"~	c #E7E7E7",
"{	c #2F2F2F",
"]	c #BCBCBC",
"^	c #ECECEC",
"/	c #323232",
"(	c #B4B4B4",
"_	c #373737",
":	c #ABABAB",
"<	c #3B3B3B",
"[	c #2D2D2D",
"}	c #767676",
"|	c #878787",
"1	c #B1B1B1",
"2	c #B0B0B0",
"3	c #252525",
"4	c #272727",
"5	c #0C0C0C",
"         .+.          ",
"        @#$#@         ",
"       %&*=*&-        ",
"      ;>,===,>;       ",
"     ')!=====!)'      ",
"    ~{]=======]{~     ",
"   ^/(=========(/^    ",
"   _:===========:_    ",
"  <[}}|=======|}}[<   ",
"  12223=======32211   ",
"      4=======4       ",
"      4=======4       ",
"      4=======4       ",
"      4=======4       ",
"      4=======4       ",
"      4=======4       ",
"      4=======4       ",
"      4=======4       ",
"      4=======4       ",
"      4=======4       ",
"      4=======4       ",
"      5##444445       "};
