/* XPM */
static char * civil_horizontal_valve_xpm[] = {
"22 22 6 1",
" 	c None",
".	c #000000",
"+	c #2C2C2C",
"@	c #E9E9E9",
"#	c #FFFFFF",
"$	c #1A1A1A",
".+@                @+.",
"..+@              @+..",
"...+@            @+...",
"..+.+@          @+.+..",
"..@+.+@        @+.+@..",
"..#@+.+@      @+.+@#..",
"..##@+.+@    @+.+@##..",
"..###@+.+@  @+.+@###..",
"..####@+.+@@+.+@####..",
"..#####@+.+$.+@#####..",
"..######@+..+@######..",
"..######@+..+@######..",
"..#####@+.+$.+@#####..",
"..####@+.+@@+.+@####..",
"..###@+.+@  @+.+@###..",
"..##@+.+@    @+.+@##..",
"..#@+.+@      @+.+@#..",
"..@+.+@        @+.+@..",
"..+.+@          @+.+..",
"...+@            @+...",
"..+@              @+..",
".+@                @+."};
