/* XPM */
static char * civil_final_settling_basin_xpm[] = {
"22 22 42 1",
" 	c None",
".	c #070707",
"+	c #141414",
"@	c #A7A7A7",
"#	c #2C2C2C",
"$	c #808080",
"%	c #A6A6A6",
"&	c #2B2B2B",
"*	c #8D8D8D",
"=	c #888888",
"-	c #323232",
";	c #C0C0C0",
">	c #282828",
",	c #EAEAEA",
"'	c #C6C6C6",
")	c #404040",
"!	c #9E9E9E",
"~	c #666666",
"{	c #5A5A5A",
"]	c #AAAAAA",
"^	c #393939",
"/	c #CDCDCD",
"(	c #E2E2E2",
"_	c #3D3D3D",
":	c #858585",
"<	c #606060",
"[	c #A4A4A4",
"}	c #2A2A2A",
"|	c #CECECE",
"1	c #292929",
"2	c #5F5F5F",
"3	c #8B8B8B",
"4	c #797979",
"5	c #3C3C3C",
"6	c #C5C5C5",
"7	c #2E2E2E",
"8	c #DBDBDB",
"9	c #C4C4C4",
"0	c #CACACA",
"a	c #B6B6B6",
"b	c #3E3E3E",
"c	c #A3A3A3",
"   .+@          @+.   ",
"   #$@          %$#   ",
"   #$@          %$#   ",
"   #$@          %$#   ",
"   #$@          %$#   ",
"   #$@          %$#   ",
"   #$@          %$#   ",
"   #$@          %$#   ",
"   #$@          %$#   ",
"   #$@          %$#   ",
"   &*=          =*&   ",
"   -;>,        ,>;-   ",
"   ')!~        ~!)'   ",
"    {]^/      /^]{    ",
"    (&;_      _;&(    ",
"     $:<[    [<:$     ",
"      }|1    1/}      ",
"      %234  432%      ",
"       56788795       ",
"       05abba50       ",
"        <%cc%2        ",
"                      "};
