/* XPM */
static char * civil_backflow_preventer_xpm[] = {
"22 22 10 1",
" 	c None",
".	c #000000",
"+	c #FFFFFF",
"@	c #F0F0F0",
"#	c #929292",
"$	c #E9E9E9",
"%	c #2C2C2C",
"&	c #A8A8A8",
"*	c #959595",
"=	c #808080",
"......................",
"......................",
"..++++++++++++++++++..",
"..++++++++++++++++++..",
"..+++++++++++++@#+++..",
"..++++++++++++$%.&++..",
"..+++++++++++$%.%$++..",
"..++++++++++$%.%$+++..",
"..+++++++++$%.%$++++..",
"..++++++++$%.%$+++++..",
"..+++++++$%.%$++++++..",
"..++++++$%.%$+++++++..",
"..+++++$%.%$++++++++..",
"..++++$%.%$+++++++++..",
"..+++$%.%$++++++++++..",
"..++$%.%$+++++++++++..",
"..++*.%$++++++++++++..",
"..+++=@+++++++++++++..",
"..++++++++++++++++++..",
"..++++++++++++++++++..",
"......................",
"......................"};
