/* XPM */
static char * civil_vertical_limiting_line_xpm[] = {
"22 22 12 1",
" 	c None",
".	c #414141",
"+	c #AFAFAF",
"@	c #A3A3A3",
"#	c #272727",
"$	c #313131",
"%	c #A1A1A1",
"&	c #0C0C0C",
"*	c #AAAAAA",
"=	c #2C2C2C",
"-	c #A9A9A9",
";	c #A2A2A2",
"           .+         ",
"           @#$+       ",
"             @#$+     ",
"               @#$+   ",
"                 @#$+ ",
"                   %&$",
"                  *==*",
"                *==*  ",
"              *==*    ",
"            *==*      ",
"          *==*        ",
"        -==*          ",
"      -==*            ",
"    -==-              ",
"  -==-                ",
"-==-                  ",
"$&;                   ",
" +$#@                 ",
"   +$#@               ",
"     +$#@             ",
"       +$#@           ",
"         +.           "};
