/* XPM */
static char * civil_vertical_propeller_xpm[] = {
"22 22 51 1",
" 	c None",
".	c #D7D7D7",
"+	c #DCDCDC",
"@	c #1F1F1F",
"#	c #3B3B3B",
"$	c #E4E4E4",
"%	c #8B8B8B",
"&	c #444444",
"*	c #3E3E3E",
"=	c #858585",
"-	c #C9C9C9",
";	c #C1C1C1",
">	c #7E7E7E",
",	c #383838",
"'	c #4C4C4C",
")	c #939393",
"!	c #EBEBEB",
"~	c #393939",
"{	c #000000",
"]	c #020202",
"^	c #0E0E0E",
"/	c #101010",
"(	c #090909",
"_	c #0C0C0C",
":	c #131313",
"<	c #010101",
"[	c #545454",
"}	c #C0C0C0",
"|	c #555555",
"1	c #FEFEFE",
"2	c #FCFCFC",
"3	c #C4C4C4",
"4	c #464646",
"5	c #CDCDCD",
"6	c #FDFDFD",
"7	c #E2E2E2",
"8	c #1E1E1E",
"9	c #050505",
"0	c #5D5D5D",
"a	c #0B0B0B",
"b	c #060606",
"c	c #070707",
"d	c #5F5F5F",
"e	c #030303",
"f	c #333333",
"g	c #898989",
"h	c #CFCFCF",
"i	c #C5C5C5",
"j	c #828282",
"k	c #535353",
"l	c #CECECE",
"                      ",
"                      ",
"            .+        ",
"            @#        ",
"            @#        ",
"            @#        ",
"            @#        ",
"            @#        ",
"            @#        ",
"            @#        ",
"            @#        ",
"            @#        ",
"            @#        ",
"            @#        ",
"            @#        ",
"     $%&*=- @# ;>,')! ",
"     ~{]^{{/(_]{{:<{[ ",
"    }{|1234{{{<|516*{7",
"     89409{{ab{{cd*ef ",
"     }'b(4gh  ij*b(kl ",
"                      ",
"                      "};
