/* XPM */
static char * civil_gas_bottle_xpm[] = {
"22 22 16 1",
" 	c None",
".	c #737373",
"+	c #D6D6D6",
"@	c #686868",
"#	c #FFFFFF",
"$	c #E7E7E7",
"%	c #939393",
"&	c #E9E9E9",
"*	c #7F7F7F",
"=	c #808080",
"-	c #707070",
";	c #DEDEDE",
">	c #6F6F6F",
",	c #0D0D0D",
"'	c #212121",
")	c #0C0C0C",
"                      ",
"          ..          ",
"        +@##@         ",
"       $.####.        ",
"       %&####&%       ",
"       *######*       ",
"       =######*       ",
"       =######*       ",
"       =######*       ",
"       =######*       ",
"       -;;;;;;>       ",
"       ,'''''')       ",
"       =######*       ",
"       =######*       ",
"       =######*       ",
"       *######*       ",
"       *######*       ",
"       *######*       ",
"       *######*       ",
"       *######*       ",
"       *######*       ",
"       .......*       "};
