/* XPM */
static char * civil_rotor_xpm[] = {
"22 22 24 1",
" 	c None",
".	c #000000",
"+	c #6E6E6E",
"@	c #7C7C7C",
"#	c #7D7D7D",
"$	c #2C2C2C",
"%	c #C1C1C1",
"&	c #181818",
"*	c #E9E9E9",
"=	c #010101",
"-	c #0D0D0D",
";	c #4C4C4C",
">	c #3F3F3F",
",	c #AFAFAF",
"'	c #0B0B0B",
")	c #DEDEDE",
"!	c #FFFFFF",
"~	c #AEAEAE",
"{	c #0F0F0F",
"]	c #E8E8E8",
"^	c #E6E6E6",
"/	c #E0E0E0",
"(	c #0E0E0E",
"_	c #4D4D4D",
"                      ",
"          ..          ",
"          ..          ",
"    +    @..@    +    ",
"   #.$%&......&%$.#   ",
"   *$.=..-;>-..=.$*   ",
"    ,=.')!!!!)'.=~    ",
"    {.{]!!!!!!]{.{    ",
"   ^../!!!!!!!!/..^   ",
"   #.-!!!!!!!!!!-.#   ",
" ....>!!!!!!!!!!>.... ",
" ....>!!!!!!!!!!>.... ",
"   @.-!!!!!!!!!!-.#   ",
"   ^../!!!!!!!!/..^   ",
"    {.{]!!!!!!]{.{    ",
"    ~=.')!!!!)'.=,    ",
"   *$.=..(>_(..=.$*   ",
"   #.$%&......&%$.#   ",
"    +    #..#    +    ",
"          ..          ",
"          ..          ",
"                      "};
