/* XPM */
static char * civil_preliminary_clarification_tank_xpm[] = {
"22 22 51 1",
" 	c None",
".	c #000000",
"+	c #020202",
"@	c #7F7F7F",
"#	c #C0C0C0",
"$	c #292929",
"%	c #010101",
"&	c #777777",
"*	c #787878",
"=	c #7A7A7A",
"-	c #1D1D1D",
";	c #808080",
">	c #D7D7D7",
",	c #D9D9D9",
"'	c #797979",
")	c #030303",
"!	c #FFFFFF",
"~	c #D2D2D2",
"{	c #F9F9F9",
"]	c #747474",
"^	c #141414",
"/	c #151515",
"(	c #161616",
"_	c #171717",
":	c #181818",
"<	c #2F2F2F",
"[	c #1E1E1E",
"}	c #1C1C1C",
"|	c #1B1B1B",
"1	c #1A1A1A",
"2	c #191919",
"3	c #0A0A0A",
"4	c #242424",
"5	c #0F0F0F",
"6	c #F0F0F0",
"7	c #060606",
"8	c #0C0C0C",
"9	c #101010",
"0	c #070707",
"a	c #B1B1B1",
"b	c #E4E4E4",
"c	c #585858",
"d	c #303030",
"e	c #535353",
"f	c #1F1F1F",
"g	c #3B3B3B",
"h	c #B4B4B4",
"i	c #626262",
"j	c #EFEFEF",
"k	c #919191",
"l	c #C8C8C8",
"  .+              +.  ",
"  .+              +.  ",
"  .+       @      +.  ",
"  .+      #$      +.  ",
"  .%&&&&&*=-;*&&&&%.  ",
"  .+>>>>>>,',>>>>>+.  ",
"  .)!!!!!!!~!!!!!!+.  ",
"  .)!!!!!!!{!!!!!!+.  ",
"  .)!!!!!!!!!!!!!!+.  ",
"  .)!!!!!!!!!!!!!!+.  ",
"  .)!]^^^//((___::..  ",
"  .)!<+[[--}}||1123.  ",
"  .+!()444444444445.  ",
"  ..67.8999999999999  ",
"  0.a..b              ",
"  _.c.+               ",
"  d.2.8               ",
"  e.%.f               ",
"  @...g               ",
"  h...i               ",
"  j.[.k               ",
"  !)..l               "};
