/* XPM */
static char * civil_basin_xpm[] = {
"22 22 17 1",
" 	c None",
".	c #000000",
"+	c #9A9A9A",
"@	c #919191",
"#	c #C0C0C0",
"$	c #1D1D1D",
"%	c #C1C1C1",
"&	c #FFFFFF",
"*	c #262626",
"=	c #141414",
"-	c #212121",
";	c #222222",
">	c #ADADAD",
",	c #9F9F9F",
"'	c #575757",
")	c #747474",
"!	c #737373",
"                      ",
"                      ",
"                      ",
"                      ",
".....+          +.....",
".@##$+          +$##@.",
".%&&*+          +*&&%.",
".#&&*+          +*&&%.",
".#&&*+          +*&&%.",
".#&&*+          +*&&%.",
".#&&*+          +*&&%.",
".#&&*+          +*&&%.",
".#&&*+          +*&&%.",
".#&&*=--;;;;;;;;=*&&%.",
".#&&>,,,,,,,,,,,,>&&%.",
".#&&&&&&&&&&&&&&&&&&%.",
".'))))))!!!!!!!!!!!!'.",
"                      ",
"                      ",
"                      ",
"                      ",
"                      "};
