/* XPM */
static char * civil_soil_xpm[] = {
"22 22 98 2",
"  	c None",
". 	c #D0D0D0",
"+ 	c #000000",
"@ 	c #E1E1E1",
"# 	c #5E5E5E",
"$ 	c #565656",
"% 	c #0B0B0B",
"& 	c #050505",
"* 	c #303030",
"= 	c #5A5A5A",
"- 	c #424242",
"; 	c #020202",
"> 	c #525252",
", 	c #060606",
"' 	c #3A3A3A",
") 	c #5F5F5F",
"! 	c #1A1A1A",
"~ 	c #1E1E1E",
"{ 	c #A3A3A3",
"] 	c #202020",
"^ 	c #9A9A9A",
"/ 	c #FBFBFB",
"( 	c #FFFFFF",
"_ 	c #F6F6F6",
": 	c #222222",
"< 	c #797979",
"[ 	c #606060",
"} 	c #343434",
"| 	c #FDFDFD",
"1 	c #ABABAB",
"2 	c #090909",
"3 	c #DDDDDD",
"4 	c #454545",
"5 	c #C7C7C7",
"6 	c #F8F8F8",
"7 	c #8D8D8D",
"8 	c #121212",
"9 	c #292929",
"0 	c #B0B0B0",
"a 	c #7E7E7E",
"b 	c #1F1F1F",
"c 	c #F4F4F4",
"d 	c #C4C4C4",
"e 	c #030303",
"f 	c #CACACA",
"g 	c #F3F3F3",
"h 	c #1C1C1C",
"i 	c #818181",
"j 	c #DADADA",
"k 	c #D9D9D9",
"l 	c #5B5B5B",
"m 	c #4A4A4A",
"n 	c #CBCBCB",
"o 	c #EFEFEF",
"p 	c #767676",
"q 	c #080808",
"r 	c #040404",
"s 	c #AEAEAE",
"t 	c #2E2E2E",
"u 	c #676767",
"v 	c #747474",
"w 	c #252525",
"x 	c #969696",
"y 	c #F9F9F9",
"z 	c #D5D5D5",
"A 	c #4E4E4E",
"B 	c #CFCFCF",
"C 	c #444444",
"D 	c #8F8F8F",
"E 	c #151515",
"F 	c #EDEDED",
"G 	c #D4D4D4",
"H 	c #B8B8B8",
"I 	c #8C8C8C",
"J 	c #242424",
"K 	c #2A2A2A",
"L 	c #939393",
"M 	c #F7F7F7",
"N 	c #D2D2D2",
"O 	c #010101",
"P 	c #DCDCDC",
"Q 	c #E6E6E6",
"R 	c #0E0E0E",
"S 	c #9D9D9D",
"T 	c #FEFEFE",
"U 	c #3E3E3E",
"V 	c #545454",
"W 	c #161616",
"X 	c #909090",
"Y 	c #EBEBEB",
"Z 	c #181818",
"` 	c #7F7F7F",
" .	c #A2A2A2",
"..	c #0C0C0C",
"+.	c #E3E3E3",
"@.	c #F0F0F0",
"#.	c #171717",
"$.	c #8A8A8A",
"                                            ",
"                                            ",
"                                            ",
"                                            ",
"                                            ",
"                                            ",
". + + + + + + + + + + + + + + + + + + + + . ",
"@ # # $ % & * = # # # # - ; > $ , ' ) ! ~ @ ",
"          { ] ! ^ / ( _ : < ( [ } | 1 2 3   ",
"      ' 4 5 6 7 8 9 0 a b c d e f g h i     ",
"  j   k l e m n o p q r s / t u ( v w       ",
"  m h x y z $ ; A B 4 C ( D E F G & H       ",
"    I J K L M N > O , P Q R S T U V         ",
"        7 W ! X Y Z ` ( = ' T  ...+.        ",
"            X ! 2 : M @.q B ( #.$.          ",
"                                            ",
"                                            ",
"                                            ",
"                                            ",
"                                            ",
"                                            ",
"                                            "};
