/* XPM */
static char * civil_motor_xpm[] = {
"22 22 71 1",
" 	c None",
".	c #AEAEAE",
"+	c #6D6D6D",
"@	c #2C2C2C",
"#	c #090909",
"$	c #242424",
"%	c #393939",
"&	c #545454",
"*	c #ABABAB",
"=	c #9E9E9E",
"-	c #111111",
";	c #000000",
">	c #191919",
",	c #8C8C8C",
"'	c #E2E2E2",
")	c #3F3F3F",
"!	c #373737",
"~	c #828282",
"{	c #C3C3C3",
"]	c #F1F1F1",
"^	c #DADADA",
"/	c #C4C4C4",
"(	c #9D9D9D",
"_	c #1B1B1B",
":	c #404040",
"<	c #232323",
"[	c #141414",
"}	c #A5A5A5",
"|	c #FFFFFF",
"1	c #FEFEFE",
"2	c #9B9B9B",
"3	c #0E0E0E",
"4	c #323232",
"5	c #F2F2F2",
"6	c #4C4C4C",
"7	c #333333",
"8	c #F7F7F7",
"9	c #F6F6F6",
"0	c #E0E0E0",
"a	c #262626",
"b	c #868686",
"c	c #131313",
"d	c #DFDFDF",
"e	c #E9E9E9",
"f	c #F5F5F5",
"g	c #1F1F1F",
"h	c #9F9F9F",
"i	c #B5B5B5",
"j	c #A4A4A4",
"k	c #1E1E1E",
"l	c #B6B6B6",
"m	c #2B2B2B",
"n	c #FDFDFD",
"o	c #313131",
"p	c #9A9A9A",
"q	c #5F5F5F",
"r	c #838383",
"s	c #919191",
"t	c #676767",
"u	c #D0D0D0",
"v	c #1A1A1A",
"w	c #BCBCBC",
"x	c #3C3C3C",
"y	c #DCDCDC",
"z	c #E6E6E6",
"A	c #1D1D1D",
"B	c #3E3E3E",
"C	c #C5C5C5",
"D	c #101010",
"E	c #ADADAD",
"F	c #ACACAC",
"       .+@#$%&*       ",
"     =-;;;;;;;;>,     ",
"   ');;!~{]^/(_;;:    ",
"   <;[}|||||||123;45  ",
"  6;789||||||||90a;@  ",
" b;cd|@e||||||e@|fg;h ",
" [;i||;@e||||e@;||j;k ",
"l;m|||;;@e||e@;;||no;p",
"q;r|||;;;@ee@;;;|||s;t",
"$;u|||;;v;v@;@;;|||w;x",
"<;y|||;;e@;;@e;;|||z;[",
"<;y|||;;|e@@e|;;|||z;[",
"$;u|||;;||9e||;;|||w;x",
"q;r|||;;||||||;;|||s;t",
"l;m|||;;||||||;;||no;p",
" [;l||||||||||||||j;A ",
" b;c0||||||||||||fg;h ",
"  6;78||||||||||0a;m  ",
"   <;[}|||||||123;45  ",
"   'B;;!~{]^C(_;;:    ",
"     (D;;;;;;;;>,     ",
"       E+@#$%&F       "};
