/* XPM */
static char * hcompressor_xpm[] = {
"22 22 91 1",
" 	c None",
".	c #ADADAD",
"+	c #6D6D6D",
"@	c #2C2C2C",
"#	c #090909",
"$	c #242424",
"%	c #393939",
"&	c #545454",
"*	c #ACACAC",
"=	c #9D9D9D",
"-	c #101010",
";	c #000000",
">	c #191919",
",	c #8C8C8C",
"'	c #E2E2E2",
")	c #3E3E3E",
"!	c #373737",
"~	c #828282",
"{	c #C3C3C3",
"]	c #F1F1F1",
"^	c #D9D9D9",
"/	c #C4C4C4",
"(	c #9C9C9C",
"_	c #1B1B1B",
":	c #3F3F3F",
"<	c #1C1C1C",
"[	c #131313",
"}	c #A5A5A5",
"|	c #FFFFFF",
"1	c #FEFEFE",
"2	c #9B9B9B",
"3	c #0E0E0E",
"4	c #323232",
"5	c #E9E9E9",
"6	c #4C4C4C",
"7	c #010101",
"8	c #1D1D1D",
"9	c #4A4A4A",
"0	c #777777",
"a	c #A4A4A4",
"b	c #D1D1D1",
"c	c #F9F9F9",
"d	c #E0E0E0",
"e	c #262626",
"f	c #2B2B2B",
"g	c #878787",
"h	c #0A0A0A",
"i	c #2E2E2E",
"j	c #050505",
"k	c #595959",
"l	c #868686",
"m	c #B3B3B3",
"n	c #F3F3F3",
"o	c #1F1F1F",
"p	c #9F9F9F",
"q	c #141414",
"r	c #B6B6B6",
"s	c #FDFDFD",
"t	c #DADADA",
"u	c #808080",
"v	c #535353",
"w	c #030303",
"x	c #161616",
"y	c #B7B7B7",
"z	c #F5F5F5",
"A	c #CBCBCB",
"B	c #9E9E9E",
"C	c #717171",
"D	c #444444",
"E	c #171717",
"F	c #9A9A9A",
"G	c #5F5F5F",
"H	c #838383",
"I	c #BCBCBC",
"J	c #525252",
"K	c #676767",
"L	c #D0D0D0",
"M	c #3C3C3C",
"N	c #232323",
"O	c #DCDCDC",
"P	c #E6E6E6",
"Q	c #272727",
"R	c #BDBDBD",
"S	c #F6F6F6",
"T	c #454545",
"U	c #181818",
"V	c #252525",
"W	c #F4F4F4",
"X	c #363636",
"Y	c #404040",
"Z	c #ABABAB",
"       .+@#$%&*       ",
"     =-;;;;;;;;>,     ",
"   ');;!~{]^/(_;;:    ",
"   <;[}|||||||123;45  ",
"  6;;7890abc||||de;f  ",
" g;hij;;;;;j@klmdno;p ",
" q;r|st.uvew;;;;;#e;x ",
"y;f||||||||zABCDE;;;;F",
"G;H||||||||||||||nIJ;K",
"$;L||||||||||||||||I;M",
"N;O||||||||||||||||P;Q",
"N;O||||||||||||||||P;%",
"$;L||||||||||||||||I;M",
"G;H||||||||||||||nRJ;K",
"r;f||||||||SABCTU;;;;F",
" q;r|st.uvew;;;;;#V;x ",
" l;hij;;;;;j@klmdWo;p ",
"  6;;;890abc||||de;f  ",
"   <;[}|||||||123;45  ",
"   ');;X~{]t/=_;;Y    ",
"     =-;;;;;;;;>,     ",
"       .+@#$%&Z       "};
