/* XPM */
static char * hpump_xpm[] = {
"22 22 90 1",
" 	c None",
".	c #ADADAD",
"+	c #5C5C5C",
"@	c #2C2C2C",
"#	c #090909",
"$	c #242424",
"%	c #393939",
"&	c #545454",
"*	c #ACACAC",
"=	c #9D9D9D",
"-	c #101010",
";	c #000000",
">	c #191919",
",	c #8C8C8C",
"'	c #E2E2E2",
")	c #3E3E3E",
"!	c #2E2E2E",
"~	c #0B0B0B",
"{	c #121212",
"]	c #999999",
"^	c #C4C4C4",
"/	c #9C9C9C",
"(	c #1B1B1B",
"_	c #3F3F3F",
":	c #232323",
"<	c #141414",
"[	c #A5A5A5",
"}	c #FFFFFF",
"|	c #EBEBEB",
"1	c #4B4B4B",
"2	c #010101",
"3	c #727272",
"4	c #F9F9F9",
"5	c #FEFEFE",
"6	c #9B9B9B",
"7	c #0E0E0E",
"8	c #323232",
"9	c #E9E9E9",
"0	c #4C4C4C",
"a	c #333333",
"b	c #F7F7F7",
"c	c #8B8B8B",
"d	c #050505",
"e	c #363636",
"f	c #DEDEDE",
"g	c #E0E0E0",
"h	c #262626",
"i	c #2B2B2B",
"j	c #878787",
"k	c #131313",
"l	c #DFDFDF",
"m	c #C8C8C8",
"n	c #202020",
"o	c #ABABAB",
"p	c #F4F4F4",
"q	c #1F1F1F",
"r	c #9F9F9F",
"s	c #B6B6B6",
"t	c #EFEFEF",
"u	c #525252",
"v	c #6A6A6A",
"w	c #A4A4A4",
"x	c #1D1D1D",
"y	c #B7B7B7",
"z	c #939393",
"A	c #070707",
"B	c #303030",
"C	c #D7D7D7",
"D	c #313131",
"E	c #9A9A9A",
"F	c #5F5F5F",
"G	c #838383",
"H	c #CECECE",
"I	c #252525",
"J	c #0D0D0D",
"K	c #5D5D5D",
"L	c #676767",
"M	c #D0D0D0",
"N	c #F2F2F2",
"O	c #5A5A5A",
"P	c #3A3A3A",
"Q	c #DCDCDC",
"R	c #080808",
"S	c #1A1A1A",
"T	c #292929",
"U	c #949494",
"V	c #868686",
"W	c #F5F5F5",
"X	c #2D2D2D",
"Y	c #404040",
"       .+@#$%&*       ",
"     =-;;;;;;;;>,     ",
"   ');;!~;{]^/(;;_    ",
"   :;<[}|1;234567;89  ",
"  0;ab}}}5cd;ef}gh;i  ",
" j;kl}}}}}}mn;-o}pq;r ",
" <;s}}}}}}}}tu;;vbw;x ",
"y;i}}}}}}}}}}}zA;BCD;E",
"F;G}}}}}}}}}}}}HI;JK;L",
"$;M}}}}}}}}}}}}}NO;;;P",
":;Q}}}}}}}}}}}}}}}6R;S",
":;Q}}}}}}}}}}}}}}}/R;T",
"$;M}}}}}}}}}}}}}NO;;;P",
"F;G}}}}}}}}}}}}HI;JK;L",
"s;i}}}}}}}}}}}UA;BCD;E",
" <;s}}}}}}}}tu;;vbw;x ",
" V;kg}}}}}}mn;-o}Wq;r ",
"  0;ab}}}5,d;ef}gh;i  ",
"   :;<[}|1;234567;89  ",
"   ');;X~;{]^=(;;Y    ",
"     =-;;;;;;;;>,     ",
"       .+@#$%&o       "};
