/* XPM */
static char * hpump_xpm[] = {
"22 22 52 1",
" 	c None",
".	c #000000",
"+	c #414141",
"@	c #2B2B2B",
"#	c #616161",
"$	c #121212",
"%	c #717171",
"&	c #535353",
"*	c #363636",
"=	c #696969",
"-	c #494949",
";	c #797979",
">	c #1B1B1B",
",	c #5A5A5A",
"'	c #3B3B3B",
")	c #323232",
"!	c #656565",
"~	c #767676",
"{	c #6D6D6D",
"]	c #464646",
"^	c #4D4D4D",
"/	c #7D7D7D",
"(	c #3A3A3A",
"_	c #1F1F1F",
":	c #5E5E5E",
"<	c #3F3F3F",
"[	c #434343",
"}	c #2E2E2E",
"|	c #646464",
"1	c #737373",
"2	c #6B6B6B",
"3	c #4B4B4B",
"4	c #676767",
"5	c #707070",
"6	c #383838",
"7	c #787878",
"8	c #4F4F4F",
"9	c #7F7F7F",
"0	c #424242",
"a	c #727272",
"b	c #373737",
"c	c #6A6A6A",
"d	c #7A7A7A",
"e	c #3C3C3C",
"f	c #333333",
"g	c #474747",
"h	c #7E7E7E",
"i	c #444444",
"j	c #747474",
"k	c #6C6C6C",
"l	c #4C4C4C",
"m	c #686868",
"         h!a9         ",
"      2<>i,^[[+j      ",
"    /]-/a*k   7i+h    ",
"   df5   hi&    %b;   ",
"  hbd      :ed   ~};  ",
"  0k        jbc   j[  ",
" {l          9g8   i1 ",
" i7            #(; d< ",
" e              ~64 < ",
"13               9-l0/",
"%8                 |_m",
"%8                 |_=",
"13               9-l0/",
" e              ~64 < ",
" i7            #'; d< ",
" {l          9g8   i1 ",
"  0k        jbc   j[  ",
"  hbd      :ed   ~};  ",
"   df5   hi&    %*;   ",
"    /]$_@)k   7i+h    ",
"      .........       ",
"        .....         "};
