/* XPM */
static char * hrest1_xpm[] = {
"20 21 8 1",
" 	c None",
".	c #222222",
"+	c #1B1B1B",
"@	c #303030",
"#	c #313131",
"$	c #202020",
"%	c #3E3E3E",
"&	c #151515",
"              .+  @@",
"             .#$  @@",
"            .# $  @@",
"           .#  $  @@",
"          .#   $  @@",
"         .#    $  @@",
"        .#     $  @@",
"       .#      $  @@",
"  %   .#       $  @@",
" #&# .#        $  @@",
"#. .+#         $  @@",
"#. .+#         $  @@",
" #&# .#        $  @@",
"  %   .#       $  @@",
"       .#      $  @@",
"        .#     $  @@",
"         .#    $  @@",
"          .#   $  @@",
"           .#  $  @@",
"            .# $  @@",
"             .#$  @@"};
