/* XPM */
static char * hrest_xpm[] = {
"22 22 44 1",
" 	c None",
".	c #E7E7E7",
"+	c #8C8C8C",
"@	c #EAEAEA",
"#	c #E4E4E4",
"$	c #212121",
"%	c #000000",
"&	c #2B2B2B",
"*	c #323232",
"=	c #E8E8E8",
"-	c #272727",
";	c #373737",
">	c #EBEBEB",
",	c #2D2D2D",
"'	c #585858",
")	c #555555",
"!	c #EFEFEF",
"~	c #383838",
"{	c #4E4E4E",
"]	c #FAFAFA",
"^	c #F3F3F3",
"/	c #3E3E3E",
"(	c #474747",
"_	c #F8F8F8",
":	c #FFFFFF",
"<	c #444444",
"[	c #404040",
"}	c #F6F6F6",
"|	c #E2E2E2",
"1	c #4B4B4B",
"2	c #3A3A3A",
"3	c #E3E3E3",
"4	c #242424",
"5	c #484848",
"6	c #343434",
"7	c #F0F0F0",
"8	c #333333",
"9	c #262626",
"0	c #EDEDED",
"a	c #F5F5F5",
"b	c #4D4D4D",
"c	c #545454",
"d	c #ECECEC",
"e	c #282828",
"              .+   @  ",
"             #$%& *%  ",
"            =-%%; *%  ",
"           >,%'%; *%  ",
"           *%)!%; *%  ",
"          ~%{]^%; *%  ",
"         /%(_:^%; *%  ",
"        <%[}::^%; *%  ",
"   #<| 1%2^:::^%; *%  ",
"  34%$5%67::::^%; 8%  ",
"  4%9%%-0:::::^%; 8%  ",
"  4%9%%-0:::::^%; 8%  ",
"  34%$5%67::::^%; 8%  ",
"   #<| 1%2^:::^%; 8%  ",
"        <%[a::^%; 8%  ",
"         /%(_:^%; 8%  ",
"          ~%b]^%; 8%  ",
"           *%c!%; 8%  ",
"           d,%'%; 8%  ",
"            =e%%; 8%  ",
"             #$%& 8%  ",
"                      "};
