/* XPM */
static char * vcompressor_xpm[] = {
"22 22 91 1",
" 	c None",
".	c #9A9A9A",
"+	c #676767",
"@	c #3C3C3C",
"#	c #272727",
"$	c #393939",
"%	c #9F9F9F",
"&	c #161616",
"*	c #000000",
"=	c #E9E9E9",
"-	c #2B2B2B",
";	c #525252",
">	c #BCBCBC",
",	c #E6E6E6",
"'	c #323232",
")	c #1F1F1F",
"!	c #262626",
"~	c #FFFFFF",
"{	c #BDBDBD",
"]	c #252525",
"^	c #3F3F3F",
"/	c #F3F3F3",
"(	c #090909",
"_	c #F4F4F4",
":	c #404040",
"<	c #8C8C8C",
"[	c #0E0E0E",
"}	c #E0E0E0",
"|	c #171717",
"1	c #181818",
"2	c #191919",
"3	c #9B9B9B",
"4	c #B3B3B3",
"5	c #444444",
"6	c #454545",
"7	c #ACACAC",
"8	c #1B1B1B",
"9	c #FEFEFE",
"0	c #868686",
"a	c #717171",
"b	c #ABABAB",
"c	c #545454",
"d	c #9C9C9C",
"e	c #595959",
"f	c #9E9E9E",
"g	c #9D9D9D",
"h	c #C4C4C4",
"i	c #2C2C2C",
"j	c #CBCBCB",
"k	c #242424",
"l	c #D9D9D9",
"m	c #F9F9F9",
"n	c #050505",
"o	c #030303",
"p	c #F5F5F5",
"q	c #F6F6F6",
"r	c #DADADA",
"s	c #F1F1F1",
"t	c #D1D1D1",
"u	c #C3C3C3",
"v	c #A4A4A4",
"w	c #535353",
"x	c #6D6D6D",
"y	c #828282",
"z	c #777777",
"A	c #808080",
"B	c #ADADAD",
"C	c #373737",
"D	c #4A4A4A",
"E	c #363636",
"F	c #101010",
"G	c #A5A5A5",
"H	c #1D1D1D",
"I	c #131313",
"J	c #010101",
"K	c #FDFDFD",
"L	c #3E3E3E",
"M	c #2E2E2E",
"N	c #E2E2E2",
"O	c #1C1C1C",
"P	c #0A0A0A",
"Q	c #B6B6B6",
"R	c #4C4C4C",
"S	c #838383",
"T	c #D0D0D0",
"U	c #DCDCDC",
"V	c #878787",
"W	c #141414",
"X	c #B7B7B7",
"Y	c #5F5F5F",
"Z	c #232323",
"       .+@#$@+.       ",
"     %&********&%     ",
"   =-***;>,,>;***-=   ",
"   '*)!*>~~~~{*])*'   ",
"  ^*!/(*/~~~~/*(_!*:  ",
" <*[}}*|~~~~~~1*}}[*< ",
" 2*3~4*5~~~~~~6*4~3*2 ",
"7*89~0*a~~~~~~a*0~98*b",
"c*d~~e*f~~~~~~f*e~~g*c",
"$*h~~i*j~~~~~~j*i~~h*$",
"k*l~mnop~~~~~~qonm~r*k",
"(*s~t*!~~~~~~~~!*t~s*(",
"i*u~v*w~~~~~~~~w*v~u*i",
"x*y~z*A~~~~~~~~A*z~y*x",
"B*C~D*B~~~~~~~~B*D~E*B",
" F*GH*r~~~~~~~~r*HG*F ",
" g*IJnK~~~~~~~~Kn*I*g ",
"  L**M~~~~~~~~~~M**L  ",
"  NO*PQ~~~~~~~~QP*ON  ",
"    R**-STUUTS-**R    ",
"     VW********W0     ",
"       XYkZZkYQ       "};
