/* XPM */
static char * vpump_xpm[] = {
"22 22 52 1",
" 	c None",
".	c #000000",
"+	c #404040",
"@	c #202020",
"#	c #616161",
"$	c #333333",
"%	c #535353",
"&	c #717171",
"*	c #494949",
"=	c #6A6A6A",
"-	c #2E2E2E",
";	c #797979",
">	c #3A3A3A",
",	c #5D5D5D",
"'	c #767676",
")	c #444444",
"!	c #676767",
"~	c #4F4F4F",
"{	c #6E6E6E",
"]	c #7D7D7D",
"^	c #232323",
"/	c #363636",
"(	c #3E3E3E",
"_	c #424242",
":	c #646464",
"<	c #737373",
"[	c #4B4B4B",
"}	c #6C6C6C",
"|	c #222222",
"1	c #555555",
"2	c #3C3C3C",
"3	c #787878",
"4	c #464646",
"5	c #707070",
"6	c #7F7F7F",
"7	c #252525",
"8	c #383838",
"9	c #414141",
"0	c #626262",
"a	c #727272",
"b	c #6B6B6B",
"c	c #7A7A7A",
"d	c #3B3B3B",
"e	c #5E5E5E",
"f	c #454545",
"g	c #7E7E7E",
"h	c #373737",
"i	c #3F3F3F",
"j	c #434343",
"k	c #747474",
"l	c #4C4C4C",
"m	c #6D6D6D",
"         g0{6         ",
"      b((47@jj9k      ",
"    ]4*] l::l 3)9g    ",
"   c$5  !*  *!  &/;   ",
"  ghc  ;86  68;  '-;  ",
"  _}   >'    'd   kj  ",
" ml   ~#      #~   )a ",
" )3  =4        4=  ci ",
" 2  ch6        6hc  i ",
"<[  2k          k2  _.",
"&~ %,            e% 1.",
"&~})              )}1.",
"<*/g              g/+.",
" |a                a^.",
" )3                ci ",
" ml                f< ",
"  _}              kj  ",
"  g/c            '-;  ",
"   c$5          &/;   ",
"    ]4*]      3)9g    ",
"       ........       ",
"         ....         "};
