/* XPM */
static char * vpump_xpm[] = {
"22 22 90 1",
" 	c None",
".	c #9A9A9A",
"+	c #676767",
"@	c #3A3A3A",
"#	c #1A1A1A",
"$	c #292929",
"%	c #9F9F9F",
"&	c #1D1D1D",
"*	c #000000",
"=	c #E9E9E9",
"-	c #2B2B2B",
";	c #313131",
">	c #5D5D5D",
",	c #080808",
"'	c #323232",
")	c #1F1F1F",
"!	c #A4A4A4",
"~	c #D7D7D7",
"{	c #0D0D0D",
"]	c #9B9B9B",
"^	c #9C9C9C",
"/	c #3F3F3F",
"(	c #262626",
"_	c #F4F4F4",
":	c #F7F7F7",
"<	c #303030",
"[	c #5A5A5A",
"}	c #FFFFFF",
"|	c #F5F5F5",
"1	c #404040",
"2	c #8C8C8C",
"3	c #0E0E0E",
"4	c #E0E0E0",
"5	c #6A6A6A",
"6	c #252525",
"7	c #F2F2F2",
"8	c #191919",
"9	c #ABABAB",
"0	c #070707",
"a	c #CECECE",
"b	c #ACACAC",
"c	c #1B1B1B",
"d	c #FEFEFE",
"e	c #DEDEDE",
"f	c #101010",
"g	c #939393",
"h	c #949494",
"i	c #545454",
"j	c #F9F9F9",
"k	c #363636",
"l	c #525252",
"m	c #9D9D9D",
"n	c #393939",
"o	c #C4C4C4",
"p	c #727272",
"q	c #202020",
"r	c #EFEFEF",
"s	c #242424",
"t	c #999999",
"u	c #010101",
"v	c #050505",
"w	c #C8C8C8",
"x	c #090909",
"y	c #121212",
"z	c #8B8B8B",
"A	c #2C2C2C",
"B	c #4B4B4B",
"C	c #5C5C5C",
"D	c #0B0B0B",
"E	c #EBEBEB",
"F	c #ADADAD",
"G	c #2E2E2E",
"H	c #2D2D2D",
"I	c #A5A5A5",
"J	c #141414",
"K	c #3E3E3E",
"L	c #333333",
"M	c #DFDFDF",
"N	c #E2E2E2",
"O	c #232323",
"P	c #131313",
"Q	c #B6B6B6",
"R	c #4C4C4C",
"S	c #838383",
"T	c #D0D0D0",
"U	c #DCDCDC",
"V	c #878787",
"W	c #868686",
"X	c #B7B7B7",
"Y	c #5F5F5F",
"       .+@#$@+.       ",
"     %&********&%     ",
"   =-**;>*,,*>;**-=   ",
"   '*)!~{*]^*{~!)*'   ",
"  /*(_:<*[}}[*<:|(*1  ",
" 2*34}5*67}}76*5}43*2 ",
" 8*]}9*0a}}}}a0*9}]*8 ",
"b*cdef*g}}}}}}h*fedc*9",
"i*^jk*l}}}}}}}}l*kjm*i",
"n*op*qr}}}}}}}}rq*po*n",
"s*tuvw}}}}}}}}}}wvut*s",
"x*y*z}}}}}}}}}}}}2*y*x",
"A**Bd}}}}}}}}}}}}dB**A",
"C*DE}}}}}}}}}}}}}}ED*C",
"F*G}}}}}}}}}}}}}}}}H*F",
" f*I}}}}}}}}}}}}}}I*f ",
" m*J:}}}}}}}}}}}}:J*m ",
"  K*LM}}}}}}}}}}4L*K  ",
"  NO*PQ}}}}}}}}QP*ON  ",
"    R**-STUUTS-**R    ",
"     VJ********JW     ",
"       XYsOOsYQ       "};
