/* XPM */
static char * vrest_xpm[] = {
"22 22 44 1",
" 	c None",
".	c #E3E3E3",
"+	c #242424",
"@	c #E4E4E4",
"#	c #000000",
"$	c #444444",
"%	c #262626",
"&	c #E2E2E2",
"*	c #212121",
"=	c #484848",
"-	c #4B4B4B",
";	c #272727",
">	c #343434",
",	c #EDEDED",
"'	c #3E3E3E",
")	c #3A3A3A",
"!	c #F0F0F0",
"~	c #FFFFFF",
"{	c #383838",
"]	c #404040",
"^	c #F3F3F3",
"/	c #ECECEC",
"(	c #323232",
"_	c #474747",
":	c #F5F5F5",
"<	c #F6F6F6",
"[	c #EBEBEB",
"}	c #E8E8E8",
"|	c #2D2D2D",
"1	c #4D4D4D",
"2	c #F8F8F8",
"3	c #4E4E4E",
"4	c #282828",
"5	c #545454",
"6	c #FAFAFA",
"7	c #555555",
"8	c #585858",
"9	c #EFEFEF",
"0	c #E7E7E7",
"a	c #8C8C8C",
"b	c #2B2B2B",
"c	c #373737",
"d	c #333333",
"e	c #EAEAEA",
"                      ",
"                      ",
"         .++.         ",
"        @+##+@        ",
"        $#%%#$        ",
"        &*##*&        ",
"         =##=         ",
"        -#;;#-        ",
"       $#>,,>#$       ",
"      '#)!~~!)#'      ",
"     {#]^~~~~^]#{     ",
"   /(#_:~~~~~~<_#([   ",
"  }|#12~~~~~~~~23#|}  ",
" @4#56~~~~~~~~~~67#;@ ",
" *#89^^^^^^^^^^^^98#*0",
" ####################a",
" bccccccccccccccccccb ",
"                      ",
" dddddddddddd(((((((( ",
" ####################e",
"                      ",
"                      "};
