/* XPM */
static char * vrest1_xpm[] = {
"22 19 13 1",
" 	c None",
".	c #000000",
"+	c #404040",
"@	c #626262",
"#	c #2D2D2D",
"$	c #7E7E7E",
"%	c #141414",
"&	c #6B6B6B",
"*	c #323232",
"=	c #444444",
"-	c #424242",
";	c #151515",
">	c #333333",
"......................",
"                      ",
"                      ",
"%.....................",
"..                  ..",
" ..                .. ",
"  ..              ..  ",
"   ..            ..   ",
"    ..          ..    ",
"     ..        ..     ",
"      ..      ..      ",
"       ..    ..       ",
"        ..  ..        ",
"         ....         ",
"          ..          ",
"         ....         ",
"        ..  .         ",
"         ....         ",
"          ..          "};
