/* XPM */
static char * water_level_xpm[] = {
"22 22 33 1",
" 	c None",
".	c #2E2E2E",
"+	c #000000",
"@	c #ACACAC",
"#	c #4E4E4E",
"$	c #888888",
"%	c #4D4D4D",
"&	c #313131",
"*	c #FEFEFE",
"=	c #FFFFFF",
"-	c #303030",
";	c #AFAFAF",
">	c #2A2A2A",
",	c #727272",
"'	c #4A4A4A",
")	c #323232",
"!	c #393939",
"~	c #6E6E6E",
"{	c #444444",
"]	c #6D6D6D",
"^	c #BCBCBC",
"/	c #B5B5B5",
"(	c #171717",
"_	c #D6D6D6",
":	c #D2D2D2",
"<	c #D1D1D1",
"[	c #A9A9A9",
"}	c #A5A5A5",
"|	c #0B0B0B",
"1	c #E4E4E4",
"2	c #E2E2E2",
"3	c #909090",
"4	c #060606",
"                      ",
"     .++++++++++.     ",
"     @+#$$$$$$%+@     ",
"      .&*====*-.      ",
"      @+;====;+@      ",
"       .&*==*-.       ",
"       @+;==;+@       ",
"        .&**-.        ",
"        @+;;+@        ",
"         .&>.         ",
" ,''''''')++)''''''', ",
" !++++++++++++++++++! ",
" ~{{{{{{{{..{{{{{{{{] ",
"       ^//////^       ",
"       (++++++(       ",
"       _:::::<_       ",
"         [}}[         ",
"         |++|         ",
"         1221         ",
"                      ",
"          33          ",
"          44          "};
