<?xml version="1.0" encoding="UTF-8" standalone="no"?>
<svg
   xmlns:dc="http://purl.org/dc/elements/1.1/"
   xmlns:cc="http://creativecommons.org/ns#"
   xmlns:rdf="http://www.w3.org/1999/02/22-rdf-syntax-ns#"
   xmlns:svg="http://www.w3.org/2000/svg"
   xmlns="http://www.w3.org/2000/svg"
   xmlns:xlink="http://www.w3.org/1999/xlink"
   viewBox="0 0 74 74"
   style="display:inline;enable-background:new"
   version="1.0"
   id="svg11300"
   height="74"
   width="74">
  <defs
     id="defs3">
    <linearGradient
       id="linearGradient6698">
      <stop
         id="stop6694"
         offset="0"
         style="stop-color:#deddda;stop-opacity:1;" />
      <stop
         id="stop6696"
         offset="1"
         style="stop-color:#bebcb6;stop-opacity:1" />
    </linearGradient>
    <filter
       height="1.0214334"
       y="-0.010716653"
       width="1.0272651"
       x="-0.013632531"
       id="filter16020"
       style="color-interpolation-filters:sRGB">
      <feGaussianBlur
         id="feGaussianBlur16022"
         stdDeviation="2.0004419" />
    </filter>
    <linearGradient
       y2="252.83385"
       x2="277.7128"
       y1="-9.2708836"
       x1="277.7128"
       gradientUnits="userSpaceOnUse"
       id="linearGradient1924"
       xlink:href="#linearGradient6698" />
    <radialGradient
       r="16.75"
       fy="32.5"
       fx="1.75"
       cy="32.5"
       cx="1.75"
       gradientTransform="matrix(0.5970149,0,0,0.11940292,681.86684,-1544.8528)"
       gradientUnits="userSpaceOnUse"
       id="radialGradient3718"
       xlink:href="#linearGradient3704" />
    <linearGradient
       id="linearGradient3704">
      <stop
         id="stop3706"
         offset="0"
         style="stop-color:#000000;stop-opacity:1;" />
      <stop
         id="stop3708"
         offset="1"
         style="stop-color:#000000;stop-opacity:0;" />
    </linearGradient>
    <linearGradient
       y2="11.664844"
       x2="22.856943"
       y1="31.5"
       x1="28.549463"
       gradientTransform="matrix(0.7583496,0,0,0.8232527,662.30912,-1567.4675)"
       gradientUnits="userSpaceOnUse"
       id="linearGradient4097"
       xlink:href="#linearGradient4009" />
    <linearGradient
       id="linearGradient4009">
      <stop
         id="stop4011"
         offset="0"
         style="stop-color:#f57900;stop-opacity:1;" />
      <stop
         id="stop4013"
         offset="1"
         style="stop-color:#ffc286;stop-opacity:1;" />
    </linearGradient>
    <linearGradient
       y2="11.664844"
       x2="22.856943"
       y1="31.5"
       x1="28.549463"
       gradientTransform="matrix(0.7583496,0,0,0.8232527,662.30912,-1567.4675)"
       gradientUnits="userSpaceOnUse"
       id="linearGradient4099"
       xlink:href="#linearGradient4001" />
    <linearGradient
       id="linearGradient4001">
      <stop
         id="stop4003"
         offset="0"
         style="stop-color:#ce5c00;stop-opacity:1;" />
      <stop
         id="stop4005"
         offset="1"
         style="stop-color:#ed6a00;stop-opacity:1;" />
    </linearGradient>
    <linearGradient
       y2="26.5"
       x2="38.5"
       y1="26.5"
       x1="21.5"
       gradientTransform="matrix(0.8364915,0,0,0.9520619,657.29227,-1571.1517)"
       gradientUnits="userSpaceOnUse"
       id="linearGradient4101"
       xlink:href="#linearGradient3711" />
    <linearGradient
       id="linearGradient3711">
      <stop
         id="stop3713"
         offset="0"
         style="stop-color:#ffffff;stop-opacity:0.93814433;" />
      <stop
         id="stop3715"
         offset="1"
         style="stop-color:#ffffff;stop-opacity:0.62886596;" />
    </linearGradient>
    <radialGradient
       r="16.75"
       fy="32.5"
       fx="1.75"
       cy="32.5"
       cx="1.75"
       gradientTransform="matrix(0.5970149,0,0,0.2835821,668.95522,-1538.9664)"
       gradientUnits="userSpaceOnUse"
       id="radialGradient3714"
       xlink:href="#linearGradient3704" />
    <radialGradient
       gradientUnits="userSpaceOnUse"
       gradientTransform="matrix(1.1940298,0,0,0.2089552,675.91045,-1540.291)"
       r="16.75"
       fy="32.5"
       fx="1.75"
       cy="32.5"
       cx="1.75"
       id="radialGradient3710"
       xlink:href="#linearGradient3704" />
    <linearGradient
       gradientTransform="matrix(1.0263312,0,0,1.137931,659.55314,-1575.1724)"
       gradientUnits="userSpaceOnUse"
       y2="8"
       x2="6.5"
       y1="45.5"
       x1="20.9375"
       id="linearGradient3916"
       xlink:href="#linearGradient3928" />
    <linearGradient
       id="linearGradient3928">
      <stop
         id="stop3930"
         offset="0"
         style="stop-color:#61635f;stop-opacity:1;" />
      <stop
         id="stop3932"
         offset="1"
         style="stop-color:#999b96;stop-opacity:1;" />
    </linearGradient>
    <linearGradient
       gradientTransform="matrix(1.0263312,0,0,1.137931,659.55314,-1575.1724)"
       gradientUnits="userSpaceOnUse"
       y2="8"
       x2="6.5"
       y1="45.5"
       x1="20.9375"
       id="linearGradient3924"
       xlink:href="#linearGradient3936" />
    <linearGradient
       id="linearGradient3936">
      <stop
         id="stop3938"
         offset="0"
         style="stop-color:#1f2325;stop-opacity:1;" />
      <stop
         id="stop3940"
         offset="1"
         style="stop-color:#3a4244;stop-opacity:1;" />
    </linearGradient>
    <linearGradient
       gradientTransform="matrix(1.0263312,0,0,1.1439261,659.55314,-1575.3673)"
       gradientUnits="userSpaceOnUse"
       y2="24"
       x2="46.0625"
       y1="24"
       x1="2"
       id="linearGradient3956"
       xlink:href="#linearGradient3711" />
    <linearGradient
       y2="17.715658"
       x2="5.9831495"
       y1="41.908779"
       x1="13.069444"
       gradientUnits="userSpaceOnUse"
       id="linearGradient4106"
       xlink:href="#linearGradient3928" />
    <linearGradient
       y2="17.715658"
       x2="5.9831495"
       y1="41.908779"
       x1="13.069444"
       gradientUnits="userSpaceOnUse"
       id="linearGradient4108"
       xlink:href="#linearGradient3936" />
    <linearGradient
       gradientTransform="matrix(2.2499993,0,0,2.2811505,-6.8749968,-3.4840278)"
       gradientUnits="userSpaceOnUse"
       y2="3.3344855"
       x2="6.1932435"
       y1="7.267767"
       x1="7.500001"
       id="linearGradient3703"
       xlink:href="#linearGradient3697" />
    <linearGradient
       id="linearGradient3697">
      <stop
         id="stop3699"
         offset="0"
         style="stop-color:#73d216;stop-opacity:1;" />
      <stop
         id="stop3701"
         offset="1"
         style="stop-color:#adf06b;stop-opacity:1;" />
    </linearGradient>
    <linearGradient
       gradientTransform="matrix(2.2499993,0,0,2.2811505,-6.8749968,-3.4840278)"
       gradientUnits="userSpaceOnUse"
       y2="7.267767"
       x2="7.500001"
       y1="3.3344855"
       x1="6.1932435"
       id="linearGradient3695"
       xlink:href="#linearGradient3689" />
    <linearGradient
       id="linearGradient3689">
      <stop
         id="stop3691"
         offset="0"
         style="stop-color:#4e9a06;stop-opacity:1;" />
      <stop
         id="stop3693"
         offset="1"
         style="stop-color:#2e5b03;stop-opacity:1;" />
    </linearGradient>
    <linearGradient
       gradientTransform="matrix(0.7777777,0,0,0.8110756,-1.6666666,-1.2789127)"
       gradientUnits="userSpaceOnUse"
       y2="12.75"
       x2="19.999998"
       y1="12.75"
       x1="10.000001"
       id="linearGradient3717"
       xlink:href="#linearGradient3711" />
    <linearGradient
       y2="37"
       x2="13.5"
       y1="12.625"
       x1="5.5"
       gradientTransform="matrix(1,0,0,1.0454545,-1.0367424e-6,-0.659091)"
       gradientUnits="userSpaceOnUse"
       id="linearGradient4110"
       xlink:href="#linearGradient3711" />
  </defs>
  <metadata
     id="metadata4">
    <rdf:RDF>
      <cc:Work
         rdf:about="">
        <dc:format>image/svg+xml</dc:format>
        <dc:type
           rdf:resource="http://purl.org/dc/dcmitype/StillImage" />
        <dc:creator>
          <cc:Agent>
            <dc:title>Jakub Steiner</dc:title>
          </cc:Agent>
        </dc:creator>
        <dc:source>http://jimmac.musichall.cz</dc:source>
        <cc:license
           rdf:resource="" />
        <dc:title></dc:title>
        <dc:subject>
          <rdf:Bag>
            <rdf:li>mp3</rdf:li>
            <rdf:li>audio</rdf:li>
            <rdf:li>media</rdf:li>
            <rdf:li>file</rdf:li>
            <rdf:li>audio</rdf:li>
            <rdf:li>sound</rdf:li>
            <rdf:li>music</rdf:li>
            <rdf:li>wave</rdf:li>
          </rdf:Bag>
        </dc:subject>
        <dc:date />
        <dc:rights>
          <cc:Agent>
            <dc:title />
          </cc:Agent>
        </dc:rights>
        <dc:publisher>
          <cc:Agent>
            <dc:title />
          </cc:Agent>
        </dc:publisher>
        <dc:identifier />
        <dc:relation />
        <dc:language />
        <dc:coverage />
        <dc:description>mimetypes</dc:description>
        <dc:contributor>
          <cc:Agent>
            <dc:title />
          </cc:Agent>
        </dc:contributor>
      </cc:Work>
    </rdf:RDF>
  </metadata>
  <g
     transform="translate(-616,1588)"
     style="display:inline;opacity:1"
     id="g15551">
    <g
       transform="matrix(0.125,0,0,0.125,543.375,-1329.125)"
       id="g2575">
      <g
         id="use3924"
         style="display:inline;stroke-width:0.25;enable-background:new"
         transform="matrix(4,0,0,4,621.00001,-10999)">
        <title
           id="title1869">text-x-preview</title>
        <g
           id="g1920">
          <g
             transform="matrix(0.25,0,0,0.25,0,2295)"
             id="g1881"
             style="stroke-width:0.25">
            <g
               id="g1877"
               style="stroke-width:0.25">
              <path
                 id="path1871"
                 d="m 111.82842,-178.55025 h 200 L 432,-58.878679 432.005,237.36136 c 3.1e-4,17.728 -14.44878,32.08839 -32.17678,32.08839 h -288 c -17.72799,0 -31.999992,-14.272 -31.999992,-32 v -384 c 0,-17.728 14.272002,-32 31.999992,-32 z"
                 clip-path="none"
                 style="display:inline;opacity:0.4;fill:#000000;fill-opacity:1;stroke:none;stroke-width:0.5;stroke-linejoin:round;stroke-miterlimit:4;stroke-dasharray:none;stroke-opacity:1;filter:url(#filter16020);enable-background:new" />
              <path
                 style="display:inline;opacity:1;fill:#f6f5f4;fill-opacity:1;stroke:none;stroke-width:0.5;stroke-linejoin:round;stroke-miterlimit:4;stroke-dasharray:none;stroke-opacity:1;enable-background:new"
                 clip-path="none"
                 d="m 111.82842,-179.67158 h 200 L 432,-60 l 0.005,296.24003 c 3.1e-4,17.728 -14.44878,32.08839 -32.17678,32.08839 h -288 c -17.727992,0 -31.999992,-14.272 -31.999992,-32 v -384 c 0,-17.728 14.272,-32 31.999992,-32 z"
                 id="path1873" />
              <path
                 style="display:inline;opacity:1;vector-effect:none;fill:#deddda;fill-opacity:1;stroke:none;stroke-width:0.5;stroke-linecap:butt;stroke-linejoin:round;stroke-miterlimit:4;stroke-dasharray:none;stroke-dashoffset:0;stroke-opacity:1;enable-background:new"
                 d="m 311.82842,-179.67158 v 88.000008 c 0,17.728 14.44211,31.693795 32.17011,31.693795 L 432,-60 Z"
                 id="path1875" />
            </g>
            <g
               id="g1879"
               transform="translate(-3,-2.5)"
               style="stroke-width:0.25" />
          </g>
          <rect
             style="display:inline;opacity:1;vector-effect:none;fill:none;fill-opacity:1;stroke:none;stroke-width:1.25;stroke-linecap:butt;stroke-linejoin:miter;stroke-miterlimit:4;stroke-dasharray:none;stroke-dashoffset:0;stroke-opacity:1;marker:none;marker-start:none;marker-mid:none;marker-end:none;paint-order:normal;enable-background:new"
             id="rect1883"
             width="128"
             height="128"
             x="-1.5000001e-06"
             y="2242" />
          <g
             style="stroke-width:2.6693635"
             id="g1891"
             transform="matrix(0.02341382,0,0,0.02341382,134.88091,2247.9567)" />
          <g
             style="stroke-width:2.62472105"
             transform="matrix(0.02381205,0,0,0.02381205,134.64164,2248.0475)"
             id="g1893" />
        </g>
      </g>
    </g>
    <g
       transform="matrix(0.79622997,0,0,0.79622997,110.08068,-311.9003)"
       id="g2072">
      <ellipse
         ry="1.9999989"
         rx="10"
         cy="-1540.9723"
         cx="682.91162"
         style="opacity:0.32386361;fill:url(#radialGradient3718);fill-opacity:1;stroke:none;stroke-width:0.50137269;stroke-linecap:butt;stroke-linejoin:miter;stroke-miterlimit:4;stroke-dasharray:none;stroke-opacity:1"
         id="path3716" />
      <path
         style="fill:url(#linearGradient4097);fill-opacity:1;stroke:url(#linearGradient4099);stroke-width:1;stroke-linecap:butt;stroke-linejoin:miter;stroke-miterlimit:4;stroke-dasharray:none;stroke-opacity:1"
         d="m 683.27965,-1558.4722 -8.53777,16.9676 17.48223,0.032 z m -0.1679,6.4359 4.11623,7.8162 -7.96246,-0.032 z"
         id="path3977" />
      <path
         style="opacity:0.54255317;fill:none;fill-opacity:1;stroke:url(#linearGradient4101);stroke-width:0.99999988;stroke-linecap:butt;stroke-linejoin:miter;stroke-miterlimit:4;stroke-dasharray:none;stroke-opacity:1"
         d="m 683.31953,-1556.0972 -6.90792,13.6539 14.08027,-0.087 z m -0.23279,1.8304 5.86866,10.9967 -11.27432,-0.1004 z"
         id="path4017" />
      <ellipse
         ry="4.75"
         rx="10"
         cy="-1529.75"
         cx="670"
         style="opacity:0.17613639;fill:url(#radialGradient3714);fill-opacity:1;stroke:none;stroke-width:0.77266741;stroke-linecap:butt;stroke-linejoin:miter;stroke-miterlimit:4;stroke-dasharray:none;stroke-opacity:1"
         id="path3712" />
      <ellipse
         ry="3.4999995"
         rx="20"
         cy="-1533.5"
         cx="678"
         style="opacity:0.3125;fill:url(#radialGradient3710);fill-opacity:1;stroke:none;stroke-width:0.93798256;stroke-linecap:butt;stroke-linejoin:miter;stroke-miterlimit:4;stroke-dasharray:none;stroke-opacity:1"
         id="path2733" />
      <path
         style="fill:url(#linearGradient3916);fill-opacity:1;stroke:url(#linearGradient3924);stroke-width:0.99999988;stroke-linecap:butt;stroke-linejoin:miter;stroke-miterlimit:4;stroke-dasharray:none;stroke-opacity:1"
         d="m 661.09118,-1565.5 c 0,0 0,2 0,2 v 2 c 0,0 -0.004,0 23.13258,0 4.82021,0.013 9.14806,1.5269 12.19318,3.8438 3.05853,2.3271 4.79578,5.3632 4.79578,8.6562 0,3.2931 -1.73725,6.3292 -4.79578,8.6563 -3.05852,2.3271 -7.41011,3.8437 -12.25588,3.8437 -11.56851,0 -17.35671,0 -20.24883,0 -1.44607,0 -2.17743,0 -2.53895,0 -0.18075,0 -0.26826,0 -0.31345,0 -0.0226,0 -0.0257,0 -0.0313,0 0,0 0,2 0,2 v 2 c 0,0 -0.004,0 23.13257,0 5.67411,0 10.86042,-1.7343 14.70079,-4.6562 3.84037,-2.9219 6.36302,-7.1328 6.36302,-11.8438 0,-4.7109 -2.52265,-8.9218 -6.36302,-11.8437 -3.82607,-2.9111 -8.98875,-4.6434 -14.63809,-4.6563 -11.56852,0 -17.35672,0 -20.24884,0 -1.44607,0 -2.14608,0 -2.5076,0 -0.18076,0 -0.29961,0 -0.3448,0 -0.0226,0 -0.0257,0 -0.0313,0 z"
         id="path3812" />
      <path
         style="opacity:0.375;fill:none;fill-opacity:1;stroke:url(#linearGradient3956);stroke-width:0.99999976;stroke-linecap:butt;stroke-linejoin:miter;stroke-miterlimit:4;stroke-dasharray:none;stroke-opacity:1"
         d="m 662.13355,-1564.5 -0.0522,1.9984 c 0,0 0.0959,0.052 23.23289,0.052 4.82021,0.013 9.91503,2.4127 12.83465,4.959 3.15474,2.7545 4.19394,5.9649 4.02214,9.5244 -0.14386,2.9543 -2.91681,6.9847 -4.85604,8.2693 -2.60372,1.7247 -7.27872,4.0671 -12.00707,4.0589 -8.33459,-0.015 -17.34893,0.1348 -20.24106,0.1348 -1.44607,0 -2.08121,0 -2.44272,0 -0.18076,0 -0.48476,0 -0.52995,0 -0.0226,0 -0.0257,0 -0.0313,0 l -0.008,1.9995 c 0,0 0.25245,0.077 23.38916,-0.043 4.26801,-0.022 8.89846,-1.4575 12.73883,-4.3948 3.84038,-2.9373 6.01573,-6.6699 6.07988,-10.1187 0.0881,-4.7348 -1.8432,-8.5105 -5.11219,-11.285 -3.30829,-2.8078 -8.25107,-5.1148 -13.90041,-5.1277 -11.56852,0 -17.29257,-0.031 -20.1847,-0.031 -1.44606,0 -2.14608,0 -2.5076,0 -0.18075,0 -0.2996,0 -0.34479,0 -0.0226,0 -0.0738,0 -0.0794,0 z"
         id="path3944" />
      <g
         id="g3896"
         transform="matrix(1,0,0,1.0959383,660,-1574.4317)">
        <path
           id="rect3719"
           d="M 7.4999995,13.500004 H 12.5 v 23.999994 h 1.534233 l -3.971733,5.0625 -4.0940198,-5.069757 1.5315193,0.0073 z"
           style="fill:url(#linearGradient4106);fill-opacity:1;stroke:url(#linearGradient4108);stroke-width:0.95522773;stroke-linecap:butt;stroke-linejoin:miter;stroke-miterlimit:4;stroke-opacity:1" />
        <rect
           y="4.4999995"
           x="5.5000019"
           height="9.1246014"
           width="8.9999981"
           id="rect2694"
           style="opacity:1;fill:url(#linearGradient3703);fill-opacity:1;stroke:url(#linearGradient3695);stroke-width:0.95522803;stroke-linecap:butt;stroke-linejoin:miter;stroke-miterlimit:4;stroke-dasharray:none;stroke-opacity:1" />
        <path
           id="rect3705"
           d="M 6.5000005,5.4124604 H 13.499999 V 12.712142 H 6.5000005 Z"
           style="opacity:0.53409095;fill:none;fill-opacity:1;stroke:url(#linearGradient3717);stroke-width:0.95522803;stroke-linecap:butt;stroke-linejoin:miter;stroke-miterlimit:4;stroke-opacity:1" />
        <path
           id="rect3721"
           d="m 8.5,14.499999 h 3 v 23.999998 h 0.484375 L 10.0625,40.953122 8.046875,38.499997 H 8.5 Z"
           style="opacity:0.375;fill:none;fill-opacity:1;stroke:url(#linearGradient4110);stroke-width:0.95522761;stroke-linecap:butt;stroke-linejoin:miter;stroke-miterlimit:4;stroke-opacity:1" />
      </g>
    </g>
  </g>
</svg>
