<?xml version="1.0" encoding="UTF-8"?>
<svg xmlns="http://www.w3.org/2000/svg" xmlns:xlink="http://www.w3.org/1999/xlink" width="16px" height="16px" viewBox="0 0 16 16" version="1.1">
<defs>
<linearGradient id="linear0" gradientUnits="userSpaceOnUse" x1="120" y1="-17" x2="10" y2="-17" >
<stop offset="0" style="stop-color:rgb(0%,0%,0%);stop-opacity:1;"/>
<stop offset="1" style="stop-color:rgb(23.921569%,21.960784%,27.450982%);stop-opacity:1;"/>
</linearGradient>
</defs>
<g id="surface491268">
<path style="fill:none;stroke-width:2;stroke-linecap:butt;stroke-linejoin:miter;stroke:url(#linear0);stroke-miterlimit:4;" d="M 8.035156 -57.300781 L 8.035156 -46.898438 L 68.183594 -46.898438 C 80.714844 -46.867188 91.96875 -42.929688 99.882812 -36.90625 C 107.835938 -30.855469 112.351562 -22.960938 112.351562 -14.398438 C 112.351562 -5.839844 107.835938 2.054688 99.882812 8.105469 C 91.933594 14.15625 80.617188 18.101562 68.019531 18.101562 L 7.875 18.101562 L 7.875 28.5 L 68.019531 28.5 C 82.773438 28.5 96.257812 23.992188 106.242188 16.394531 C 116.226562 8.796875 122.785156 -2.152344 122.785156 -14.398438 C 122.785156 -26.648438 116.226562 -37.597656 106.242188 -45.195312 C 96.292969 -52.761719 82.871094 -57.265625 68.183594 -57.300781 Z M 8.035156 -57.300781 " transform="matrix(1,0,0,1,-134,80)"/>
<path style=" stroke:none;fill-rule:nonzero;fill:rgb(74.509805%,74.509805%,74.509805%);fill-opacity:1;" d="M 5 1 L 5 3 L 8 3 C 10 3 10 3 11 4 C 12 5 12.996094 6.523438 13 8 C 13 10 12 11 11 12 C 10 13 10 13 8 13 C 5.914062 13.039062 5.097656 12.996094 3 13 L 3 5 L 1 5 L 1 15 L 2 15 C 4.261719 14.988281 5.722656 15.042969 8 15 C 11 15 12.316406 14.101562 13.492188 12.644531 L 13.496094 12.636719 L 13.5 12.632812 C 14.671875 11.09375 14.980469 9.566406 15 8 C 14.996094 6.492188 14.453125 4.164062 13.082031 2.914062 L 13.074219 2.90625 C 11.625 1.636719 11 1 8 1 Z M 5 1 "/>
<path style=" stroke:none;fill-rule:nonzero;fill:rgb(74.509805%,74.509805%,74.509805%);fill-opacity:1;" d="M 0 0 L 4 0 L 4 4 L 0 4 Z M 0 0 "/>
<path style=" stroke:none;fill-rule:nonzero;fill:rgb(74.509805%,74.509805%,74.509805%);fill-opacity:1;" d="M 7.5 5 L 5 10 L 10 10 Z M 7.5 5 "/>
</g>
</svg>
