/* XPM */
static char * analog_clock_xpm[] = {
"22 22 10 1",
" 	c None",
".	c #000000",
"+	c #4E4E4E",
"@	c #A3A3A3",
"#	c #DDDDDD",
"$	c #323232",
"%	c #C0C0C0",
"&	c #FFFFFF",
"*	c #000080",
"=	c #FBFBFB",
"                      ",
"                      ",
"        ......        ",
"      ..+@##@+..      ",
"     .$%&&&*&&%$.     ",
"    .+=&&&&*&&&=+.    ",
"   .$=&&&&&*&&&&=$.   ",
"   .%&&&&&&*&&&&&%.   ",
"  .+&&&&&&&*&&&&&&+.  ",
"  .@&&&&&&&*&&&&&&@.  ",
"  .#&&&&&&&*&&&&&&#.  ",
"  .#&&&&&&&*&&&&&&#.  ",
"  .@&&&&&**&&&&&&&@.  ",
"  .+&&&**&&&&&&&&&+.  ",
"   .%&&&&&&&&&&&&%.   ",
"   .$=&&&&&&&&&&=$.   ",
"    .+=&&&&&&&&=+.    ",
"     .$%&&&&&&%$.     ",
"      ..+@##@+..      ",
"        ......        ",
"                      ",
"                      "};
