/* XPM */
static const char * diagram_as_element_xpm[] = {
"22 22 206 2",
"  	c None",
". 	c #4E4E4E",
"+ 	c #5B5B5B",
"@ 	c #2D2D2D",
"# 	c #3D3D3D",
"$ 	c #5D5D5D",
"% 	c #7E7E7E",
"& 	c #9C9C9B",
"* 	c #8D8D8D",
"= 	c #3C3C3B",
"- 	c #474747",
"; 	c #555555",
"> 	c #6B6B6B",
", 	c #898988",
"' 	c #969696",
") 	c #A5A5A5",
"! 	c #B0B0AF",
"~ 	c #A5A5A4",
"{ 	c #5D5D5C",
"] 	c #717171",
"^ 	c #878787",
"/ 	c #8E8E8E",
"( 	c #A2A2A1",
"_ 	c #AEAEAD",
": 	c #B3B3B3",
"< 	c #B1B1B1",
"[ 	c #ADADAC",
"} 	c #838383",
"| 	c #606060",
"1 	c #B5B5B5",
"2 	c #A2A2A2",
"3 	c #737373",
"4 	c #5C6C5C",
"5 	c #60755F",
"6 	c #969796",
"7 	c #AFAFAF",
"8 	c #AEAEAE",
"9 	c #ADADAD",
"0 	c #9D9D9D",
"a 	c #565656",
"b 	c #888888",
"c 	c #BBBBBB",
"d 	c #5E615E",
"e 	c #1D751D",
"f 	c #1A8E1A",
"g 	c #7B847B",
"h 	c #ABABAB",
"i 	c #ACACAC",
"j 	c #ABABAA",
"k 	c #272727",
"l 	c #727272",
"m 	c #7A7A79",
"n 	c #6A6A6A",
"o 	c #636563",
"p 	c #296629",
"q 	c #267726",
"r 	c #7B827A",
"s 	c #A8A8A8",
"t 	c #9E9E9E",
"u 	c #515151",
"v 	c #5C5C5C",
"w 	c #7F7F7E",
"x 	c #7C7C7C",
"y 	c #646463",
"z 	c #393F38",
"A 	c #3B433B",
"B 	c #5F605E",
"C 	c #706F6E",
"D 	c #727171",
"E 	c #747474",
"F 	c #8A8A8A",
"G 	c #A8A8A7",
"H 	c #AFAFAE",
"I 	c #808080",
"J 	c #686868",
"K 	c #858585",
"L 	c #595959",
"M 	c #606160",
"N 	c #7C7979",
"O 	c #8A5F5F",
"P 	c #875E5E",
"Q 	c #7A7878",
"R 	c #5F5F5F",
"S 	c #6E6E6E",
"T 	c #A7A7A7",
"U 	c #B9B9B8",
"V 	c #B8B8B8",
"W 	c #8D8E8D",
"X 	c #B9A8A7",
"Y 	c #D15A57",
"Z 	c #C95656",
"` 	c #AB9D9D",
" .	c #3F3F3F",
"..	c #7B7B7B",
"+.	c #B7B7B7",
"@.	c #898989",
"#.	c #5E5E5E",
"$.	c #BEBEBE",
"%.	c #CACACA",
"&.	c #C5C5C4",
"*.	c #8C8C8C",
"=.	c #6D6B6B",
"-.	c #896665",
";.	c #884746",
">.	c #864645",
",.	c #7F5C5C",
"'.	c #747171",
").	c #3E3E3E",
"!.	c #5A5A5A",
"~.	c #BCBCBC",
"{.	c #B3B3B2",
"].	c #666666",
"^.	c #444444",
"/.	c #BABABA",
"(.	c #DADADA",
"_.	c #D6D6D6",
":.	c #999999",
"<.	c #7F6363",
"[.	c #A03736",
"}.	c #934C4B",
"|.	c #984E4B",
"1.	c #992F2E",
"2.	c #775D5C",
"3.	c #383837",
"4.	c #656565",
"5.	c #C2C2C2",
"6.	c #C5C5C5",
"7.	c #9A9A9A",
"8.	c #434341",
"9.	c #373737",
"0.	c #E7E7E7",
"a.	c #E1E1E1",
"b.	c #AA8B8B",
"c.	c #D47878",
"d.	c #D07778",
"e.	c #D07777",
"f.	c #C86B6A",
"g.	c #8D6D6D",
"h.	c #474646",
"i.	c #CBCBCB",
"j.	c #CBCBCA",
"k.	c #797978",
"l.	c #959595",
"m.	c #E9E9E9",
"n.	c #BFBFBF",
"o.	c #777777",
"p.	c #777676",
"q.	c #94908F",
"r.	c #969292",
"s.	c #8F8B8B",
"t.	c #6F6D6D",
"u.	c #868685",
"v.	c #D1D1D0",
"w.	c #CFCFCE",
"x.	c #C6C6C6",
"y.	c #9B9B9A",
"z.	c #3C3C3C",
"A.	c #E5E5E5",
"B.	c #929292",
"C.	c #989898",
"D.	c #D5D5D5",
"E.	c #D4D4D4",
"F.	c #C3C3C3",
"G.	c #919191",
"H.	c #535353",
"I.	c #D7D7D7",
"J.	c #E4E4E4",
"K.	c #949494",
"L.	c #DCDCDC",
"M.	c #E3E3E2",
"N.	c #E0E0E0",
"O.	c #E1E1E0",
"P.	c #DEDEDD",
"Q.	c #CCCCCC",
"R.	c #222222",
"S.	c #070707",
"T.	c #FAFAFA",
"U.	c #E6E6E6",
"V.	c #F4F4F4",
"W.	c #F3F3F3",
"X.	c #EFEFEF",
"Y.	c #D2D2D2",
"Z.	c #636363",
"`.	c #262626",
" +	c #080808",
".+	c #000000",
"++	c #FFFFFF",
"@+	c #FEFEFE",
"#+	c #F9F9F9",
"$+	c #EDEDED",
"%+	c #CFCFCF",
"&+	c #575756",
"*+	c #616161",
"=+	c #DFDFDF",
"-+	c #E8E8E8",
";+	c #C0C0C0",
">+	c #868686",
",+	c #484848",
"'+	c #181818",
")+	c #050505",
"!+	c #313131",
"~+	c #0F0F0F",
"{+	c #040404",
"]+	c #141414",
"^+	c #121212",
"/+	c #0B0B0B",
"                                            ",
"                        . +                 ",
"                @ # $ % & * =               ",
"          - ; > , ' ) ! ! ~ {               ",
"        ] ^ / ( _ : : < ! [ }               ",
"      | 1 2 3 4 5 6 ! 7 8 9 0 a             ",
"      b c ' d e f g h 8 [ i j %             ",
"    k l m n o p q r s i h i 8 t u           ",
"      v w x y z A B C D E F G H I           ",
"      J 2 0 K L M N O P Q R S T ) a         ",
"      S U V : K W X Y Z ` }  ...+.@.        ",
"      #.$.%.&.*.=.-.;.>.,.'.).!.~.{.].      ",
"      ^./.(._.:.<.[.}.|.1.2.3.4.5.6.7.8.    ",
"      9.< 0.a.) b.c.d.e.f.g.h./ i.j.c k.    ",
"        l.m.n.o.p.q.q.r.s.t.u.c v.w.x.y.z.  ",
"        E A./.].J B.' C.0 7 %.D.E.F.G.H.    ",
"        R I.J.K.0 L.A.M.N.O.P.Q.( R R.S.    ",
"          +.T.U.0.V.W.X.A.Y.T Z.`. +.+.+    ",
"          *.V.++@+#+$+%+' &+`. +.+.+.+.+    ",
"          *+=+#+-+;+>+,+'+)+.+.+.+.+        ",
"            * t > !+~+{+.+.+                ",
"            ]+^+/+                          "};
