/* XPM */
static const char * measure_xpm[] = {
"22 22 4 1",
" 	c None",
".	c #AAAAAA",
"+	c #555555",
"@	c #000000",
"                      ",
"    .                 ",
"   .+                 ",
"   +@.                ",
"  +@@+                ",
"  +@@+                ",
".+@@@@+               ",
".+@@@@+               ",
"+@@@@@@+              ",
"   @@.. .+            ",
"   +@   +@  @@ @ @ @@ ",
"   +@    @ @   @  @. @",
"   +@    @ @   @  @. @",
"   +@    @  @@ @  q. @",
"+@@@@@@+              ",
" +@@@@+               ",
" +@@@@+               ",
" .+@@+                ",
"  +@@+                ",
"  .@+                 ",
"   @.                 ",
"                      "};
