/* XPM */
static char * newgroup_icon[] = {
"22 22 4 1",
" 	c None",
".	c #00FC00",
"+	c #000000",
"@	c #FFFFFF",
"                      ",
" ...+++++...+++++...  ",
" ...+++++...+++++...  ",
" ...+++++...+++++...  ",
" +++@@@@@@@@@@@@@+++  ",
" +++@@@@@@@@@@@@@+++  ",
" +++@@@@@@@@@@@@@+++  ",
" +++@@@@@@@@@@@@@+++  ",
" +++@@@@@@@@@@@@@+++  ",
" ...@@@@@@@@@@@@@...  ",
" ...@@@@@@@@@@@@@...  ",
" ...@@@@@@@@@@@@@...  ",
" +++@@@@@@@@@@@@@+++  ",
" +++@@@@@@@@@@@@@+++  ",
" +++@@@@@@@@@@@@@+++  ",
" +++@@@@@@@@@@@@@+++  ",
" +++@@@@@@@@@@@@@+++  ",
" ...+++++...+++++...  ",
" ...+++++...+++++...  ",
" ...+++++...+++++...  ",
"                      ",
"                      "};
