/* XPM */
static char * l_soutnot_xpm[] = {
"22 22 2 1",
" 	c None",
".	c #000000",
"                      ",
"                      ",
"                      ",
"         .  .         ",
"         . .          ",
"         ..           ",
"         . .          ",
"         .  .         ",
"                      ",
"                 . .  ",
"                  .   ",
"        .    .   . .  ",
"       .      .       ",
"       .    . .       ",
" .......  ..  ....... ",
"       . .    .       ",
"       .      .       ",
"        .    .        ",
"                      ",
"                      ",
"                      ",
"                      "};
