/* XPM */
static const char *kaos_agent_xpm[] = {
/* width height ncolors chars_per_pixel */
"22 22 3 1",
/* colors */
"` c black",
"a c none",
"b c white",
/* pixels */
"aaaaaaaaaaaaaaaaaaaaaa",
"aaaaaaaaaaaaaaaaaaaaaa",
"aaaaaaaaaaaaaaaaaaaaaa",
"aaaaaaaaaaaaaaaaaaaaaa",
"aaaaa````````````aaaaa",
"aaaaa`bbbbbbbbbb`aaaaa",
"aaaa`bbbbbbbbbbbb`aaaa",
"aaaa`bb```bbbbbbb`aaaa",
"aaa`bbb```bbbbbbbb`aaa",
"aaa`bbbb`bbbbbbbbb`aaa",
"aa`bbb`````bbbbbbbb`aa",
"aa`bbbbb`bbbbbbbbbb`aa",
"aaa`bbbb`bbbbbbbbb`aaa",
"aaa`bbb`b`bbbbbbbb`aaa",
"aaaa`b`bbb`bbbbbb`aaaa",
"aaaa`bbbbbbbbbbbb`aaaa",
"aaaaa`bbbbbbbbbb`aaaaa",
"aaaaa````````````aaaaa",
"aaaaaaaaaaaaaaaaaaaaaa",
"aaaaaaaaaaaaaaaaaaaaaa",
"aaaaaaaaaaaaaaaaaaaaaa",
"aaaaaaaaaaaaaaaaaaaaaa"
};

