/* XPM */
static const char * mid_obstructs_xpm[] = {
"64 64 21 1",
" 	c None",
".	c #110609",
"+	c #9F8F92",
"@	c #950E24",
"#	c #A54E5D",
"$	c #D0CAC9",
"%	c #9C2D40",
"&	c #594E4F",
"*	c #9F6F77",
"=	c #4C3237",
"-	c #BAAFB1",
";	c #580F1B",
">	c #FEFBFA",
",	c #F32D4E",
"'	c #F66F85",
")	c #F98FA1",
"!	c #F01237",
"~	c #F54F6A",
"{	c #727172",
"]	c #FAB1BE",
"^	c #FDD2D8",
"]^]^^>>>>>>>>>>>>>>>>>>>>>>>>>>>>>>>>>>>>>>>>>>>>>>>^^^))'~~~,~'",
"))]]^^^>>>>>>>>>>>>>>>>>>>>>>>>>>>>>>>>>>>>>>>>>>>>>^]])'~,,!,,~",
"''')]]^^>>>>>>>>>>>>>>>>>>>>>>>>>>>>>>>>>>>>>>>>>^^^]])'~~,!!!,~",
",~~')]^^^>>>>>>>>>>>>>>>>>>>>>>>>>>>>>>>>>>>>>>>>^^^))~~,,!!!!!~",
"!,,~'']]^>>>>>>>>>>>>>>>>>>>>>>>>>>>>>>>>>>>>>^^^^]))'~,!!!!!!,~",
"!!,,~')]^^>>>>>>>>>>>>>>>>>>>>>>>>>>>>>>>>>>^^^^]])'~~,,!!!!!,,~",
"!!!!,~~)]]^>>>>>>>>>>>>>>>>>>>>>>>>>>>>>>>^>^^]))''~~,,!!!!!,,~'",
"!!!!,,~')]^^>>>>>>>>>>>>>>>>>>>>>>>>>>>>>>^^]])''~~~,,!!!!!,,~')",
"!!!!!,,~))]^^>>>>>>>>>>>>>>>>>>>>>>>>>>>^^]]))'~~,,!!!!!!!!,~')]",
"!!!!!!,~~)*+++$>>>>>>>>>>>>>>>>>>$^>>>^^^]])'~~,,,!!!!!!!,~~'']]",
",!!!!!!,~'.==&.=>>>>>>>>>>>>>>>>>=->>^^^]))'~~,!!!!!!!!!,,~')]]^",
"~,!!!!!!,,.)]]$.->>>>>>>>>>>>>>>>.$^^^]])'~~,,!!!!!!!!!,,~'']^^^",
"~~,!!!!!,%.'']].->&$&{>>$=..{>>>$.^^^*&)'~;...@!!!;!;..;'')]]^>>",
"'~,,!!!!!;;~')=.^^.={^>+.$>$.&>>+&^]*.'~~.;!!@.@!!.;@~#.%)]^^^>>",
")'~,!!!!!;;;;..)^+.->>-.>>>>$.-^&&]*.~~~.@,!!!@;!@.,~~'#.]^^>>>>",
"])'~,,!!!.@@%=.#){&^>>.+>>>>>.+^=*'.#~,!.!!!!!!.,%;'')]*.^^^>>>>",
"^])'~,!!!.!!,,%.)={^>-.>>>>>^.+].#.%,,,;........,=%))]]{=>>>>>>>",
"^]]''~,!@.!!!!%.';*^^+.>>>>^+.]'..;.,!!;;!!!!,,~'.*]^^^&&>>>>>>>",
">^]])'~,@;!!!!;;~.']^-.$>>^^.&)#.%,.@!!@.!!,,~.').-]^^>.->>>>>>>",
">^^]))'~;;@@@.;!%.')]^&.+>+==)';;!!@.!!!.;@%%.#)*.^^>>>.$>>>>>>>",
">>>^]]''%;;;;@!!!;~')^^{&.=*)~~%@!!!;@!!,;.;=']]-*^>>>$&>>>>>>>>",
">>>^^]])'~,!!!!!!,~')]^^^]])'~,,!!!!!!,,~~'))]]^^>>>>>>>>>>>>>>>",
">>>>>^]))~~,!!!!!!,~')]]]))~~,,!!!!!!,,~'')]]^^>>>>>>>>>>>>>>>>>",
">>>>>>^]]''~,!!!!!!~~')))''~,!!!!!!!,~~'))]^^^>^>>>>>>>>>>>>>>>>",
">>>>>^>^]))~~,!!!!,,~'''''~,,!!!!!,,~~')]]^^>>>>>>>>>>>>>>>>>>>>",
">>>>>>^>^])'~,,!!!!!,~~~~~,,!!!!!!,~~))]^^^>>>>>>>>>>>>>>>>>>>>>",
">>>>>>>>^^])'~,!!!!!,,,~,,!!!!!!!,~'']]^^>>>>>>>>>>>>>>>>>>>>>>>",
">>>>>>>>>^^]'~,!!!!!!,!,!!!!!!!,,~'']]^^>>>>>>>>>>>>>>>>>>>>>>>>",
">>>>>>>>>^^])',,!!!!!!!!!!!!!!,,~')]]^>>>>>>>>>>>>>>>>>>>>>>>>>>",
">>>>>>>>>>^^)'~!!!!!!!!!!!!!!!,~'']]^>^>>>>>>>>>>>>>>>>>>>>>>>>>",
">>>>>>>>>>^^])~,!!!!!!!!!!!!!,~~)]]^^>>>>>>>>>>>>>>>>>>>>>>>>>>>",
">>>>>>>>>>>^])~~!!!!!!!!!!!!!~~')]^>>>>>>>>>>>>>>>>>>>>>>>>>>>>>",
">>>>>>>>>>^^])~~!!!!!!!!!!!!,~')]^^>>>>>>>>>>>>>>>>>>>>>>>>>>>>>",
">>>>>>>>>$$]])~,!!!!!!!!!!!!,~')]^^>>>>>>>>>>>>>>>>>>>>>>>>>>>>>",
">>>>>>>>>.$])'~~!!!!!!!!!!!!,~~)]^^>>>>>>>>>>>>>>>>>>>>>>>>>>>>>",
">>>>>>>>$.]])',,!!!!!!!!!!!!!~~')]^^>>>>>>>>>>>>>>>>>>>>>>>>>>>>",
">>>>>>^^+=]#%%..;!!;..@!!!!@;..%)=^^^^{..=>{$>>^&..=>>>>>>>>>>>>",
">>>>>>^^&=)#.;!!.;.@!@.@!!;.@!,=;.]^+=+>$&=.^>-.+>>&.^>>>>>>>>>>",
">>>>^^^]=#';.,!!@.@!!,;;!@.!!!,,.=').-^>>>=.>>.>>>>>&+>>>>>>>>>>",
">>>>^^]).#~;@!!!@.!,,,;;!.@!!!!!;;'&=]^^>>+&>{{>>>>>+&>>>>>>>>>>",
">>^^]])'.,,.!!!!@;,,~~.%%.!!!!!!;%~.#]]^^>{&>........&>>>>>>>>>>",
">^^]]''%.,!.!!!!;;~'''.*%.,,!!!!.@,.#))]^^.+>.->>>>>>>>>>>>>>>>>",
"^^]]''~%;!@.!!!!;%~')*.)*.%,!!!;.!,.@'')]{.->={>>>>+=>>>>>>>>>>>",
"^]))~~,;@!;;!!!,.~))]*=])=.%,@;..!!@.%~#==.^^+.+$-&&^>>>>>>>>>>>",
"])''~,!@@!@!!,,~=']]^{*^^]#..;@!@!!!@;.;%#=]]^-&.&+>>>>>>>>>>>>>",
")'~,,!!!!!!!,~~'))^^^>>^^]])'~,!!!@.!!,,~.%)]]^^^>>>>>>>>>>>>>>>",
"'~~,!!!!!!,,~~')]]^>>>>>^^]])'~,!!!.;!!%.;~'')]]^^>>>>>>>>>>>>>>",
"~,,!!!!!!!,~'))]^^>^>>>>>>^]]''~,!!!;..;@,,~~'))]$^^>>>>>>>>>>>>",
",!!!!!!!!,~'')^^^>>>>>>>>>^^]])'~,,!!!!!!!!,,~~')]]^^>>>>>>>>>>>",
",!!!!!!,,~'']]^^^>>>>>>>>>>>^]])'~,,!!!!!!!!,,~~'']]^^^>>>>>>>>>",
"!!!!!!,,~')]]^^>>>>>>>>>>>>>^^^])'~~,,!!!!!!!!,,~'')]^^^>>>>>>>>",
"!!!!!,~~'))^^>>>>>>>>>>>>>>>>^^^]]''~~,!!!!!!!!!,~'')]^^^>>>>>>>",
"!!!!,~~')]^^^>>>>>>>>>>>>>>>>>^^^]))'~~,,,!!!!!!!,,~'))^^^>>>>>>",
"!!,,~~))]^^^>>>>>>>>>>>>>>>>>>>>^^^]))'~~,,!!!!!!!,,~'']^^^>>>>>",
"!,,~'')]^^>>>>>>>>>>>>>>>>>>>>>>>^^^]])''~~,!!!!!!!,,~')]^>>>>>>",
",~~')]]^^>>>>>>>>>>>>>>>>>>>>>>>>>>^^^]))'~~,,!!!!!!!,~')]^^>>>>",
"''')]]^^>>>>>>>>>>>>>>>>>>>>>>>>>>>>^^^]])'~~,!!!!!!!!~')^^>>>>>",
"))]]^^^>>>>>>>>>>>>>>>>>>>>>>>>>>>>>>>>^^^))~~,!!!!!!!,')]^^>>>>",
"]]^^^>>>>>>>>>>>>>>>>>>>>>>>>>>>>>>>>>>^^^]))'~,,!!!!,~')^^>>>>>",
"^^^^>>>>>>>>>>>>>>>>>>>>>>>>>>>>>>>>>>>>^>^]))'~~,,!,,~))^^^>>>>",
">>>>>>>>>>>>>>>>>>>>>>>>>>>>>>>>>>>>>>>>>>^^^])''~~~~'')]^>>>>>>",
"^>>>>>>>>>>>>>>>>>>>>>>>>>>>>>>>>>>>>>>>>>>^^^]]))''')]]^^^>>>>>",
">>>>>>>>>>>>>>>>>>>>>>>>>>>>>>>>>>>>>>>>>>>>^^^^]]])]]]^^>>>>>>>",
">>>>>>>>>>>>>>>>>>>>>>>>>>>>>>>>>>>>>>>>>>>>>>^^^^^]^^^^^>>>>>>>"};
