/* XPM */
static const char *mid_controls_xpm[] = {
/* width height ncolors chars_per_pixel */
"32 32 10 1",
/* colors */
"` c black",
"a c none",
"b c gainsboro",
"c c dark slate gray",
"d c light gray",
"e c gray",
"f c dark gray",
"g c dim gray",
"h c light slate gray",
"i c slate gray",
/* pixels */
"aaaaaaaaaaaaaaabc``daaaaaaaaaaaa",
"aaaaaaaaaaefcghic``gaaaaaaaaaaaa",
"aaaaaaaaabfc``ggc``gaaaaaaaaaaaa",
"aaaaaaaaabhc``eccc`chgccaaaaaaaa",
"aaaaaaaaabic``iicc``icc`caaaaaaa",
"aaaaaadaadic``iic```icc`caaaaaaa",
"aaaaagc`abic`cdic``ghc```aaaaaaa",
"aaaaai``fdic``eic``gicc`caaaaaaa",
"aaaaaic`fdic`gdgc``ficc`gaaaaaaa",
"aaaadic`feic`gfg```ficc`caaaaaaa",
"aaaafic`hfgc`egcc`ifccc``aaaaaaa",
"aaaabi``gigc`fii``iic`c`caaaaaaa",
"aaaadic`ciiccfgc``eic`c`caaaaaaa",
"aaaadic`gfg`fdcc``fgcc``caaaaaaa",
"aaaaeic`gec`gic``hfcc```cigcaaaa",
"aaaabfc`gec`bfc``dfc```ccccceaaa",
"aaaabfi`ffccffc`gdcc```cccccaaaa",
"aaaabfg`bf`ieic`ifc````iccccaaaa",
"aaaabfcgdigffc`cficc``cgccccaaaa",
"aaaadigieggfi`cgii````ciccccaaaa",
"aaaadiidfiffg`cfhg````giccgcaaaa",
"aaaaffiffiffi`gficcc``ciccccaaaa",
"aaaadfifffffgcgigccc``ggcggfaaaa",
"aaaaedffdffeiggig`ccc`iicgcgaaaa",
"aaaafdffdffigggg`ccc``gcggcfaaaa",
"aaaadeffeifigggg`ggccciccccaaaaa",
"aaaafdfffifgggccggcccccggcaaaaaa",
"aaaafffefifggigccgcccgcccfaaaaaa",
"aaaaaefffiiiggc`ggcccccchaaaaaaa",
"aaaaaaffeiiiiccccccccccgfaaaaaaa",
"aaaaaaaafigigc`ccccccgghaaaaaaaa",
"aaaaaaaafiiigccccc``ccgaaaaaaaaa"
};

