/* XPM */
static const char *mid_monitors_xpm[] = {
/* width height ncolors chars_per_pixel */
"32 32 11 1",
/* colors */
"` c black",
"a c none",
"b c white smoke",
"c c light gray",
"d c gray",
"e c slate gray",
"f c dim gray",
"g c dark gray",
"h c dark slate gray",
"i c light slate gray",
"j c gainsboro",
/* pixels */
"aaaaaaaaaaaaaaaaaaaaaaaaaaaaaaaa",
"aaaaaaaaaaaaaaaaaaaaaaaaaaaaaaaa",
"aaaaaaaaaaaaaaaaaaaaaaaaaaaaaaaa",
"aaaaaaaa`````````````````aaaaaaa",
"aaaaaaa`bccdddddddeeeeeee`aaaaaa",
"aaaaaa`cdeeeeeeeeee`e`ee`e`aaaaa",
"aaaaa`cdfffffff`g`g`g`g``g``a`aa",
"aaaa`dehhhhh```e`e`e`e``e``e``aa",
"aaa`dehhhh`````````````h``h```aa",
"aa`dfhh`````hhh``````````````e`a",
"a`ffhh```hhhfhfhhhh`````````h``a",
"`ffhh``hiheff``hbbfh`hi```````h`",
"`fhh``hijeee```bbbbh``iii```````",
"`hh``hijjede```hbbfhh`djii``hh``",
"`h``eijbjeee``````hhf`djjiihhhe`",
"`h`egijjjhde``````fhh`djjiihheg`",
"``heeijjjiede````fefh`djdihh`hg`",
"``hhhhijjjhedeeeefff`iddih``hhh`",
"`eeeehhijjiheededeff`iihh`g`gge`",
"a`eeeehhhhiiheeeeef`hhh``hhhhe``",
"aa`geeeeehhhhhhh``h`eh`gh`gge``f",
"aaa`ggeeeeeehhhgh`g``ghhghhe``ff",
"aaaa`ggggggggghhghhghggggge``fff",
"aaaaa`egggggggggggggggggge``fffa",
"aaaaaa`egggggggggggggggge``fffaa",
"aaaaaaa`eeeeeeeeeeeeeeee``fffaaa",
"aaaaaaaa`````````````````fffaaaa",
"aaaaaaaaaaff````````````fffaaaaa",
"aaaaaaaaaaafffffffffffffffaaaaaa",
"aaaaaaaaaaaaaffffffffffffaaaaaaa",
"aaaaaaaaaaaaaaaaaaaaaaaaaaaaaaaa",
"aaaaaaaaaaaaaaaaaaaaaaaaaaaaaaaa"
};

