/* XPM */
static char *istar_link_xpm[] = {
/* width height ncolors chars_per_pixel */
"22 22 2 1",
/* colors */
"` c black",
"a c none",
/* pixels */
"aaaaaaaaaaaaaaaaaaaaaa",
"aaaaaaaaaaaaaaaaaaaaaa",
"aaaaaaaaaaaaaaaaaaaaaa",
"aaaaaaaaaa``aaaaaaaaaa",
"aaaaaaaaa````aaaaaaaaa",
"aaaaaaaaa````aaaaaaaaa",
"aaaaaaaa``````aaaaaaaa",
"aaaaaaa``a``a``aaaaaaa",
"aaaaaaa``a``a``aaaaaaa",
"aaaaaa``aa``aa``aaaaaa",
"aaaaaa``aa``aa``aaaaaa",
"aaaaaaaaaa``aaaaaaaaaa",
"aaaaaaaaaa``aaaaaaaaaa",
"aaaaaaaaaa``aaaaaaaaaa",
"aaaaaaaaaa``aaaaaaaaaa",
"aaaaaaaaaa``aaaaaaaaaa",
"aaaaaaaaaa``aaaaaaaaaa",
"aaaaaaaaaa``aaaaaaaaaa",
"aaaaaaaaaaaaaaaaaaaaaa",
"aaaaaaaaaaaaaaaaaaaaaa",
"aaaaaaaaaaaaaaaaaaaaaa",
"aaaaaaaaaaaaaaaaaaaaaa"
};

