/* XPM */
static char * umlclass_template_xpm[] = {
"22 22 3 1",
" 	c None",
".	c #000000",
"+	c #FFFFFF",
"             .........",
"             .+++++++.",
"             .+++++++.",
"..............+.+.+.+.",
".++++++++++++.++.+.++.",
".++.+.+.+.+.+.+.+.+.+.",
".+++.+++.+++..+++++++.",
".++.+.+.+.+.+.........",
".++++++++++++++++.    ",
".++.+.+.+.+.+.+++.    ",
".+++.+++.+++.++++.    ",
".++.+.+.+.+.+.+++.    ",
".++++++++++++++++.    ",
"..................    ",
".++++++++++++++++.    ",
".++++++++++++++++.    ",
".++++++++++++++++.    ",
"..................    ",
".++++++++++++++++.    ",
".++++++++++++++++.    ",
".++++++++++++++++.    ",
"..................    "};
