0
SECTION
2
TABLES
0
LAYER
2
Background
62
1
0
ENDTAB
0
ENDSEC
0
SECTION
2
ENTITIES
  0
LINE
  8
Background
  6
CONTINUOUS
 10
10.489107
 20
-2.164374
 11
11.061451
 21
-2.146206
 39
1
  0
LINE
  8
Background
  6
CONTINUOUS
 10
11.061451
 20
-2.146206
 11
11.310349
 21
-2.158419
 39
1
  0
LINE
  8
Background
  6
CONTINUOUS
 10
11.310349
 20
-2.158419
 11
11.535427
 21
-2.184116
 39
1
  0
LINE
  8
Background
  6
CONTINUOUS
 10
11.535427
 20
-2.184116
 11
11.737458
 21
-2.222762
 39
1
  0
LINE
  8
Background
  6
CONTINUOUS
 10
11.737458
 20
-2.222762
 11
11.917212
 21
-2.273822
 39
1
  0
LINE
  8
Background
  6
CONTINUOUS
 10
11.917212
 20
-2.273822
 11
12.075463
 21
-2.336759
 39
1
  0
LINE
  8
Background
  6
CONTINUOUS
 10
12.075463
 20
-2.336759
 11
12.212983
 21
-2.411038
 39
1
  0
LINE
  8
Background
  6
CONTINUOUS
 10
12.212983
 20
-2.411038
 11
12.330542
 21
-2.496123
 39
1
  0
LINE
  8
Background
  6
CONTINUOUS
 10
12.330542
 20
-2.496123
 11
12.428915
 21
-2.591481
 39
1
  0
LINE
  8
Background
  6
CONTINUOUS
 10
12.428915
 20
-2.591481
 11
12.508872
 21
-2.696573
 39
1
  0
LINE
  8
Background
  6
CONTINUOUS
 10
12.508872
 20
-2.696573
 11
12.571186
 21
-2.810867
 39
1
  0
LINE
  8
Background
  6
CONTINUOUS
 10
12.571186
 20
-2.810867
 11
12.616629
 21
-2.933824
 39
1
  0
LINE
  8
Background
  6
CONTINUOUS
 10
12.616629
 20
-2.933824
 11
12.645973
 21
-3.064912
 39
1
  0
LINE
  8
Background
  6
CONTINUOUS
 10
12.645973
 20
-3.064912
 11
12.659989
 21
-3.203593
 39
1
  0
LINE
  8
Background
  6
CONTINUOUS
 10
12.659989
 20
-3.203593
 11
12.659451
 21
-3.349332
 39
1
  0
LINE
  8
Background
  6
CONTINUOUS
 10
12.659451
 20
-3.349332
 11
12.617799
 21
-3.659844
 39
1
  0
LINE
  8
Background
  6
CONTINUOUS
 10
12.617799
 20
-3.659844
 11
12.527192
 21
-3.992164
 39
1
  0
LINE
  8
Background
  6
CONTINUOUS
 10
12.527192
 20
-3.992164
 11
12.393808
 21
-4.342007
 39
1
  0
LINE
  8
Background
  6
CONTINUOUS
 10
12.393808
 20
-4.342007
 11
12.223822
 21
-4.705091
 39
1
  0
LINE
  8
Background
  6
CONTINUOUS
 10
12.223822
 20
-4.705091
 11
12.023412
 21
-5.077130
 39
1
  0
LINE
  8
Background
  6
CONTINUOUS
 10
12.023412
 20
-5.077130
 11
11.798754
 21
-5.453842
 39
1
  0
LINE
  8
Background
  6
CONTINUOUS
 10
11.798754
 20
-5.453842
 11
11.301402
 21
-6.204146
 39
1
  0
LINE
  8
Background
  6
CONTINUOUS
 10
11.301402
 20
-6.204146
 11
10.781180
 21
-6.921733
 39
1
  0
LINE
  8
Background
  6
CONTINUOUS
 10
10.781180
 20
-6.921733
 11
10.287502
 21
-7.572332
 39
1
  0
LINE
  8
Background
  6
CONTINUOUS
 10
10.287502
 20
-7.572332
 11
9.869780
 21
-8.121671
 39
1
  0
LINE
  8
Background
  6
CONTINUOUS
 10
9.869780
 20
-8.121671
 11
9.577429
 21
-8.535481
 39
1
  0
LINE
  8
Background
  6
CONTINUOUS
 10
9.577429
 20
-8.535481
 11
9.493709
 21
-8.680852
 39
1
  0
LINE
  8
Background
  6
CONTINUOUS
 10
9.493709
 20
-8.680852
 11
9.459862
 21
-8.779489
 39
1
  0
LINE
  8
Background
  6
CONTINUOUS
 10
9.459862
 20
-8.779489
 11
9.463570
 21
-8.809944
 39
1
  0
LINE
  8
Background
  6
CONTINUOUS
 10
9.463570
 20
-8.809944
 11
9.482064
 21
-8.827108
 39
1
  0
LINE
  8
Background
  6
CONTINUOUS
 10
9.482064
 20
-8.827108
 11
9.566492
 21
-8.819426
 39
1
  0
LINE
  8
Background
  6
CONTINUOUS
 10
9.566492
 20
-8.819426
 11
9.719323
 21
-8.752157
 39
1
  0
LINE
  8
Background
  6
CONTINUOUS
 10
9.719323
 20
-8.752157
 11
9.946734
 21
-8.621020
 39
1
  0
LINE
  8
Background
  6
CONTINUOUS
 10
9.946734
 20
-8.621020
 11
10.650000
 21
-8.150000
 39
1
  0
LINE
  8
Background
  6
CONTINUOUS
 10
10.650000
 20
-8.150000
 11
11.074520
 21
-7.871420
 39
1
  0
LINE
  8
Background
  6
CONTINUOUS
 10
11.074520
 20
-7.871420
 11
11.467854
 21
-7.652222
 39
1
  0
LINE
  8
Background
  6
CONTINUOUS
 10
11.467854
 20
-7.652222
 11
11.831540
 21
-7.489090
 39
1
  0
LINE
  8
Background
  6
CONTINUOUS
 10
11.831540
 20
-7.489090
 11
12.167112
 21
-7.378711
 39
1
  0
LINE
  8
Background
  6
CONTINUOUS
 10
12.167112
 20
-7.378711
 11
12.476110
 21
-7.317770
 39
1
  0
LINE
  8
Background
  6
CONTINUOUS
 10
12.476110
 20
-7.317770
 11
12.760068
 21
-7.302954
 39
1
  0
LINE
  8
Background
  6
CONTINUOUS
 10
12.760068
 20
-7.302954
 11
13.020523
 21
-7.330948
 39
1
  0
LINE
  8
Background
  6
CONTINUOUS
 10
13.020523
 20
-7.330948
 11
13.259012
 21
-7.398438
 39
1
  0
LINE
  8
Background
  6
CONTINUOUS
 10
13.259012
 20
-7.398438
 11
13.477073
 21
-7.502109
 39
1
  0
LINE
  8
Background
  6
CONTINUOUS
 10
13.477073
 20
-7.502109
 11
13.676240
 21
-7.638647
 39
1
  0
LINE
  8
Background
  6
CONTINUOUS
 10
13.676240
 20
-7.638647
 11
13.858052
 21
-7.804739
 39
1
  0
LINE
  8
Background
  6
CONTINUOUS
 10
13.858052
 20
-7.804739
 11
14.024044
 21
-7.997070
 39
1
  0
LINE
  8
Background
  6
CONTINUOUS
 10
14.024044
 20
-7.997070
 11
14.175753
 21
-8.212326
 39
1
  0
LINE
  8
Background
  6
CONTINUOUS
 10
14.175753
 20
-8.212326
 11
14.314716
 21
-8.447192
 39
1
  0
LINE
  8
Background
  6
CONTINUOUS
 10
14.314716
 20
-8.447192
 11
14.442469
 21
-8.698355
 39
1
  0
LINE
  8
Background
  6
CONTINUOUS
 10
14.442469
 20
-8.698355
 11
14.560550
 21
-8.962500
 39
1
  0
LINE
  8
Background
  6
CONTINUOUS
 10
14.560550
 20
-8.962500
 11
14.773838
 21
-9.516479
 39
1
  0
LINE
  8
Background
  6
CONTINUOUS
 10
14.773838
 20
-9.516479
 11
14.966874
 21
-10.082617
 39
1
  0
LINE
  8
Background
  6
CONTINUOUS
 10
14.966874
 20
-10.082617
 11
15.151951
 21
-10.634399
 39
1
  0
LINE
  8
Background
  6
CONTINUOUS
 10
15.151951
 20
-10.634399
 11
15.341361
 21
-11.145313
 39
1
  0
LINE
  8
Background
  6
CONTINUOUS
 10
15.341361
 20
-11.145313
 11
15.547398
 21
-11.588843
 39
1
  0
LINE
  8
Background
  6
CONTINUOUS
 10
15.547398
 20
-11.588843
 11
15.660493
 21
-11.777054
 39
1
  0
LINE
  8
Background
  6
CONTINUOUS
 10
15.660493
 20
-11.777054
 11
15.782354
 21
-11.938477
 39
1
  0
LINE
  8
Background
  6
CONTINUOUS
 10
15.782354
 20
-11.938477
 11
15.914518
 21
-12.069797
 39
1
  0
LINE
  8
Background
  6
CONTINUOUS
 10
15.914518
 20
-12.069797
 11
16.058523
 21
-12.167700
 39
1
  0
LINE
  8
Background
  6
CONTINUOUS
 10
16.058523
 20
-12.167700
 11
16.215903
 21
-12.228873
 39
1
  0
LINE
  8
Background
  6
CONTINUOUS
 10
16.215903
 20
-12.228873
 11
16.388197
 21
-12.250000
 39
1
  0
LINE
  8
Background
  6
CONTINUOUS
 10
18.188197
 20
-12.250000
 11
15.788197
 21
-13.450000
 39
1
  0
LINE
  8
Background
  6
CONTINUOUS
 10
15.788197
 20
-13.450000
 11
16.388197
 21
-12.250000
 39
1
  0
LINE
  8
Background
  6
CONTINUOUS
 10
16.388197
 20
-12.250000
 11
15.788197
 21
-11.050000
 39
1
  0
LINE
  8
Background
  6
CONTINUOUS
 10
15.788197
 20
-11.050000
 11
18.188197
 21
-12.250000
 39
1
  0
LINE
  8
Background
  6
DASHDOT
 10
4.700000
 20
-4.350000
 11
5.127511
 21
-4.367961
 39
0
  0
LINE
  8
Background
  6
DASHDOT
 10
5.127511
 20
-4.367961
 11
5.538354
 21
-4.419861
 39
0
  0
LINE
  8
Background
  6
DASHDOT
 10
5.538354
 20
-4.419861
 11
5.932245
 21
-4.502724
 39
0
  0
LINE
  8
Background
  6
DASHDOT
 10
5.932245
 20
-4.502724
 11
6.308898
 21
-4.613574
 39
0
  0
LINE
  8
Background
  6
DASHDOT
 10
6.308898
 20
-4.613574
 11
6.668029
 21
-4.749437
 39
0
  0
LINE
  8
Background
  6
DASHDOT
 10
6.668029
 20
-4.749437
 11
7.009353
 21
-4.907336
 39
0
  0
LINE
  8
Background
  6
DASHDOT
 10
7.009353
 20
-4.907336
 11
7.332584
 21
-5.084297
 39
0
  0
LINE
  8
Background
  6
DASHDOT
 10
7.332584
 20
-5.084297
 11
7.637438
 21
-5.277344
 39
0
  0
LINE
  8
Background
  6
DASHDOT
 10
7.637438
 20
-5.277344
 11
7.923629
 21
-5.483501
 39
0
  0
LINE
  8
Background
  6
DASHDOT
 10
7.923629
 20
-5.483501
 11
8.190874
 21
-5.699792
 39
0
  0
LINE
  8
Background
  6
DASHDOT
 10
8.190874
 20
-5.699792
 11
8.438887
 21
-5.923244
 39
0
  0
LINE
  8
Background
  6
DASHDOT
 10
8.438887
 20
-5.923244
 11
8.667383
 21
-6.150879
 39
0
  0
LINE
  8
Background
  6
DASHDOT
 10
8.667383
 20
-6.150879
 11
9.064685
 21
-6.606799
 39
0
  0
LINE
  8
Background
  6
DASHDOT
 10
9.064685
 20
-6.606799
 11
9.380500
 21
-7.043750
 39
0
  0
LINE
  8
Background
  6
DASHDOT
 10
9.380500
 20
-7.043750
 11
9.612550
 21
-7.437927
 39
0
  0
LINE
  8
Background
  6
DASHDOT
 10
9.612550
 20
-7.437927
 11
9.758555
 21
-7.765527
 39
0
  0
LINE
  8
Background
  6
DASHDOT
 10
9.758555
 20
-7.765527
 11
9.798578
 21
-7.896922
 39
0
  0
LINE
  8
Background
  6
DASHDOT
 10
9.798578
 20
-7.896922
 11
9.816235
 21
-8.002747
 39
0
  0
LINE
  8
Background
  6
DASHDOT
 10
9.816235
 20
-8.002747
 11
9.811242
 21
-8.080025
 39
0
  0
LINE
  8
Background
  6
DASHDOT
 10
9.811242
 20
-8.080025
 11
9.783312
 21
-8.125781
 39
0
  0
LINE
  8
Background
  6
DASHDOT
 10
9.783312
 20
-8.125781
 11
9.732162
 21
-8.137041
 39
0
  0
LINE
  8
Background
  6
DASHDOT
 10
9.732162
 20
-8.137041
 11
9.657507
 21
-8.110828
 39
0
  0
LINE
  8
Background
  6
DASHDOT
 10
9.657507
 20
-8.110828
 11
9.559061
 21
-8.044167
 39
0
  0
LINE
  8
Background
  6
DASHDOT
 10
9.559061
 20
-8.044167
 11
9.436539
 21
-7.934082
 39
0
  0
LINE
  8
Background
  6
DASHDOT
 10
9.436539
 20
-7.934082
 11
9.118130
 21
-7.571741
 39
0
  0
LINE
  8
Background
  6
DASHDOT
 10
9.118130
 20
-7.571741
 11
8.700000
 21
-7.000000
 39
0
  0
LINE
  8
Background
  6
DASHDOT
 10
8.700000
 20
-7.000000
 11
8.096777
 21
-6.113867
 39
0
  0
LINE
  8
Background
  6
DASHDOT
 10
8.096777
 20
-6.113867
 11
8.018518
 21
-5.982446
 39
0
  0
LINE
  8
Background
  6
DASHDOT
 10
8.018518
 20
-5.982446
 11
8.064844
 21
-6.014062
 39
0
  0
LINE
  8
Background
  6
DASHDOT
 10
8.064844
 20
-6.014062
 11
8.458301
 21
-6.432227
 39
0
  0
LINE
  8
Background
  6
DASHDOT
 10
8.458301
 20
-6.432227
 11
8.768958
 21
-6.751685
 39
0
  0
LINE
  8
Background
  6
DASHDOT
 10
8.768958
 20
-6.751685
 11
9.131250
 21
-7.100000
 39
0
  0
LINE
  8
Background
  6
DASHDOT
 10
9.131250
 20
-7.100000
 11
9.526941
 21
-7.443628
 39
0
  0
LINE
  8
Background
  6
DASHDOT
 10
9.526941
 20
-7.443628
 11
9.937793
 21
-7.749023
 39
0
  0
LINE
  8
Background
  6
DASHDOT
 10
9.937793
 20
-7.749023
 11
10.143205
 21
-7.876901
 39
0
  0
LINE
  8
Background
  6
DASHDOT
 10
10.143205
 20
-7.876901
 11
10.345569
 21
-7.982642
 39
0
  0
LINE
  8
Background
  6
DASHDOT
 10
10.345569
 20
-7.982642
 11
10.542604
 21
-8.062051
 39
0
  0
LINE
  8
Background
  6
DASHDOT
 10
10.542604
 20
-8.062051
 11
10.732031
 21
-8.110938
 39
0
  0
LINE
  8
Background
  6
DASHDOT
 10
10.732031
 20
-8.110938
 11
10.911571
 21
-8.125107
 39
0
  0
LINE
  8
Background
  6
DASHDOT
 10
10.911571
 20
-8.125107
 11
11.078943
 21
-8.100366
 39
0
  0
LINE
  8
Background
  6
DASHDOT
 10
11.078943
 20
-8.100366
 11
11.231868
 21
-8.032523
 39
0
  0
LINE
  8
Background
  6
DASHDOT
 10
11.231868
 20
-8.032523
 11
11.368066
 21
-7.917383
 39
0
  0
LINE
  8
Background
  6
DASHDOT
 10
11.368066
 20
-7.917383
 11
11.485258
 21
-7.750754
 39
0
  0
LINE
  8
Background
  6
DASHDOT
 10
11.485258
 20
-7.750754
 11
11.581165
 21
-7.528442
 39
0
  0
LINE
  8
Background
  6
DASHDOT
 10
11.581165
 20
-7.528442
 11
11.653505
 21
-7.246255
 39
0
  0
LINE
  8
Background
  6
DASHDOT
 10
11.653505
 20
-7.246255
 11
11.700000
 21
-6.900000
 39
0
  0
LINE
  8
Background
  6
DASHDOT
 10
11.700000
 20
-6.900000
 11
11.737683
 21
-6.550414
 39
0
  0
LINE
  8
Background
  6
DASHDOT
 10
11.737683
 20
-6.550414
 11
11.785227
 21
-6.258972
 39
0
  0
LINE
  8
Background
  6
DASHDOT
 10
11.785227
 20
-6.258972
 11
11.842815
 21
-6.022591
 39
0
  0
LINE
  8
Background
  6
DASHDOT
 10
11.842815
 20
-6.022591
 11
11.910629
 21
-5.838184
 39
0
  0
LINE
  8
Background
  6
DASHDOT
 10
11.910629
 20
-5.838184
 11
11.988850
 21
-5.702666
 39
0
  0
LINE
  8
Background
  6
DASHDOT
 10
11.988850
 20
-5.702666
 11
12.077662
 21
-5.612952
 39
0
  0
LINE
  8
Background
  6
DASHDOT
 10
12.077662
 20
-5.612952
 11
12.177245
 21
-5.565956
 39
0
  0
LINE
  8
Background
  6
DASHDOT
 10
12.177245
 20
-5.565956
 11
12.287781
 21
-5.558594
 39
0
  0
LINE
  8
Background
  6
DASHDOT
 10
12.287781
 20
-5.558594
 11
12.409454
 21
-5.587779
 39
0
  0
LINE
  8
Background
  6
DASHDOT
 10
12.409454
 20
-5.587779
 11
12.542444
 21
-5.650427
 39
0
  0
LINE
  8
Background
  6
DASHDOT
 10
12.542444
 20
-5.650427
 11
12.686934
 21
-5.743452
 39
0
  0
LINE
  8
Background
  6
DASHDOT
 10
12.686934
 20
-5.743452
 11
12.843105
 21
-5.863770
 39
0
  0
LINE
  8
Background
  6
DASHDOT
 10
12.843105
 20
-5.863770
 11
13.191222
 21
-6.173938
 39
0
  0
LINE
  8
Background
  6
DASHDOT
 10
13.191222
 20
-6.173938
 11
13.588250
 21
-6.556250
 39
0
  0
LINE
  8
Background
  6
DASHDOT
 10
13.588250
 20
-6.556250
 11
14.035645
 21
-6.986023
 39
0
  0
LINE
  8
Background
  6
DASHDOT
 10
14.035645
 20
-6.986023
 11
14.534863
 21
-7.438574
 39
0
  0
LINE
  8
Background
  6
DASHDOT
 10
14.534863
 20
-7.438574
 11
15.087361
 21
-7.889221
 39
0
  0
LINE
  8
Background
  6
DASHDOT
 10
15.087361
 20
-7.889221
 11
15.384044
 21
-8.106117
 39
0
  0
LINE
  8
Background
  6
DASHDOT
 10
15.384044
 20
-8.106117
 11
15.694594
 21
-8.313281
 39
0
  0
LINE
  8
Background
  6
DASHDOT
 10
15.694594
 20
-8.313281
 11
16.019191
 21
-8.507628
 39
0
  0
LINE
  8
Background
  6
DASHDOT
 10
16.019191
 20
-8.507628
 11
16.358018
 21
-8.686072
 39
0
  0
LINE
  8
Background
  6
DASHDOT
 10
16.358018
 20
-8.686072
 11
16.711257
 21
-8.845528
 39
0
  0
LINE
  8
Background
  6
DASHDOT
 10
16.711257
 20
-8.845528
 11
17.079090
 21
-8.982910
 39
0
  0
LINE
  8
Background
  6
DASHDOT
 10
17.079090
 20
-8.982910
 11
17.461699
 21
-9.095134
 39
0
  0
LINE
  8
Background
  6
DASHDOT
 10
17.461699
 20
-9.095134
 11
17.859265
 21
-9.179114
 39
0
  0
LINE
  8
Background
  6
DASHDOT
 10
17.859265
 20
-9.179114
 11
18.271972
 21
-9.231764
 39
0
  0
LINE
  8
Background
  6
DASHDOT
 10
18.271972
 20
-9.231764
 11
18.700000
 21
-9.250000
 39
0
0
ENDSEC
0
EOF
