0
SECTION
2
TABLES
0
LAYER
2
Background
62
1
0
ENDTAB
0
ENDSEC
0
SECTION
2
ENTITIES
  0
LINE
  8
Background
  6
CONTINUOUS
 10
2.150000
 20
-6.350000
 11
2.861292
 21
-6.320000
 39
2
  0
LINE
  8
Background
  6
CONTINUOUS
 10
2.861292
 20
-6.320000
 11
3.489160
 21
-6.268787
 39
2
  0
LINE
  8
Background
  6
CONTINUOUS
 10
3.489160
 20
-6.268787
 11
4.038660
 21
-6.198293
 39
2
  0
LINE
  8
Background
  6
CONTINUOUS
 10
4.038660
 20
-6.198293
 11
4.514844
 21
-6.110449
 39
2
  0
LINE
  8
Background
  6
CONTINUOUS
 10
4.514844
 20
-6.110449
 11
4.922766
 21
-6.007188
 39
2
  0
LINE
  8
Background
  6
CONTINUOUS
 10
4.922766
 20
-6.007188
 11
5.267480
 21
-5.890442
 39
2
  0
LINE
  8
Background
  6
CONTINUOUS
 10
5.267480
 20
-5.890442
 11
5.554041
 21
-5.762141
 39
2
  0
LINE
  8
Background
  6
CONTINUOUS
 10
5.554041
 20
-5.762141
 11
5.787500
 21
-5.624219
 39
2
  0
LINE
  8
Background
  6
CONTINUOUS
 10
5.787500
 20
-5.624219
 11
5.972913
 21
-5.478606
 39
2
  0
LINE
  8
Background
  6
CONTINUOUS
 10
5.972913
 20
-5.478606
 11
6.115332
 21
-5.327234
 39
2
  0
LINE
  8
Background
  6
CONTINUOUS
 10
6.115332
 20
-5.327234
 11
6.219812
 21
-5.172035
 39
2
  0
LINE
  8
Background
  6
CONTINUOUS
 10
6.219812
 20
-5.172035
 11
6.291406
 21
-5.014941
 39
2
  0
LINE
  8
Background
  6
CONTINUOUS
 10
6.291406
 20
-5.014941
 11
6.335168
 21
-4.857884
 39
2
  0
LINE
  8
Background
  6
CONTINUOUS
 10
6.335168
 20
-4.857884
 11
6.356152
 21
-4.702795
 39
2
  0
LINE
  8
Background
  6
CONTINUOUS
 10
6.356152
 20
-4.702795
 11
6.350000
 21
-4.406250
 39
2
  0
LINE
  8
Background
  6
CONTINUOUS
 10
6.350000
 20
-4.406250
 11
6.313379
 21
-4.140759
 39
2
  0
LINE
  8
Background
  6
CONTINUOUS
 10
6.313379
 20
-4.140759
 11
6.286719
 21
-3.921777
 39
2
  0
LINE
  8
Background
  6
CONTINUOUS
 10
6.286719
 20
-3.921777
 11
6.289758
 21
-3.834557
 39
2
  0
LINE
  8
Background
  6
CONTINUOUS
 10
6.289758
 20
-3.834557
 11
6.310449
 21
-3.764758
 39
2
  0
LINE
  8
Background
  6
CONTINUOUS
 10
6.310449
 20
-3.764758
 11
6.353845
 21
-3.714314
 39
2
  0
LINE
  8
Background
  6
CONTINUOUS
 10
6.353845
 20
-3.714314
 11
6.425000
 21
-3.685156
 39
2
  0
LINE
  8
Background
  6
CONTINUOUS
 10
6.425000
 20
-3.685156
 11
6.528967
 21
-3.679216
 39
2
  0
LINE
  8
Background
  6
CONTINUOUS
 10
6.528967
 20
-3.679216
 11
6.670801
 21
-3.698425
 39
2
  0
LINE
  8
Background
  6
CONTINUOUS
 10
6.670801
 20
-3.698425
 11
7.088281
 21
-3.820020
 39
2
  0
LINE
  8
Background
  6
CONTINUOUS
 10
7.088281
 20
-3.820020
 11
7.717871
 21
-4.065393
 39
2
  0
LINE
  8
Background
  6
CONTINUOUS
 10
7.717871
 20
-4.065393
 11
8.600000
 21
-4.450000
 39
2
  0
LINE
  8
Background
  6
CONTINUOUS
 10
8.600000
 20
-4.450000
 11
9.088498
 21
-4.686401
 39
2
  0
LINE
  8
Background
  6
CONTINUOUS
 10
9.088498
 20
-4.686401
 11
9.533179
 21
-4.934961
 39
2
  0
LINE
  8
Background
  6
CONTINUOUS
 10
9.533179
 20
-4.934961
 11
9.935635
 21
-5.193774
 39
2
  0
LINE
  8
Background
  6
CONTINUOUS
 10
9.935635
 20
-5.193774
 11
10.297461
 21
-5.460938
 39
2
  0
LINE
  8
Background
  6
CONTINUOUS
 10
10.297461
 20
-5.460938
 11
10.620248
 21
-5.734546
 39
2
  0
LINE
  8
Background
  6
CONTINUOUS
 10
10.620248
 20
-5.734546
 11
10.905591
 21
-6.012695
 39
2
  0
LINE
  8
Background
  6
CONTINUOUS
 10
10.905591
 20
-6.012695
 11
11.155081
 21
-6.293481
 39
2
  0
LINE
  8
Background
  6
CONTINUOUS
 10
11.155081
 20
-6.293481
 11
11.370313
 21
-6.575000
 39
2
  0
LINE
  8
Background
  6
CONTINUOUS
 10
11.370313
 20
-6.575000
 11
11.552878
 21
-6.855347
 39
2
  0
LINE
  8
Background
  6
CONTINUOUS
 10
11.552878
 20
-6.855347
 11
11.704370
 21
-7.132617
 39
2
  0
LINE
  8
Background
  6
CONTINUOUS
 10
11.704370
 20
-7.132617
 11
11.826382
 21
-7.404907
 39
2
  0
LINE
  8
Background
  6
CONTINUOUS
 10
11.826382
 20
-7.404907
 11
11.920508
 21
-7.670313
 39
2
  0
LINE
  8
Background
  6
CONTINUOUS
 10
11.920508
 20
-7.670313
 11
11.988339
 21
-7.926929
 39
2
  0
LINE
  8
Background
  6
CONTINUOUS
 10
11.988339
 20
-7.926929
 11
12.031470
 21
-8.172852
 39
2
  0
LINE
  8
Background
  6
CONTINUOUS
 10
12.031470
 20
-8.172852
 11
12.051492
 21
-8.406177
 39
2
  0
LINE
  8
Background
  6
CONTINUOUS
 10
12.051492
 20
-8.406177
 11
12.050000
 21
-8.625000
 39
2
  0
LINE
  8
Background
  6
CONTINUOUS
 10
12.050000
 20
-8.625000
 11
12.028586
 21
-8.827417
 39
2
  0
LINE
  8
Background
  6
CONTINUOUS
 10
12.028586
 20
-8.827417
 11
11.988843
 21
-9.011523
 39
2
  0
LINE
  8
Background
  6
CONTINUOUS
 10
11.988843
 20
-9.011523
 11
11.932364
 21
-9.175415
 39
2
  0
LINE
  8
Background
  6
CONTINUOUS
 10
11.932364
 20
-9.175415
 11
11.860742
 21
-9.317187
 39
2
  0
LINE
  8
Background
  6
CONTINUOUS
 10
11.860742
 20
-9.317187
 11
11.775571
 21
-9.434937
 39
2
  0
LINE
  8
Background
  6
CONTINUOUS
 10
11.775571
 20
-9.434937
 11
11.678442
 21
-9.526758
 39
2
  0
LINE
  8
Background
  6
CONTINUOUS
 10
11.678442
 20
-9.526758
 11
11.570950
 21
-9.590747
 39
2
  0
LINE
  8
Background
  6
CONTINUOUS
 10
11.570950
 20
-9.590747
 11
11.454688
 21
-9.625000
 39
2
  0
LINE
  8
Background
  6
CONTINUOUS
 10
11.454688
 20
-9.625000
 11
11.331247
 21
-9.627612
 39
2
  0
LINE
  8
Background
  6
CONTINUOUS
 10
11.331247
 20
-9.627612
 11
11.202222
 21
-9.596680
 39
2
  0
LINE
  8
Background
  6
CONTINUOUS
 10
11.202222
 20
-9.596680
 11
11.069205
 21
-9.530298
 39
2
  0
LINE
  8
Background
  6
CONTINUOUS
 10
11.069205
 20
-9.530298
 11
10.933789
 21
-9.426562
 39
2
  0
LINE
  8
Background
  6
CONTINUOUS
 10
10.933789
 20
-9.426562
 11
10.797568
 21
-9.283569
 39
2
  0
LINE
  8
Background
  6
CONTINUOUS
 10
10.797568
 20
-9.283569
 11
10.662134
 21
-9.099414
 39
2
  0
LINE
  8
Background
  6
CONTINUOUS
 10
10.662134
 20
-9.099414
 11
10.529080
 21
-8.872192
 39
2
  0
LINE
  8
Background
  6
CONTINUOUS
 10
10.529080
 20
-8.872192
 11
10.400000
 21
-8.600000
 39
2
  0
LINE
  8
Background
  6
CONTINUOUS
 10
10.400000
 20
-8.600000
 11
10.320707
 21
-8.976339
 39
2
  0
LINE
  8
Background
  6
CONTINUOUS
 10
10.320707
 20
-8.976339
 11
10.264386
 21
-9.141502
 39
2
  0
LINE
  8
Background
  6
CONTINUOUS
 10
10.264386
 20
-9.141502
 11
10.197489
 21
-9.291862
 39
2
  0
LINE
  8
Background
  6
CONTINUOUS
 10
10.197489
 20
-9.291862
 11
10.120420
 21
-9.427819
 39
2
  0
LINE
  8
Background
  6
CONTINUOUS
 10
10.120420
 20
-9.427819
 11
10.033586
 21
-9.549771
 39
2
  0
LINE
  8
Background
  6
CONTINUOUS
 10
10.033586
 20
-9.549771
 11
9.937391
 21
-9.658120
 39
2
  0
LINE
  8
Background
  6
CONTINUOUS
 10
9.937391
 20
-9.658120
 11
9.832239
 21
-9.753265
 39
2
  0
LINE
  8
Background
  6
CONTINUOUS
 10
9.832239
 20
-9.753265
 11
9.718537
 21
-9.835606
 39
2
  0
LINE
  8
Background
  6
CONTINUOUS
 10
9.718537
 20
-9.835606
 11
9.596690
 21
-9.905544
 39
2
  0
LINE
  8
Background
  6
CONTINUOUS
 10
9.596690
 20
-9.905544
 11
9.330178
 21
-10.009807
 39
2
  0
LINE
  8
Background
  6
CONTINUOUS
 10
9.330178
 20
-10.009807
 11
9.035945
 21
-10.069255
 39
2
  0
LINE
  8
Background
  6
CONTINUOUS
 10
9.035945
 20
-10.069255
 11
8.717231
 21
-10.087087
 39
2
  0
LINE
  8
Background
  6
CONTINUOUS
 10
8.717231
 20
-10.087087
 11
8.377278
 21
-10.066503
 39
2
  0
LINE
  8
Background
  6
CONTINUOUS
 10
8.377278
 20
-10.066503
 11
8.019325
 21
-10.010704
 39
2
  0
LINE
  8
Background
  6
CONTINUOUS
 10
8.019325
 20
-10.010704
 11
7.646614
 21
-9.922888
 39
2
  0
LINE
  8
Background
  6
CONTINUOUS
 10
7.646614
 20
-9.922888
 11
7.262386
 21
-9.806257
 39
2
  0
LINE
  8
Background
  6
CONTINUOUS
 10
7.262386
 20
-9.806257
 11
6.869882
 21
-9.664009
 39
2
  0
LINE
  8
Background
  6
CONTINUOUS
 10
6.869882
 20
-9.664009
 11
6.472341
 21
-9.499344
 39
2
  0
LINE
  8
Background
  6
CONTINUOUS
 10
6.472341
 20
-9.499344
 11
6.073006
 21
-9.315463
 39
2
  0
LINE
  8
Background
  6
CONTINUOUS
 10
6.073006
 20
-9.315463
 11
5.675116
 21
-9.115565
 39
2
  0
LINE
  8
Background
  6
CONTINUOUS
 10
5.675116
 20
-9.115565
 11
4.896638
 21
-8.680518
 39
2
  0
LINE
  8
Background
  6
CONTINUOUS
 10
4.896638
 20
-8.680518
 11
4.162832
 21
-8.219803
 39
2
  0
LINE
  8
Background
  6
CONTINUOUS
 10
4.162832
 20
-8.219803
 11
3.499625
 21
-7.759017
 39
2
  0
LINE
  8
Background
  6
CONTINUOUS
 10
3.499625
 20
-7.759017
 11
2.932943
 21
-7.323761
 39
2
  0
LINE
  8
Background
  6
CONTINUOUS
 10
2.932943
 20
-7.323761
 11
2.488714
 21
-6.939632
 39
2
  0
LINE
  8
Background
  6
CONTINUOUS
 10
2.488714
 20
-6.939632
 11
2.192862
 21
-6.632229
 39
2
  0
LINE
  8
Background
  6
CONTINUOUS
 10
2.192862
 20
-6.632229
 11
2.108681
 21
-6.515300
 39
2
  0
LINE
  8
Background
  6
CONTINUOUS
 10
2.108681
 20
-6.515300
 11
2.071316
 21
-6.427153
 39
2
  0
LINE
  8
Background
  6
CONTINUOUS
 10
2.071316
 20
-6.427153
 11
2.084009
 21
-6.370986
 39
2
  0
LINE
  8
Background
  6
CONTINUOUS
 10
2.084009
 20
-6.370986
 11
2.150000
 21
-6.350000
 39
2
  0
LINE
  8
Background
  6
CONTINUOUS
 10
6.600000
 20
-6.350000
 11
6.702234
 21
-6.363757
 39
0
  0
LINE
  8
Background
  6
CONTINUOUS
 10
6.702234
 20
-6.363757
 11
6.820215
 21
-6.403809
 39
0
  0
LINE
  8
Background
  6
CONTINUOUS
 10
6.820215
 20
-6.403809
 11
7.096094
 21
-6.555469
 39
0
  0
LINE
  8
Background
  6
CONTINUOUS
 10
7.096094
 20
-6.555469
 11
7.412988
 21
-6.790332
 39
0
  0
LINE
  8
Background
  6
CONTINUOUS
 10
7.412988
 20
-6.790332
 11
7.756250
 21
-7.093750
 39
0
  0
LINE
  8
Background
  6
CONTINUOUS
 10
7.756250
 20
-7.093750
 11
8.111230
 21
-7.451074
 39
0
  0
LINE
  8
Background
  6
CONTINUOUS
 10
8.111230
 20
-7.451074
 11
8.463281
 21
-7.847656
 39
0
  0
LINE
  8
Background
  6
CONTINUOUS
 10
8.463281
 20
-7.847656
 11
8.797754
 21
-8.268848
 39
0
  0
LINE
  8
Background
  6
CONTINUOUS
 10
8.797754
 20
-8.268848
 11
9.100000
 21
-8.700000
 39
0
  0
LINE
  8
Background
  6
CONTINUOUS
 10
9.100000
 20
-8.700000
 11
9.355371
 21
-9.126465
 39
0
  0
LINE
  8
Background
  6
CONTINUOUS
 10
9.355371
 20
-9.126465
 11
9.549219
 21
-9.533594
 39
0
  0
LINE
  8
Background
  6
CONTINUOUS
 10
9.549219
 20
-9.533594
 11
9.618494
 21
-9.725330
 39
0
  0
LINE
  8
Background
  6
CONTINUOUS
 10
9.618494
 20
-9.725330
 11
9.666895
 21
-9.906738
 39
0
  0
LINE
  8
Background
  6
CONTINUOUS
 10
9.666895
 20
-9.906738
 11
9.692590
 21
-10.075989
 39
0
  0
LINE
  8
Background
  6
CONTINUOUS
 10
9.692590
 20
-10.075989
 11
9.693750
 21
-10.231250
 39
0
  0
LINE
  8
Background
  6
CONTINUOUS
 10
9.693750
 20
-10.231250
 11
9.668542
 21
-10.370691
 39
0
  0
LINE
  8
Background
  6
CONTINUOUS
 10
9.668542
 20
-10.370691
 11
9.615137
 21
-10.492480
 39
0
  0
LINE
  8
Background
  6
CONTINUOUS
 10
9.615137
 20
-10.492480
 11
9.531702
 21
-10.594788
 39
0
  0
LINE
  8
Background
  6
CONTINUOUS
 10
9.531702
 20
-10.594788
 11
9.416406
 21
-10.675781
 39
0
  0
LINE
  8
Background
  6
CONTINUOUS
 10
9.416406
 20
-10.675781
 11
9.267419
 21
-10.733630
 39
0
  0
LINE
  8
Background
  6
CONTINUOUS
 10
9.267419
 20
-10.733630
 11
9.082910
 21
-10.766504
 39
0
  0
LINE
  8
Background
  6
CONTINUOUS
 10
9.082910
 20
-10.766504
 11
8.861047
 21
-10.772571
 39
0
  0
LINE
  8
Background
  6
CONTINUOUS
 10
8.861047
 20
-10.772571
 11
8.600000
 21
-10.750000
 39
0
  0
LINE
  8
Background
  6
CONTINUOUS
 10
8.600000
 20
-10.750000
 11
8.351122
 21
-10.703058
 39
0
  0
LINE
  8
Background
  6
CONTINUOUS
 10
8.351122
 20
-10.703058
 11
8.164050
 21
-10.638135
 39
0
  0
LINE
  8
Background
  6
CONTINUOUS
 10
8.164050
 20
-10.638135
 11
8.034383
 21
-10.556586
 39
0
  0
LINE
  8
Background
  6
CONTINUOUS
 10
8.034383
 20
-10.556586
 11
7.957715
 21
-10.459766
 39
0
  0
LINE
  8
Background
  6
CONTINUOUS
 10
7.957715
 20
-10.459766
 11
7.929643
 21
-10.349030
 39
0
  0
LINE
  8
Background
  6
CONTINUOUS
 10
7.929643
 20
-10.349030
 11
7.945764
 21
-10.225732
 39
0
  0
LINE
  8
Background
  6
CONTINUOUS
 10
7.945764
 20
-10.225732
 11
8.001674
 21
-10.091229
 39
0
  0
LINE
  8
Background
  6
CONTINUOUS
 10
8.001674
 20
-10.091229
 11
8.092969
 21
-9.946875
 39
0
  0
LINE
  8
Background
  6
CONTINUOUS
 10
8.092969
 20
-9.946875
 11
8.215245
 21
-9.794025
 39
0
  0
LINE
  8
Background
  6
CONTINUOUS
 10
8.215245
 20
-9.794025
 11
8.364099
 21
-9.634033
 39
0
  0
LINE
  8
Background
  6
CONTINUOUS
 10
8.364099
 20
-9.634033
 11
8.723926
 21
-9.298047
 39
0
  0
LINE
  8
Background
  6
CONTINUOUS
 10
8.723926
 20
-9.298047
 11
9.137219
 21
-8.949756
 39
0
  0
LINE
  8
Background
  6
CONTINUOUS
 10
9.137219
 20
-8.949756
 11
9.568750
 21
-8.600000
 39
0
  0
LINE
  8
Background
  6
CONTINUOUS
 10
9.568750
 20
-8.600000
 11
9.983289
 21
-8.259619
 39
0
  0
LINE
  8
Background
  6
CONTINUOUS
 10
9.983289
 20
-8.259619
 11
10.345605
 21
-7.939453
 39
0
  0
LINE
  8
Background
  6
CONTINUOUS
 10
10.345605
 20
-7.939453
 11
10.620471
 21
-7.650342
 39
0
  0
LINE
  8
Background
  6
CONTINUOUS
 10
10.620471
 20
-7.650342
 11
10.714101
 21
-7.520819
 39
0
  0
LINE
  8
Background
  6
CONTINUOUS
 10
10.714101
 20
-7.520819
 11
10.772656
 21
-7.403125
 39
0
  0
LINE
  8
Background
  6
CONTINUOUS
 10
10.772656
 20
-7.403125
 11
10.791734
 21
-7.298615
 39
0
  0
LINE
  8
Background
  6
CONTINUOUS
 10
10.791734
 20
-7.298615
 11
10.766931
 21
-7.208643
 39
0
  0
LINE
  8
Background
  6
CONTINUOUS
 10
10.766931
 20
-7.208643
 11
10.693843
 21
-7.134564
 39
0
  0
LINE
  8
Background
  6
CONTINUOUS
 10
10.693843
 20
-7.134564
 11
10.568066
 21
-7.077734
 39
0
  0
LINE
  8
Background
  6
CONTINUOUS
 10
10.568066
 20
-7.077734
 11
10.385197
 21
-7.039508
 39
0
  0
LINE
  8
Background
  6
CONTINUOUS
 10
10.385197
 20
-7.039508
 11
10.140833
 21
-7.021240
 39
0
  0
LINE
  8
Background
  6
CONTINUOUS
 10
10.140833
 20
-7.021240
 11
9.830568
 21
-7.024286
 39
0
  0
LINE
  8
Background
  6
CONTINUOUS
 10
9.830568
 20
-7.024286
 11
9.450000
 21
-7.050000
 39
0
  0
LINE
  8
Background
  6
CONTINUOUS
 10
9.450000
 20
-7.050000
 11
9.062608
 21
-7.100397
 39
0
  0
LINE
  8
Background
  6
CONTINUOUS
 10
9.062608
 20
-7.100397
 11
8.732703
 21
-7.175439
 39
0
  0
LINE
  8
Background
  6
CONTINUOUS
 10
8.732703
 20
-7.175439
 11
8.457124
 21
-7.273407
 39
0
  0
LINE
  8
Background
  6
CONTINUOUS
 10
8.457124
 20
-7.273407
 11
8.232715
 21
-7.392578
 39
0
  0
LINE
  8
Background
  6
CONTINUOUS
 10
8.232715
 20
-7.392578
 11
8.056316
 21
-7.531232
 39
0
  0
LINE
  8
Background
  6
CONTINUOUS
 10
8.056316
 20
-7.531232
 11
7.924768
 21
-7.687646
 39
0
  0
LINE
  8
Background
  6
CONTINUOUS
 10
7.924768
 20
-7.687646
 11
7.834914
 21
-7.860101
 39
0
  0
LINE
  8
Background
  6
CONTINUOUS
 10
7.834914
 20
-7.860101
 11
7.783594
 21
-8.046875
 39
0
  0
LINE
  8
Background
  6
CONTINUOUS
 10
7.783594
 20
-8.046875
 11
7.767650
 21
-8.246246
 39
0
  0
LINE
  8
Background
  6
CONTINUOUS
 10
7.767650
 20
-8.246246
 11
7.783923
 21
-8.456494
 39
0
  0
LINE
  8
Background
  6
CONTINUOUS
 10
7.783923
 20
-8.456494
 11
7.829256
 21
-8.675897
 39
0
  0
LINE
  8
Background
  6
CONTINUOUS
 10
7.829256
 20
-8.675897
 11
7.900488
 21
-8.902734
 39
0
  0
LINE
  8
Background
  6
CONTINUOUS
 10
7.900488
 20
-8.902734
 11
7.994463
 21
-9.135284
 39
0
  0
LINE
  8
Background
  6
CONTINUOUS
 10
7.994463
 20
-9.135284
 11
8.108020
 21
-9.371826
 39
0
  0
LINE
  8
Background
  6
CONTINUOUS
 10
8.108020
 20
-9.371826
 11
8.381250
 21
-9.850000
 39
0
  0
LINE
  8
Background
  6
CONTINUOUS
 10
8.381250
 20
-9.850000
 11
8.694910
 21
-10.323486
 39
0
  0
LINE
  8
Background
  6
CONTINUOUS
 10
8.694910
 20
-10.323486
 11
9.023730
 21
-10.778516
 39
0
  0
LINE
  8
Background
  6
CONTINUOUS
 10
9.023730
 20
-10.778516
 11
9.625781
 21
-11.578125
 39
0
  0
LINE
  8
Background
  6
CONTINUOUS
 10
9.625781
 20
-11.578125
 11
9.848474
 21
-11.895166
 39
0
  0
LINE
  8
Background
  6
CONTINUOUS
 10
9.848474
 20
-11.895166
 11
9.985254
 21
-12.138672
 39
0
  0
LINE
  8
Background
  6
CONTINUOUS
 10
9.985254
 20
-12.138672
 11
10.013530
 21
-12.228546
 39
0
  0
LINE
  8
Background
  6
CONTINUOUS
 10
10.013530
 20
-12.228546
 11
10.010852
 21
-12.294873
 39
0
  0
LINE
  8
Background
  6
CONTINUOUS
 10
10.010852
 20
-12.294873
 11
9.974062
 21
-12.335931
 39
0
  0
LINE
  8
Background
  6
CONTINUOUS
 10
9.974062
 20
-12.335931
 11
9.900000
 21
-12.350000
 39
0
  0
LINE
  8
Background
  6
CONTINUOUS
 10
9.900000
 20
-12.350000
 11
9.787717
 21
-12.329369
 39
0
  0
LINE
  8
Background
  6
CONTINUOUS
 10
9.787717
 20
-12.329369
 11
9.640405
 21
-12.269910
 39
0
  0
LINE
  8
Background
  6
CONTINUOUS
 10
9.640405
 20
-12.269910
 11
9.252930
 21
-12.049121
 39
0
  0
LINE
  8
Background
  6
CONTINUOUS
 10
9.252930
 20
-12.049121
 11
8.762036
 21
-11.716858
 39
0
  0
LINE
  8
Background
  6
CONTINUOUS
 10
8.762036
 20
-11.716858
 11
8.192187
 21
-11.302344
 39
0
  0
LINE
  8
Background
  6
CONTINUOUS
 10
8.192187
 20
-11.302344
 11
6.913477
 21
-10.343457
 39
0
  0
LINE
  8
Background
  6
CONTINUOUS
 10
6.913477
 20
-10.343457
 11
6.253540
 21
-9.857532
 39
0
  0
LINE
  8
Background
  6
CONTINUOUS
 10
6.253540
 20
-9.857532
 11
5.612500
 21
-9.406250
 39
0
  0
LINE
  8
Background
  6
CONTINUOUS
 10
5.612500
 20
-9.406250
 11
5.014819
 21
-9.018835
 39
0
  0
LINE
  8
Background
  6
CONTINUOUS
 10
5.014819
 20
-9.018835
 11
4.484961
 21
-8.724512
 39
0
  0
LINE
  8
Background
  6
CONTINUOUS
 10
4.484961
 20
-8.724512
 11
4.253110
 21
-8.621391
 39
0
  0
LINE
  8
Background
  6
CONTINUOUS
 10
4.253110
 20
-8.621391
 11
4.047388
 21
-8.552502
 39
0
  0
LINE
  8
Background
  6
CONTINUOUS
 10
4.047388
 20
-8.552502
 11
3.870853
 21
-8.521498
 39
0
  0
LINE
  8
Background
  6
CONTINUOUS
 10
3.870853
 20
-8.521498
 11
3.726562
 21
-8.532031
 39
0
  0
LINE
  8
Background
  6
CONTINUOUS
 10
3.726562
 20
-8.532031
 11
3.617575
 21
-8.587755
 39
0
  0
LINE
  8
Background
  6
CONTINUOUS
 10
3.617575
 20
-8.587755
 11
3.577275
 21
-8.633705
 39
0
  0
LINE
  8
Background
  6
CONTINUOUS
 10
3.577275
 20
-8.633705
 11
3.546948
 21
-8.692322
 39
0
  0
LINE
  8
Background
  6
CONTINUOUS
 10
3.546948
 20
-8.692322
 11
3.517740
 21
-8.849385
 39
0
  0
LINE
  8
Background
  6
CONTINUOUS
 10
3.517740
 20
-8.849385
 11
3.533008
 21
-9.062598
 39
0
  0
LINE
  8
Background
  6
CONTINUOUS
 10
3.533008
 20
-9.062598
 11
3.595810
 21
-9.335612
 39
0
  0
LINE
  8
Background
  6
CONTINUOUS
 10
3.595810
 20
-9.335612
 11
3.709204
 21
-9.672083
 39
0
  0
LINE
  8
Background
  6
CONTINUOUS
 10
3.709204
 20
-9.672083
 11
3.876248
 21
-10.075661
 39
0
  0
LINE
  8
Background
  6
CONTINUOUS
 10
3.876248
 20
-10.075661
 11
4.100000
 21
-10.550000
 39
0
  0
LINE
  8
Background
  6
CONTINUOUS
 10
4.100000
 20
-10.550000
 11
4.341885
 21
-11.017455
 39
0
  0
LINE
  8
Background
  6
CONTINUOUS
 10
4.341885
 20
-11.017455
 11
4.562036
 21
-11.400964
 39
0
  0
LINE
  8
Background
  6
CONTINUOUS
 10
4.562036
 20
-11.400964
 11
4.761569
 21
-11.705061
 39
0
  0
LINE
  8
Background
  6
CONTINUOUS
 10
4.761569
 20
-11.705061
 11
4.941602
 21
-11.934277
 39
0
  0
LINE
  8
Background
  6
CONTINUOUS
 10
4.941602
 20
-11.934277
 11
5.103250
 21
-12.093144
 39
0
  0
LINE
  8
Background
  6
CONTINUOUS
 10
5.103250
 20
-12.093144
 11
5.247632
 21
-12.186194
 39
0
  0
LINE
  8
Background
  6
CONTINUOUS
 10
5.247632
 20
-12.186194
 11
5.375864
 21
-12.217958
 39
0
  0
LINE
  8
Background
  6
CONTINUOUS
 10
5.375864
 20
-12.217958
 11
5.489062
 21
-12.192969
 39
0
  0
LINE
  8
Background
  6
CONTINUOUS
 10
5.489062
 20
-12.192969
 11
5.588345
 21
-12.115758
 39
0
  0
LINE
  8
Background
  6
CONTINUOUS
 10
5.588345
 20
-12.115758
 11
5.674829
 21
-11.990857
 39
0
  0
LINE
  8
Background
  6
CONTINUOUS
 10
5.674829
 20
-11.990857
 11
5.749631
 21
-11.822798
 39
0
  0
LINE
  8
Background
  6
CONTINUOUS
 10
5.749631
 20
-11.822798
 11
5.813867
 21
-11.616113
 39
0
  0
LINE
  8
Background
  6
CONTINUOUS
 10
5.813867
 20
-11.616113
 11
5.915112
 21
-11.104993
 39
0
  0
LINE
  8
Background
  6
CONTINUOUS
 10
5.915112
 20
-11.104993
 11
5.987500
 21
-10.493750
 39
0
  0
LINE
  8
Background
  6
CONTINUOUS
 10
5.987500
 20
-10.493750
 11
6.039966
 21
-9.818640
 39
0
  0
LINE
  8
Background
  6
CONTINUOUS
 10
6.039966
 20
-9.818640
 11
6.081445
 21
-9.115918
 39
0
  0
LINE
  8
Background
  6
CONTINUOUS
 10
6.081445
 20
-9.115918
 11
6.167187
 21
-7.772656
 39
0
  0
LINE
  8
Background
  6
CONTINUOUS
 10
6.167187
 20
-7.772656
 11
6.229321
 21
-7.204626
 39
0
  0
LINE
  8
Background
  6
CONTINUOUS
 10
6.229321
 20
-7.204626
 11
6.316211
 21
-6.754004
 39
0
  0
LINE
  8
Background
  6
CONTINUOUS
 10
6.316211
 20
-6.754004
 11
6.371732
 21
-6.584050
 39
0
  0
LINE
  8
Background
  6
CONTINUOUS
 10
6.371732
 20
-6.584050
 11
6.436792
 21
-6.457043
 39
0
  0
LINE
  8
Background
  6
CONTINUOUS
 10
6.436792
 20
-6.457043
 11
6.512509
 21
-6.377516
 39
0
  0
LINE
  8
Background
  6
CONTINUOUS
 10
6.512509
 20
-6.377516
 11
6.600000
 21
-6.350000
 39
0
  0
LINE
  8
Background
  6
DASHDOT
 10
2.900000
 20
-2.900000
 11
3.030264
 21
-2.917786
 39
0
  0
LINE
  8
Background
  6
DASHDOT
 10
3.030264
 20
-2.917786
 11
3.230200
 21
-2.969629
 39
0
  0
LINE
  8
Background
  6
DASHDOT
 10
3.230200
 20
-2.969629
 11
3.818945
 21
-3.166406
 39
0
  0
LINE
  8
Background
  6
DASHDOT
 10
3.818945
 20
-3.166406
 11
4.625952
 21
-3.472168
 39
0
  0
LINE
  8
Background
  6
DASHDOT
 10
4.625952
 20
-3.472168
 11
5.610937
 21
-3.868750
 39
0
  0
LINE
  8
Background
  6
DASHDOT
 10
5.610937
 20
-3.868750
 11
7.953711
 21
-4.861719
 39
0
  0
LINE
  8
Background
  6
DASHDOT
 10
7.953711
 20
-4.861719
 11
10.525000
 21
-6.000000
 39
0
  0
LINE
  8
Background
  6
DASHDOT
 10
10.525000
 20
-6.000000
 11
13.002539
 21
-7.138281
 39
0
  0
LINE
  8
Background
  6
DASHDOT
 10
13.002539
 20
-7.138281
 11
15.064062
 21
-8.131250
 39
0
  0
LINE
  8
Background
  6
DASHDOT
 10
15.064062
 20
-8.131250
 11
15.838110
 21
-8.527832
 39
0
  0
LINE
  8
Background
  6
DASHDOT
 10
15.838110
 20
-8.527832
 11
16.387305
 21
-8.833594
 39
0
  0
LINE
  8
Background
  6
DASHDOT
 10
16.387305
 20
-8.833594
 11
16.564993
 21
-8.946741
 39
0
  0
LINE
  8
Background
  6
DASHDOT
 10
16.564993
 20
-8.946741
 11
16.671362
 21
-9.030371
 39
0
  0
LINE
  8
Background
  6
DASHDOT
 10
16.671362
 20
-9.030371
 11
16.701376
 21
-9.082214
 39
0
  0
LINE
  8
Background
  6
DASHDOT
 10
16.701376
 20
-9.082214
 11
16.686177
 21
-9.095506
 39
0
  0
LINE
  8
Background
  6
DASHDOT
 10
16.686177
 20
-9.095506
 11
16.650000
 21
-9.100000
 39
0
  0
LINE
  8
Background
  6
DASHDOT
 10
16.650000
 20
-9.100000
 11
16.519736
 21
-9.082214
 39
0
  0
LINE
  8
Background
  6
DASHDOT
 10
16.519736
 20
-9.082214
 11
16.319800
 21
-9.030371
 39
0
  0
LINE
  8
Background
  6
DASHDOT
 10
16.319800
 20
-9.030371
 11
15.731055
 21
-8.833594
 39
0
  0
LINE
  8
Background
  6
DASHDOT
 10
15.731055
 20
-8.833594
 11
14.924048
 21
-8.527832
 39
0
  0
LINE
  8
Background
  6
DASHDOT
 10
14.924048
 20
-8.527832
 11
13.939062
 21
-8.131250
 39
0
  0
LINE
  8
Background
  6
DASHDOT
 10
13.939062
 20
-8.131250
 11
11.596289
 21
-7.138281
 39
0
  0
LINE
  8
Background
  6
DASHDOT
 10
11.596289
 20
-7.138281
 11
9.025000
 21
-6.000000
 39
0
  0
LINE
  8
Background
  6
DASHDOT
 10
9.025000
 20
-6.000000
 11
6.547461
 21
-4.861719
 39
0
  0
LINE
  8
Background
  6
DASHDOT
 10
6.547461
 20
-4.861719
 11
4.485937
 21
-3.868750
 39
0
  0
LINE
  8
Background
  6
DASHDOT
 10
4.485937
 20
-3.868750
 11
3.711890
 21
-3.472168
 39
0
  0
LINE
  8
Background
  6
DASHDOT
 10
3.711890
 20
-3.472168
 11
3.162695
 21
-3.166406
 39
0
  0
LINE
  8
Background
  6
DASHDOT
 10
3.162695
 20
-3.166406
 11
2.985007
 21
-3.053259
 39
0
  0
LINE
  8
Background
  6
DASHDOT
 10
2.985007
 20
-3.053259
 11
2.878638
 21
-2.969629
 39
0
  0
LINE
  8
Background
  6
DASHDOT
 10
2.878638
 20
-2.969629
 11
2.848624
 21
-2.917786
 39
0
  0
LINE
  8
Background
  6
DASHDOT
 10
2.848624
 20
-2.917786
 11
2.863823
 21
-2.904494
 39
0
  0
LINE
  8
Background
  6
DASHDOT
 10
2.863823
 20
-2.904494
 11
2.900000
 21
-2.900000
 39
0
0
ENDSEC
0
EOF
