0
SECTION
2
TABLES
0
LAYER
2
Background
62
1
0
ENDTAB
0
ENDSEC
0
SECTION
2
ENTITIES
  0
ELLIPSE
  8
Background
  6
CONTINUOUS
 10
3.250000
 20
-2.400000
 11
0.000000
 40
1.000000
 39
0
 41
1.570796
 42
3.141593
  0
ELLIPSE
  8
Background
  6
CONTINUOUS
 10
9.800000
 20
-2.400000
 11
0.000000
 40
1.000000
 39
0
 41
0.000000
 42
1.570796
  0
ELLIPSE
  8
Background
  6
CONTINUOUS
 10
3.250000
 20
-4.550000
 11
0.000000
 40
1.000000
 39
0
 41
3.141593
 42
4.712389
  0
ELLIPSE
  8
Background
  6
CONTINUOUS
 10
9.800000
 20
-4.550000
 11
0.000000
 40
1.000000
 39
0
 41
4.712389
 42
6.283185
  0
LINE
  8
Background
  6
DASHDOT
 10
3.250000
 20
-2.400000
 11
9.800000
 21
-2.400000
 39
0
  0
LINE
  8
Background
  6
DASHDOT
 10
3.250000
 20
-4.550000
 11
9.800000
 21
-4.550000
 39
0
  0
ELLIPSE
  8
Background
  6
DASHDOT
 10
3.250000
 20
-2.400000
 11
0.000000
 40
1.000000
 39
0
 41
1.570796
 42
3.141593
  0
ELLIPSE
  8
Background
  6
DASHDOT
 10
9.800000
 20
-2.400000
 11
0.000000
 40
1.000000
 39
0
 41
0.000000
 42
1.570796
  0
LINE
  8
Background
  6
DASHDOT
 10
3.250000
 20
-2.400000
 11
3.250000
 21
-4.550000
 39
0
  0
LINE
  8
Background
  6
DASHDOT
 10
9.800000
 20
-2.400000
 11
9.800000
 21
-4.550000
 39
0
  0
ELLIPSE
  8
Background
  6
DASHDOT
 10
3.250000
 20
-4.550000
 11
0.000000
 40
1.000000
 39
0
 41
3.141593
 42
4.712389
  0
ELLIPSE
  8
Background
  6
DASHDOT
 10
9.800000
 20
-4.550000
 11
0.000000
 40
1.000000
 39
0
 41
4.712389
 42
6.283185
  0
LINE
  8
Background
  6
CONTINUOUS
 10
2.530000
 20
-3.750000
 11
7.020000
 21
-3.750000
 39
1
  0
LINE
  8
Background
  6
CONTINUOUS
 10
2.530000
 20
-6.500000
 11
7.020000
 21
-6.500000
 39
1
  0
ELLIPSE
  8
Background
  6
CONTINUOUS
 10
2.530000
 20
-3.830000
 11
0.080000
 40
1.000000
 39
1
 41
1.570796
 42
3.141593
  0
ELLIPSE
  8
Background
  6
CONTINUOUS
 10
7.020000
 20
-3.830000
 11
0.080000
 40
1.000000
 39
1
 41
0.000000
 42
1.570796
  0
LINE
  8
Background
  6
CONTINUOUS
 10
2.450000
 20
-3.830000
 11
2.450000
 21
-6.420000
 39
1
  0
LINE
  8
Background
  6
CONTINUOUS
 10
7.100000
 20
-3.830000
 11
7.100000
 21
-6.420000
 39
1
  0
ELLIPSE
  8
Background
  6
CONTINUOUS
 10
2.530000
 20
-6.420000
 11
0.080000
 40
1.000000
 39
1
 41
3.141593
 42
4.712389
  0
ELLIPSE
  8
Background
  6
CONTINUOUS
 10
7.020000
 20
-6.420000
 11
0.080000
 40
1.000000
 39
1
 41
4.712389
 42
6.283185
  0
ELLIPSE
  8
Background
  6
CONTINUOUS
 10
8.300000
 20
-1.800000
 11
0.000000
 40
1.000000
 39
1
 41
1.570796
 42
3.141593
  0
ELLIPSE
  8
Background
  6
CONTINUOUS
 10
12.750000
 20
-1.800000
 11
0.000000
 40
1.000000
 39
1
 41
0.000000
 42
1.570796
  0
ELLIPSE
  8
Background
  6
CONTINUOUS
 10
8.300000
 20
-6.250000
 11
0.000000
 40
1.000000
 39
1
 41
3.141593
 42
4.712389
  0
ELLIPSE
  8
Background
  6
CONTINUOUS
 10
12.750000
 20
-6.250000
 11
0.000000
 40
1.000000
 39
1
 41
4.712389
 42
6.283185
  0
LINE
  8
Background
  6
CONTINUOUS
 10
8.300000
 20
-1.800000
 11
12.750000
 21
-1.800000
 39
0
  0
LINE
  8
Background
  6
CONTINUOUS
 10
8.300000
 20
-6.250000
 11
12.750000
 21
-6.250000
 39
0
  0
ELLIPSE
  8
Background
  6
CONTINUOUS
 10
8.300000
 20
-1.800000
 11
0.000000
 40
1.000000
 39
0
 41
1.570796
 42
3.141593
  0
ELLIPSE
  8
Background
  6
CONTINUOUS
 10
12.750000
 20
-1.800000
 11
0.000000
 40
1.000000
 39
0
 41
0.000000
 42
1.570796
  0
LINE
  8
Background
  6
CONTINUOUS
 10
8.300000
 20
-1.800000
 11
8.300000
 21
-6.250000
 39
0
  0
LINE
  8
Background
  6
CONTINUOUS
 10
12.750000
 20
-1.800000
 11
12.750000
 21
-6.250000
 39
0
  0
ELLIPSE
  8
Background
  6
CONTINUOUS
 10
8.300000
 20
-6.250000
 11
0.000000
 40
1.000000
 39
0
 41
3.141593
 42
4.712389
  0
ELLIPSE
  8
Background
  6
CONTINUOUS
 10
12.750000
 20
-6.250000
 11
0.000000
 40
1.000000
 39
0
 41
4.712389
 42
6.283185
0
ENDSEC
0
EOF
