/* XPM */
static char * emlprocess_xpm[] = {
"22 22 3 1",
" 	c None",
".	c black",
"+	c white",
"                      ",
"  ..................  ",
"  .++++++++++++++++.  ",
"  .+.+++++.++++++++.  ",
"  .++.+++.+++++++++.  ",
"  .+++.+.++++++++++.  ",
"  .++++.+++++++++++.  ",
"  .+++.+.++++++++++.  ",
"  .++.+++.+++++++++.  ",
"  .+.+++++.++++++++.  ",
"  .++++++++++++++++.  ",
"  ..................  ",
"  .++++++++++++++++.  ",
"  .++++++++++++++++.  ",
"  .++++++++++++++++.  ",
"  ..................  ",
"  .++++++++++++++++.  ",
"  .++++++++++++++++.  ",
"  .++++++++++++++++.  ",
"  ..................  ",
"                      ",
"                      "};
