/* XPM */
static const char * condition_xpm[] = {
"22 22 3 1",
" 	c None",
".	c #000000",
"+	c #5F5F5F",
"                      ",
"      .               ",
"      .  ..           ",
"      .  .            ",
"      .  .            ",
"      .  .. ... ...   ",
"      .  .  . . . .   ",
"      .  .  ... ...   ",
"     ...              ",
"      .               ",
"    +++++++++++++++++ ",
"    +               + ",
"    +   +           + ",
"    +  + +     +    + ",
"    +  + +     +    + ",
"+++++  +++   +++++  + ",
"    + +   +    +    + ",
"    + +   +    +    + ",
"    + +   +         + ",
"    +               + ",
"    +++++++++++++++++ ",
"                      "};
