#define cursor_create_data_width 20
#define cursor_create_data_height 20
static unsigned char cursor_create_data_bits[] = {
   0x01, 0x00, 0x00, 0x03, 0x00, 0x00, 0x05, 0x00, 0x00, 0x09, 0x00, 0x00,
   0x11, 0x00, 0x00, 0x21, 0x00, 0x00, 0x41, 0x00, 0x00, 0x81, 0x00, 0x00,
   0x01, 0x01, 0x00, 0x01, 0x02, 0x00, 0xc1, 0x07, 0x00, 0x49, 0x00, 0x00,
   0x95, 0xf0, 0x07, 0x93, 0x10, 0x04, 0x21, 0x91, 0x04, 0x20, 0xd1, 0x05,
   0x40, 0x92, 0x04, 0x40, 0x12, 0x04, 0x80, 0xf1, 0x07, 0x00, 0x00, 0x00 };
