#define cursor_create_mask_width 20
#define cursor_create_mask_height 20
static unsigned char cursor_create_mask_bits[] = {
   0x01, 0x00, 0x00, 0x03, 0x00, 0x00, 0x07, 0x00, 0x00, 0x0f, 0x00, 0x00,
   0x1f, 0x00, 0x00, 0x3f, 0x00, 0x00, 0x7f, 0x00, 0x00, 0xff, 0x00, 0x00,
   0xff, 0x01, 0x00, 0xff, 0x03, 0x00, 0xff, 0x07, 0x00, 0x7f, 0x00, 0x00,
   0xf7, 0xf0, 0x07, 0xf3, 0xf0, 0x07, 0xe1, 0xf1, 0x07, 0xe0, 0xf1, 0x07,
   0xc0, 0xf3, 0x07, 0xc0, 0xf3, 0x07, 0x80, 0xf1, 0x07, 0x00, 0x00, 0x00 };
