/* Made with Gimp */
#define hand_open_data_width 20
#define hand_open_data_height 20
static char hand_open_data_bits[] = {
   0x00, 0x00, 0x00, 0x00, 0x00, 0x00, 0x00, 0x00, 0x00, 0x00, 0x06, 0x00,
   0x60, 0x36, 0x00, 0x60, 0x36, 0x00, 0xc0, 0x36, 0x01, 0xc0, 0xb6, 0x01,
   0x80, 0xbf, 0x01, 0x98, 0xff, 0x01, 0xb8, 0xff, 0x00, 0xf0, 0xff, 0x00,
   0xe0, 0xff, 0x00, 0xe0, 0x7f, 0x00, 0xc0, 0x7f, 0x00, 0x80, 0x3f, 0x00,
   0x00, 0x3f, 0x00, 0x00, 0x3f, 0x00, 0x00, 0x00, 0x00, 0x00, 0x00, 0x00 };
