/* Made with Gimp */
#define hand_closed_data_width 20
#define hand_closed_data_height 20
static char hand_closed_data_bits[] = {
   0x00, 0x00, 0x00, 0x00, 0x00, 0x00, 0x00, 0x00, 0x00, 0x00, 0x00, 0x00,
   0x00, 0x00, 0x00, 0x00, 0x00, 0x00, 0x00, 0x06, 0x00, 0x80, 0x3f, 0x00,
   0x80, 0xff, 0x00, 0x80, 0xff, 0x00, 0xb0, 0xff, 0x00, 0xf0, 0xff, 0x00,
   0xe0, 0xff, 0x00, 0xe0, 0x7f, 0x00, 0xc0, 0x7f, 0x00, 0x80, 0x3f, 0x00,
   0x00, 0x3f, 0x00, 0x00, 0x3f, 0x00, 0x00, 0x00, 0x00, 0x00, 0x00, 0x00 };
