/* Made with Gimp */
#define hand_open_data_width 20
#define hand_open_data_height 20
static unsigned char hand_open_data_bits[] = {
   0xff, 0xff, 0x0f, 0xff, 0xff, 0x0f, 0xff, 0xff, 0x0f, 0xff, 0xf9, 0x0f,
   0x9f, 0xc9, 0x0f, 0x9f, 0xc9, 0x0f, 0x3f, 0xc9, 0x0e, 0x3f, 0x49, 0x0e,
   0x7f, 0x40, 0x0e, 0x67, 0x00, 0x0e, 0x47, 0x00, 0x0f, 0x0f, 0x00, 0x0f,
   0x1f, 0x00, 0x0f, 0x1f, 0x80, 0x0f, 0x3f, 0x80, 0x0f, 0x7f, 0xc0, 0x0f,
   0xff, 0xc0, 0x0f, 0xff, 0xc0, 0x0f, 0xff, 0xff, 0x0f, 0xff, 0xff, 0x0f };
