/* Made with Gimp */
#define hand_open_mask_width 20
#define hand_open_mask_height 20
static char hand_open_mask_bits[] = {
   0x00, 0x00, 0x00, 0x00, 0x00, 0x00, 0x00, 0x06, 0x00, 0x60, 0x3f, 0x00,
   0xf0, 0x7f, 0x00, 0xf0, 0x7f, 0x01, 0xe0, 0xff, 0x03, 0xe0, 0xff, 0x03,
   0xd8, 0xff, 0x03, 0xfc, 0xff, 0x03, 0xfc, 0xff, 0x01, 0xf8, 0xff, 0x01,
   0xf0, 0xff, 0x01, 0xf0, 0xff, 0x00, 0xe0, 0xff, 0x00, 0xc0, 0x7f, 0x00,
   0x80, 0x7f, 0x00, 0x80, 0x7f, 0x00, 0x00, 0x00, 0x00, 0x00, 0x00, 0x00 };
