/* XPM */
static char * line_break_xpm[] = {
"22 22 47 1",
" 	c None",
".	c #0B0C14",
"+	c #000000",
"@	c #96AED9",
"#	c #8CA0CF",
"$	c #7A8DC3",
"%	c #7082BB",
"&	c #C0DBED",
"*	c #778BC2",
"=	c #5A68A1",
"-	c #7081B9",
";	c #59669C",
">	c #4E5477",
",	c #5F6FA8",
"'	c #4C5377",
")	c #555F8C",
"!	c #889BCD",
"~	c #43496A",
"{	c #43496C",
"]	c #515980",
"^	c #59659A",
"/	c #7386BC",
"(	c #91A7D4",
"_	c #7588BE",
":	c #57618E",
"<	c #323653",
"[	c #6575AE",
"}	c #4B5274",
"|	c #313652",
"1	c #5D6CA6",
"2	c #464C6F",
"3	c #2F3350",
"4	c #3C4261",
"5	c #6B7BB6",
"6	c #5968A0",
"7	c #424869",
"8	c #2E334D",
"9	c #6E7FB7",
"0	c #3F4564",
"a	c #2A2E47",
"b	c #393E5E",
"c	c #6B7CB4",
"d	c #525A83",
"e	c #3C4263",
"f	c #3E4363",
"g	c #0A0A11",
"h	c #292D46",
"                      ",
"                      ",
"            .......   ",
"           +@@@#$$%.  ",
"           .@&*%%%=.  ",
"           .@@%%%%=.  ",
"           .@%%-%%=.  ",
"       .   .@%$%%%=.  ",
"      .;.  .@%%%%%=.  ",
"     .@>....@%%%,').  ",
"    .@!;~~~{'>]^/({.  ",
"   .@/%%%%////_%:<.   ",
"  .@_%%%%%%%%%[}|.    ",
" .@*/%%%%%%%%123.     ",
"  .45%%%%%%%678.      ",
"   .49%%%%-60a.       ",
"    .b5c6;dea.        ",
"     .feg....         ",
"      .h.             ",
"       .              ",
"                      ",
"                      "};
