/* XPM */
static char * magnify_xpm[] = {
"22 22 6 1",
" 	c None",
".	c #000000",
"+	c #D0D0D0",
"@	c #F8F8F8",
"#	c #D8D8D8",
"$	c #909090",
"                      ",
"                      ",
"                      ",
"      ....            ",
"     .+@@#.$          ",
"    .@@$$@@.          ",
"   .#@@@@$@#.         ",
"   .@@@@@@$@.         ",
"   .@@@@@@@@.         ",
"   .#@@@@@@#.         ",
"    .@@@@@@.          ",
"    $.#@@#...         ",
"     $.... ...        ",
"            ...       ",
"             ...      ",
"              ...     ",
"             $$...    ",
"              $$.$    ",
"                $     ",
"                      ",
"                      ",
"                      "};
