/* XPM */
static const char *missing[] = {
/* columns rows colors chars-per-pixel */
"24 24 142 2",
"   c black",
".  c #585858",
"X  c #65625A",
"o  c #676359",
"O  c #706F6F",
"+  c #DF421E",
"@  c #88847B",
"#  c #8D887E",
"$  c #8F8A81",
"%  c gray56",
"&  c #979288",
"*  c #9B958A",
"=  c #9B968A",
"-  c #9D978B",
";  c #9D978C",
":  c #9E988D",
">  c #9F998D",
",  c #999891",
"<  c #9B9B9B",
"1  c #9F9E9D",
"2  c gray62",
"3  c #A19B8F",
"4  c #A19B90",
"5  c #A19C90",
"6  c #A29C90",
"7  c #A39D91",
"8  c #A39D92",
"9  c #A39E92",
"0  c #A49E93",
"q  c #A2A2A2",
"w  c #A4A4A3",
"e  c #AFAEAC",
"r  c #AFAFAE",
"t  c #B2B2B2",
"y  c #B7B7B5",
"u  c #C1C0BD",
"i  c #C0C0C0",
"p  c #C3C2C0",
"a  c #C4C3C2",
"s  c #C6C5C3",
"d  c gray78",
"f  c #C9C8C7",
"g  c #CBCBC9",
"h  c #CECDCD",
"j  c gray81",
"k  c #D0D0CE",
"l  c #D2D1CE",
"z  c #D5D3CE",
"x  c gray82",
"c  c #D3D2D0",
"v  c #D3D2D1",
"b  c LightGray",
"n  c #D7D5D1",
"m  c #D6D4D2",
"M  c #D7D6D1",
"N  c gray83",
"B  c #D5D5D5",
"V  c gray84",
"C  c #D8D6D2",
"Z  c #D9D7D3",
"A  c #D8D8D6",
"S  c #DAD9D7",
"D  c #DCDAD6",
"F  c #DCDBD7",
"G  c #DDDBD7",
"H  c #D8D8D8",
"J  c gray85",
"K  c #DADADA",
"L  c #DDDCD8",
"P  c #DEDCD8",
"I  c #DEDDD9",
"U  c #DFDEDA",
"Y  c #DDDDDD",
"T  c #DEDDDC",
"R  c #DFDFDF",
"E  c #E0DEDA",
"W  c #E0DFDB",
"Q  c #E1DFDB",
"!  c #E1DFDC",
"~  c #E1E0DC",
"^  c #E1E0DD",
"/  c #E2E0DD",
"(  c #E2E1DD",
")  c #E3E2DE",
"_  c #E3E2DF",
"`  c #E4E2DF",
"'  c #E4E3DF",
"]  c #E1E1E1",
"[  c #E3E3E1",
"{  c #E4E3E0",
"}  c #E5E4E0",
"|  c #E5E4E1",
" . c #E4E4E2",
".. c #E5E4E2",
"X. c #E6E4E1",
"o. c #E6E5E2",
"O. c #E6E5E3",
"+. c #E7E5E2",
"@. c #E7E6E3",
"#. c #E8E7E4",
"$. c #E8E7E5",
"%. c #E9E8E5",
"&. c #E9E8E6",
"*. c #EAE8E6",
"=. c #EAE9E7",
"-. c #E9E9E9",
";. c #EBEAE8",
":. c #EBEBE8",
">. c #ECEBE9",
",. c #EDECEA",
"<. c #EDECEB",
"1. c #EDEDEB",
"2. c #EEEDEB",
"3. c gray93",
"4. c #EEEEED",
"5. c #EFEEEC",
"6. c #EFEFED",
"7. c #F0EFED",
"8. c #F0F0EE",
"9. c #F1F0EE",
"0. c #F1F1EF",
"q. c gray94",
"w. c #F2F2F0",
"e. c #F3F3F1",
"r. c #F4F3F2",
"t. c #F5F4F3",
"y. c #F4F4F4",
"u. c #F6F5F4",
"i. c #F6F6F4",
"p. c #F7F6F5",
"a. c #F6F6F6",
"s. c #F8F7F6",
"d. c #F8F8F7",
"f. c #F9F9F8",
"g. c #F9F9F9",
"h. c #FAFAF9",
"j. c #FBFBFB",
"k. c #FCFCFB",
"l. c #FDFDFD",
"z. c #FEFEFE",
"x. c gray100",
"c. c None",
/* pixels */
"c.c.c.c.c.c.c.c.c.c.c.c.c.c.c.c.c.c.c.c.c.c.c.c.",
"c.c.                              c.c.c.c.c.c.c.",
"c.c.  b a.x.x.x.x.x.x.x.x.j.J .       c.c.c.c.c.",
"c.c.  a.x.x.x.x.x.x.x.x.x.x.d b N       c.c.c.c.",
"c.c.  x.x.t J J J S S J N K u ] q.<       c.c.c.",
"c.c.  x.x.N x.x.x.x.j.j.x.j.r -.x.K %       c.c.",
"c.c.  x.x.J x.x.h.h.j.j.j.a.w q.x.a.j q       c.",
"c.c.  x.x.N j.j.j.j.a.j.a.j.2                 c.",
"c.c.  x.j.N j.d.p.p.p.a.a.i.t.U l y 1 O o     c.",
"c.c.  x.j.M a.a.p.p.t.p.t.t.0. .J S ' r @     c.",
"c.c.  x.a.M a.i.t.+ + t.0.+ + 2.2.%.3.a $     c.",
"c.c.  x.t.k t.q.0.0.+ + + + 2.2.%. .t.z #     c.",
"c.c.  x.t.h 0.0.2.9.0.+ + 6.2. .' ' 0.E &     c.",
"c.c.  x.t.h 0.0.9.0.+ + + + 2.%. . .5.~ 0     c.",
"c.c.  x.0.g 0.2.2.+ + 2.2.+ +  . .! 3.U 6     c.",
"c.c.  x.2.f *.:.2.%.*.*.%.*.'  .! U 2.U 3     c.",
"c.c.  x.-.s %.%.%.%.%.%.' %.' ) ~ U 2.S 3     c.",
"c.c.  x.' a #.'  . .' ' ' ' ! E U D 2.Z >     c.",
"c.c.  j.' u ' ' ) ! ) ! ' ! ! U D D 2.C >     c.",
"c.c.  3.! M :.:.2.=.2.-.2.%.2.%.%. .0.M -     c.",
"c.c.  b ! ! U U ! U E U E L U D D C M z =     c.",
"c.c.  , 8 0 6 6 6 6 6 6 3 3 3 > > ; ; = o     c.",
"c.c.                                          c.",
"c.c.                                          c."
};
