/* XPM */
static char * off_grid_xpm[] = {
"24 24 9 1",
" 	c None",
".	c #FFFFFF",
"+	c #DEE6E6",
"@	c #F4F4F4",
"#	c #C3C3C3",
"$	c #8E8E8E",
"%	c #525252",
"&	c #0E0E0E",
"*	c #000000",
".......+++..............",
".......+++..............",
".......+++..............",
".......+++..............",
".......+++..............",
".......+++..............",
".......+++..............",
".......+++..............",
".......+++..............",
"++++++++++++++++++++++++",
"++++++++++++++++++++++++",
"++++++++++++++++++++++++",
".......+++..............",
".......+++..............",
".......+++..@#$$#@......",
".......+++..#%&&%#......",
".......+++..$&**&$......",
".......+++..$&**&$......",
".......+++..#%&&%#......",
".......+++..@#$$#@......",
".......+++..............",
".......+++..............",
".......+++..............",
".......+++.............."};
