/* XPM */
static char * on_grid_xpm[] = {
"24 24 21 1",
" 	c None",
".	c #FFFFFF",
"+	c #DEE6E6",
"@	c #FEFEFE",
"#	c #F3F3F3",
"$	c #BCC3C3",
"%	c #B4BBBB",
"&	c #C0C7C7",
"*	c #F8F8F8",
"=	c #9C9C9C",
"-	c #232424",
";	c #0A0B0B",
">	c #434545",
",	c #C3C3C3",
"'	c #020202",
")	c #4D5050",
"!	c #030303",
"~	c #353737",
"{	c #181818",
"]	c #6D7171",
"^	c #E4E4E4",
".......+++..............",
".......+++..............",
".......+++..............",
".......+++..............",
".......+++..............",
".......+++..............",
".......+++..............",
".....@#$%&*.............",
".....#=-;>,.............",
"+++++$-'';)+++++++++++++",
"+++++%;''!~+++++++++++++",
"+++++&>;!{]+++++++++++++",
".....*,)~]^.............",
".......+++..............",
".......+++..............",
".......+++..............",
".......+++..............",
".......+++..............",
".......+++..............",
".......+++..............",
".......+++..............",
".......+++..............",
".......+++..............",
".......+++.............."};
