/* XPM */
static char * snap_to_grid_xpm[] = {
"13 12 4 1",
" 	c None",
".	c #000000",
"+	c #D70000",
"@	c #FF0000",
"    .        ",
"    .        ",
"    .        ",
"    +        ",
"...+@+.......",
"    +        ",
"    . .      ",
"    .  ...   ",
"    .  ..    ",
"    .  . .   ",
"    .     .  ",
"    .        "};
