/* XPM */
static char * snap_to_grid_mask_xpm[] = {
"13 12 11 1",
" 	c None",
".	c #000000",
"+	c #FFFFFF",
"@	c #464646",
"#	c #474747",
"$	c #1A1A1A",
"%	c #010101",
"&	c #030303",
"*	c #1C1C1C",
"=	c #090909",
"-	c #1B1B1B",
"....+........",
"....+........",
"....+........",
"...@+@.......",
"+++++++++++++",
"...@+#.......",
"....+.+@$....",
"....+.@+++%..",
"....+.$++$...",
"....+.&+$+$..",
"....+.&*=-+$.",
"....+.%%.%$.."};
