/* XPM */
static char * antenna_xpm[] = {
"22 22 84 1",
" 	c None",
".	c #EBEBEB",
"+	c #D8D8D8",
"@	c #E2E2E2",
"#	c #E9E9E9",
"$	c #E1E1E1",
"%	c #CECECE",
"&	c #E6E6E6",
"*	c #D3D3D3",
"=	c #C4C4C4",
"-	c #696969",
";	c #8A8A8A",
">	c #2E2E2E",
",	c #3A3A3A",
"'	c #535353",
")	c #616161",
"!	c #B3B3B3",
"~	c #878787",
"{	c #8B8B8B",
"]	c #CACACA",
"^	c #9C9C9C",
"/	c #9E9E9E",
"(	c #B8B8B8",
"_	c #777777",
":	c #767676",
"<	c #888888",
"[	c #7F7F7F",
"}	c #DFDFDF",
"|	c #737373",
"1	c #B1B1B1",
"2	c #686868",
"3	c #A0A0A0",
"4	c #F0F0F0",
"5	c #AEAEAE",
"6	c #919191",
"7	c #A1A1A1",
"8	c #797979",
"9	c #8C8C8C",
"0	c #929292",
"a	c #B4B4B4",
"b	c #9F9F9F",
"c	c #707070",
"d	c #C7C7C7",
"e	c #909090",
"f	c #9A9A9A",
"g	c #B6B6B6",
"h	c #ECECEC",
"i	c #828282",
"j	c #D4D4D4",
"k	c #A8A8A8",
"l	c #ADADAD",
"m	c #EFEFEF",
"n	c #848484",
"o	c #9D9D9D",
"p	c #9B9B9B",
"q	c #AFAFAF",
"r	c #6A6A6A",
"s	c #F7F7F7",
"t	c #BDBDBD",
"u	c #EEEEEE",
"v	c #AAAAAA",
"w	c #6D6D6D",
"x	c #CBCBCB",
"y	c #E3E3E3",
"z	c #949494",
"A	c #4B4B4B",
"B	c #555555",
"C	c #A2A2A2",
"D	c #B7B7B7",
"E	c #656565",
"F	c #505050",
"G	c #979797",
"H	c #646464",
"I	c #959595",
"J	c #A7A7A7",
"K	c #8E8E8E",
"L	c #BABABA",
"M	c #F5F5F5",
"N	c #BBBBBB",
"O	c #F4F4F4",
"P	c #B2B2B2",
"Q	c #ACACAC",
"R	c #7D7D7D",
"S	c #A5A5A5",
"           .          ",
"          ++          ",
"       @# $  .        ",
"       @%&*$$=$       ",
"          -;          ",
"          >,          ",
"          ')          ",
"         !~{]         ",
"         ^/(/         ",
"         _:<[         ",
"        }|/12         ",
"        34^(#5        ",
"        678970        ",
"        -33abc        ",
"       de4fghij       ",
"       /hk89lmf       ",
"       noopqoo{       ",
"       r(s7tuvw       ",
"      1xyzABCmDa      ",
"      eEcFG/FH[I      ",
"      JKLMINOP{Q      ",
"        $CR9S#        "};
