/* XPM */
static char * computer_xpm[] = {
"22 22 6 1",
" 	c None",
".	c #000000",
"+	c #ADADAD",
"@	c #FFFFFF",
"#	c #43FF00",
"$	c #FFFA00",
"    .............     ",
"    .+++++++++++.     ",
"    .+.........+.     ",
"    .+.+++++++.+.     ",
"    .+.........+.     ",
"    .+.+++++++.+.     ",
"    .+.........+.     ",
"    .+.+++++++.+.     ",
"    .+.........+.     ",
"    .+++++++++++.     ",
"    .+.....+++++.     ",
"    .+.+++.+@@+#.     ",
"    .+.....+@@+$.     ",
"    .+++++++++++.     ",
"    .+.+.+.+.+.+.     ",
"    .+.+.+.+.+.+.     ",
"    .+.+.+.+.+.+.     ",
"   ..+.+.+.+.+.+..    ",
"  .+.+++++++++++.+.   ",
" .++.............++.  ",
" .+++++++++++++++++.  ",
" ...................  "};
