/* XPM */
static char * modem_xpm[] = {
"22 22 42 1",
" 	c None",
".	c #BEBEBE",
"+	c #696969",
"@	c #767676",
"#	c #6E6E6E",
"$	c #959595",
"%	c #9F9F9F",
"&	c #676767",
"*	c #9C9C9C",
"=	c #FBFBFB",
"-	c #FEFEFE",
";	c #FFFFFF",
">	c #C5C5C5",
",	c #646464",
"'	c #8F8F8F",
")	c #C6C6C6",
"!	c #A5A5A5",
"~	c #AAAAAA",
"{	c #ADADAD",
"]	c #BFBFBF",
"^	c #B0B0B0",
"/	c #AFAFAF",
"(	c #C0C0C0",
"_	c #BDBDBD",
":	c #B1B1B1",
"<	c #AEAEAE",
"[	c #B4B4B4",
"}	c #B5B5B5",
"|	c #5B5B5B",
"1	c #A9A9A9",
"2	c #F1F1F1",
"3	c #CECECE",
"4	c #A6A6A6",
"5	c #F9F9F9",
"6	c #F0F0F0",
"7	c #ABABAB",
"8	c #BBBBBB",
"9	c #B2B2B2",
"0	c #9D9D9D",
"a	c #A0A0A0",
"b	c #5C5C5C",
"c	c #858585",
"                      ",
"                      ",
"                      ",
"                      ",
"                      ",
"                      ",
"                      ",
"   .+@@@@@@@@@@@@#$   ",
"%@&*=-;;;;;;;;;;;;>,@'",
"@)!!!!!!!!!!!!!!!!!!~@",
"@{].^/(_:~]]^{(]<[}(:|",
"@{]123_453..361(.;{(:|",
"@{]_<7(8^7(({~(({}9(:|",
"@0aaaaaaaaaaaaaaaaaa$b",
"0@@@@@@@@@@@@@@@@@@@@c",
"                      ",
"                      ",
"                      ",
"                      ",
"                      ",
"                      ",
"                      "};
