/* XPM */
static char * modularswitch_xpm[] = {
"22 22 4 1",
" 	c None",
".	c #000000",
"+	c #FFFFFF",
"@	c #5E5E5E",
"                      ",
" .................... ",
" .++++++++++++++++++. ",
" .+@@@@@@@@@@@@@@..+. ",
" .+@@@@@@@@@@@@@@..+. ",
" .+@@@@@@@@@@@@@@..+. ",
" .++++++++++++++++++. ",
" .++++++++++++++++++. ",
" .+@@@@@@@@@@@@@@..+. ",
" .+@@@@@@@@@@@@@@..+. ",
" .+@@@@@@@@@@@@@@..+. ",
" .++++++++++++++++++. ",
" .++++++++++++++++++. ",
" .+@@@@@@@@@@@@@@..+. ",
" .+@@@@@@@@@@@@@@..+. ",
" .+@@@@@@@@@@@@@@..+. ",
" .++++++++++++++++++. ",
" .++++++++++++++++++. ",
" .+@@@@@@@@@@@@@@..+. ",
" .++++++++++++++++++. ",
" .................... ",
"                      "};
