/* XPM */
static char * monitor_xpm[] = {
"22 22 4 1",
" 	c None",
".	c #000000",
"+	c #ADADAD",
"@	c #FFFFFF",
"                      ",
" .................... ",
" .++++++++++++++++++. ",
" .+................+. ",
" .+................+. ",
" .+................+. ",
" .+................+. ",
" .+................+. ",
" .+................+. ",
" .+................+. ",
" .+................+. ",
" .+................+. ",
" .+................+. ",
" .++++++++++++++++++. ",
" .................... ",
"   .++++++++.@@+++.   ",
"    .+++++++.@@++.    ",
"    ..............    ",
"        .++++.        ",
"      ...++++...      ",
"      .++++++++.      ",
"      ..........      "};
