/* XPM */
static char * printer_xpm[] = {
"22 22 5 1",
" 	c None",
".	c #000000",
"+	c #FFFFFF",
"@	c #7A7A7A",
"#	c #2AFF00",
"       ........       ",
"       .++++++.       ",
"       .++++++.       ",
"       .++++++.       ",
"      ..++++++..      ",
"      .++++++++.      ",
"   ....++++++++....   ",
"   .@@.++++++++.@@.   ",
"  ..@@.++++++++.@@..  ",
"  .@@............@@.  ",
"  .@@............@@.  ",
" ..@..............@.. ",
" .@@..............@@. ",
" .@@@@@@@@@@@@@@@@@@. ",
"......................",
".@@@@@@@@@@@@@@@@@@@@.",
".@@@@#@@#@@@@@..@@@@@.",
".@@@@@@@@@@@@@@@@@@@@.",
".@@@@#@@#@@@@@..@@@@@.",
".@@@@@@@@@@@@@@@@@@@@.",
"..@@@#@@#@@@@@@@@@@@..",
" .................... "};
